<?xml version="1.0" encoding="utf-8"?>
<!-- Generator: Adobe Illustrator 24.2.3, SVG Export Plug-In . SVG Version: 6.00 Build 0)  -->
<!DOCTYPE svg PUBLIC "-//W3C//DTD SVG 1.1//EN" "http://www.w3.org/Graphics/SVG/1.1/DTD/svg11.dtd" [
	<!ENTITY ns_extend "http://ns.adobe.com/Extensibility/1.0/">
	<!ENTITY ns_ai "http://ns.adobe.com/AdobeIllustrator/10.0/">
	<!ENTITY ns_graphs "http://ns.adobe.com/Graphs/1.0/">
	<!ENTITY ns_vars "http://ns.adobe.com/Variables/1.0/">
	<!ENTITY ns_imrep "http://ns.adobe.com/ImageReplacement/1.0/">
	<!ENTITY ns_sfw "http://ns.adobe.com/SaveForWeb/1.0/">
	<!ENTITY ns_custom "http://ns.adobe.com/GenericCustomNamespace/1.0/">
	<!ENTITY ns_adobe_xpath "http://ns.adobe.com/XPath/1.0/">
]>
<svg version="1.1" id="Layer_1" xmlns:x="&ns_extend;" xmlns:i="&ns_ai;" xmlns:graph="&ns_graphs;"
	 xmlns="http://www.w3.org/2000/svg" xmlns:xlink="http://www.w3.org/1999/xlink" x="0px" y="0px" width="18px" height="18px"
	 viewBox="0 0 18 18" style="enable-background:new 0 0 18 18;" xml:space="preserve">
<style type="text/css">
	.st0{fill:#FAA71A;}
	.st1{fill:url(#SVGID_1_);}
	.st2{fill:url(#SVGID_2_);}
</style>
<metadata>
	<sfw  xmlns="&ns_sfw;">
		<slices></slices>
		<sliceSourceBounds  bottomLeftOrigin="true" height="17.6" width="13.9" x="2" y="0.2"></sliceSourceBounds>
	</sfw>
</metadata>
<g id="Regmark">
</g>
<path class="st0" d="M14.2,5.2l-0.1-0.1l-1.2-0.7L10.4,3c-0.8-0.4-2-0.4-2.7,0L5.1,4.4L3.9,5.2L3.7,5.2C2.1,6.3,2,6.5,2,8.2v4.1
	c0,1.7,0.1,1.9,1.7,3l3.9,2.2C8,17.7,8.5,17.8,9,17.8c0.5,0,1-0.1,1.4-0.3l3.9-2.3c1.6-1.1,1.7-1.3,1.7-3V8.2
	C16,6.5,15.9,6.3,14.2,5.2z"/>
<linearGradient id="SVGID_1_" gradientUnits="userSpaceOnUse" x1="3.8765" y1="2.6686" x2="14.1232" y2="2.6686">
	<stop  offset="0" style="stop-color:#5254A4"/>
	<stop  offset="1" style="stop-color:#2E3192"/>
</linearGradient>
<path class="st1" d="M3.9,5.2l1.2-0.7L7.5,3L7.6,3c0.8-0.4,2-0.4,2.7,0L10.5,3l2.4,1.4l1.2,0.7V3.3c0-2-1.1-3.1-3.1-3.1H6.9
	c-2,0-3.1,1.1-3.1,3.1V5.2z"/>
<linearGradient id="SVGID_2_" gradientUnits="userSpaceOnUse" x1="4.7504" y1="10.2293" x2="13.2498" y2="10.2293">
	<stop  offset="0" style="stop-color:#5254A4"/>
	<stop  offset="1" style="stop-color:#2E3192"/>
</linearGradient>
<path class="st2" d="M13,10.2l-0.9,1.1c-0.1,0.2-0.2,0.5-0.2,0.7l0.1,1.4c0.1,0.8-0.5,1.3-1.3,1l-1.3-0.5c-0.2-0.1-0.5-0.1-0.7,0
	l-1.3,0.5c-0.8,0.3-1.4-0.1-1.3-1l0.1-1.4c0-0.2-0.1-0.5-0.2-0.7L5,10.2C4.5,9.5,4.7,8.8,5.5,8.6l1.3-0.3C7.1,8.2,7.3,8,7.4,7.8
	l0.7-1.1C8.6,6,9.4,6,9.8,6.7l0.7,1.1c0.1,0.2,0.4,0.4,0.6,0.4l1.3,0.3C13.3,8.8,13.5,9.5,13,10.2z"/>
</svg>
