<?xml version="1.0" encoding="utf-8"?>
<!-- Generator: Adobe Illustrator 24.2.3, SVG Export Plug-In . SVG Version: 6.00 Build 0)  -->
<!DOCTYPE svg PUBLIC "-//W3C//DTD SVG 1.1//EN" "http://www.w3.org/Graphics/SVG/1.1/DTD/svg11.dtd" [
	<!ENTITY ns_extend "http://ns.adobe.com/Extensibility/1.0/">
	<!ENTITY ns_ai "http://ns.adobe.com/AdobeIllustrator/10.0/">
	<!ENTITY ns_graphs "http://ns.adobe.com/Graphs/1.0/">
	<!ENTITY ns_vars "http://ns.adobe.com/Variables/1.0/">
	<!ENTITY ns_imrep "http://ns.adobe.com/ImageReplacement/1.0/">
	<!ENTITY ns_sfw "http://ns.adobe.com/SaveForWeb/1.0/">
	<!ENTITY ns_custom "http://ns.adobe.com/GenericCustomNamespace/1.0/">
	<!ENTITY ns_adobe_xpath "http://ns.adobe.com/XPath/1.0/">
]>
<svg version="1.1" id="Layer_1" xmlns:x="&ns_extend;" xmlns:i="&ns_ai;" xmlns:graph="&ns_graphs;"
	 xmlns="http://www.w3.org/2000/svg" xmlns:xlink="http://www.w3.org/1999/xlink" x="0px" y="0px" width="18px" height="18px"
	 viewBox="0 0 18 18" style="enable-background:new 0 0 18 18;" xml:space="preserve">
<style type="text/css">
	.st0{fill:#FAA71A;}
	.st1{fill:url(#SVGID_1_);}
	.st2{fill:url(#SVGID_2_);}
	.st3{fill:url(#SVGID_3_);}
	.st4{fill:#FFFFFF;}
</style>
<metadata>
	<sfw  xmlns="&ns_sfw;">
		<slices></slices>
		<sliceSourceBounds  bottomLeftOrigin="true" height="17.2" width="15.8" x="1.1" y="0.4"></sliceSourceBounds>
	</sfw>
</metadata>
<path class="st0" d="M9,17.6c-0.6,0-1.3-0.2-1.9-0.5L3,14.7c-1.2-0.7-1.9-1.9-1.9-3.3V6.6C1.1,5.2,1.8,4,3,3.3l4.1-2.4
	c1.2-0.7,2.6-0.7,3.8,0L15,3.3c1.2,0.7,1.9,1.9,1.9,3.3v4.8c0,1.4-0.7,2.6-1.9,3.3l-4.1,2.4C10.3,17.5,9.7,17.6,9,17.6L9,17.6z"/>
<linearGradient id="SVGID_1_" gradientUnits="userSpaceOnUse" x1="8.9969" y1="14.5552" x2="8.9969" y2="3.5256" gradientTransform="matrix(1 0 0 -1 0 17.8898)">
	<stop  offset="0" style="stop-color:#5254A4"/>
	<stop  offset="1" style="stop-color:#2E3192"/>
</linearGradient>
<path class="st1" d="M9,15c3.3,0,5.9-2.7,5.9-6c0-3.3-2.6-6-5.9-6C5.7,3,3.1,5.7,3.1,9C3.1,12.3,5.7,15,9,15z"/>
<linearGradient id="SVGID_2_" gradientUnits="userSpaceOnUse" x1="3.1115" y1="6.092" x2="14.876" y2="6.092">
	<stop  offset="0" style="stop-color:#5254A4"/>
	<stop  offset="1" style="stop-color:#2E3192"/>
</linearGradient>
<path class="st2" d="M9,3.3c3.2,0,5.8,2.6,5.9,5.8c0,0,0-0.1,0-0.1c0-3.3-2.6-6-5.9-6C5.7,3,3.1,5.7,3.1,9c0,0,0,0.1,0,0.1
	C3.2,5.9,5.8,3.3,9,3.3L9,3.3z"/>
<linearGradient id="SVGID_3_" gradientUnits="userSpaceOnUse" x1="3.1177" y1="11.918" x2="14.8884" y2="11.918">
	<stop  offset="0" style="stop-color:#5254A4"/>
	<stop  offset="1" style="stop-color:#2E3192"/>
</linearGradient>
<path class="st3" d="M9,14.7c-3.2,0-5.8-2.6-5.9-5.8c0,0,0,0.1,0,0.1c0,3.3,2.6,6,5.9,6c3.2,0,5.9-2.7,5.9-6c0,0,0-0.1,0-0.1
	C14.8,12.1,12.2,14.7,9,14.7L9,14.7z"/>
<path class="st4" d="M13,6.8c0-0.3-0.1-0.5-0.3-0.7c-0.4-0.3-1-0.3-1.3,0.1L8.5,9.7L6.7,8.1C6.4,7.7,5.8,7.6,5.4,8
	C5.2,8.1,5.1,8.4,5,8.6c0,0.3,0.1,0.5,0.2,0.7l2.5,2.5c0.2,0.2,0.4,0.3,0.7,0.3c0,0,0,0,0.1,0c0.3,0,0.5-0.1,0.7-0.3l3.5-4.3
	C12.9,7.3,13,7,13,6.8L13,6.8z"/>
<g id="Regmark">
</g>
</svg>
