<?xml version="1.0" encoding="utf-8"?>
<!-- Generator: Adobe Illustrator 24.2.3, SVG Export Plug-In . SVG Version: 6.00 Build 0)  -->
<!DOCTYPE svg PUBLIC "-//W3C//DTD SVG 1.1//EN" "http://www.w3.org/Graphics/SVG/1.1/DTD/svg11.dtd" [
	<!ENTITY ns_extend "http://ns.adobe.com/Extensibility/1.0/">
	<!ENTITY ns_ai "http://ns.adobe.com/AdobeIllustrator/10.0/">
	<!ENTITY ns_graphs "http://ns.adobe.com/Graphs/1.0/">
	<!ENTITY ns_vars "http://ns.adobe.com/Variables/1.0/">
	<!ENTITY ns_imrep "http://ns.adobe.com/ImageReplacement/1.0/">
	<!ENTITY ns_sfw "http://ns.adobe.com/SaveForWeb/1.0/">
	<!ENTITY ns_custom "http://ns.adobe.com/GenericCustomNamespace/1.0/">
	<!ENTITY ns_adobe_xpath "http://ns.adobe.com/XPath/1.0/">
]>
<svg version="1.1" id="Layer_1" xmlns:x="&ns_extend;" xmlns:i="&ns_ai;" xmlns:graph="&ns_graphs;"
	 xmlns="http://www.w3.org/2000/svg" xmlns:xlink="http://www.w3.org/1999/xlink" x="0px" y="0px" width="122.2px" height="128.4px"
	 viewBox="0 0 122.2 128.4" style="enable-background:new 0 0 122.2 128.4;" xml:space="preserve">
<style type="text/css">
	.st0{fill:#FAA71A;}
</style>
<metadata>
	<sfw  xmlns="&ns_sfw;">
		<slices></slices>
		<sliceSourceBounds  bottomLeftOrigin="true" height="75.6" width="71.8" x="25.1" y="26.5"></sliceSourceBounds>
	</sfw>
</metadata>
<g id="Layer_2_1_">
	<g>
		<path class="st0" d="M73.5,27.9c7.9-2.8,14.8-1.4,19.9,5.1c4.3,5.5,4.6,11.7,1.4,18c-2,3.8-5.2,6.3-9.2,7.7
			c-4.1,1.4-8.1,1-12.3-0.6c0,2.3,0,4.4,0,6.4c0,2.4-0.9,4.4-2.7,6c-1.4,1.4-3.2,2.1-5.1,2.2c-1.8,0.1-3.7,0-5.5,0
			c-0.8,0-1.1-0.3-1.1-1.1c0-2.5,0-4.9,0.1-7.4c0-0.3,0.6-0.8,1-1c0.3-0.2,0.8,0,1.3,0c2.4,0,2.7-0.3,2.7-2.8c0-10.7,0-21.5,0-32.2
			c0-1.9,0-1.9,1.9-1.9s3.9,0.1,5.8,0C72.7,26.4,73.4,26.6,73.5,27.9z M87.4,43.1c0-3.9-3.1-7.1-6.9-7.1c-3.8-0.1-7.1,3.2-7.1,7
			c0,3.9,3.1,7.1,7,7.1S87.4,47,87.4,43.1z"/>
		<path class="st0" d="M41.5,59.5c-9.2,0-16.4-7.3-16.4-16.5c0-9.1,7.5-16.5,16.5-16.5S58.1,34,58.1,43.1
			C58.2,52.2,50.8,59.5,41.5,59.5z M41.7,50c3.9,0,7.1-3.1,7.1-7c0-3.8-3.2-7.1-7-7.1c-3.9,0-7.1,3.2-7.1,7.1
			C34.7,47,37.7,50,41.7,50z"/>
		<path class="st0" d="M86,92c-5,4.8-10.6,8-17.3,9.2c-18.8,3.6-36.2-7.6-40.5-26.2c-0.4-1.9-0.5-3.9-0.8-5.9
			c-0.1-1.1,0.2-1.5,1.4-1.5c2.1,0.1,4.3,0.1,6.4,0c1.3-0.1,1.7,0.6,1.7,1.7c0.2,4.1,1.4,7.8,3.6,11.2c4.9,7.7,11.9,11.8,21,12
			c6.3,0.2,11.9-1.9,16.6-6.1c0.9-0.8,1.5-0.9,2.4,0.1C82.2,88.3,84.1,90.1,86,92z"/>
	</g>
</g>
<g id="Regmark">
</g>
</svg>
