<?xml version="1.0" encoding="utf-8"?>
<!-- Generator: Adobe Illustrator 24.2.3, SVG Export Plug-In . SVG Version: 6.00 Build 0)  -->
<svg version="1.1" id="Layer_1" xmlns="http://www.w3.org/2000/svg" xmlns:xlink="http://www.w3.org/1999/xlink" x="0px" y="0px"
	 width="59px" height="82px" viewBox="0 0 59 82" style="enable-background:new 0 0 59 82;" xml:space="preserve">
<style type="text/css">
	.st0{fill-rule:evenodd;clip-rule:evenodd;fill:#FFFFFF;}
	.st1{fill-rule:evenodd;clip-rule:evenodd;fill:#E30613;}
</style>
<g>
	<g id="Fill_2_1_">
		<path class="st0" d="M52.184,55.402c0.202-0.279,0.421-0.548,0.606-0.836c0.435-0.683,0.887-1.357,1.278-2.068
			c0.355-0.646,0.706-1.287,1.019-1.955c0.148-0.317,0.298-0.637,0.449-0.952c0.168-0.361,0.299-0.745,0.443-1.115
			c0.271-0.678,0.505-1.366,0.743-2.06c0.232-0.679,0.414-1.378,0.608-2.073c0.231-0.805,0.401-1.619,0.578-2.437
			c0.155-0.696,0.236-1.411,0.342-2.114c0.111-0.711,0.149-1.435,0.222-2.152c0.064-0.708,0.063-1.428,0.086-2.139
			c0.049-1.485-0.005-2.971-0.122-4.453c-0.049-0.665-0.094-1.324-0.182-1.984c-0.095-0.715-0.163-1.443-0.294-2.157l-0.442-2.435
			c-0.134-0.736-0.346-1.459-0.522-2.185c-0.338-1.407-0.77-2.801-1.287-4.158c-0.521-1.369-1.062-2.729-1.678-4.06
			c-0.54-1.154-1.143-2.264-1.785-3.365c-0.586-1.007-1.278-1.948-1.935-2.912c-0.583-0.853-1.226-1.67-1.84-2.505
			c-0.696-0.95-1.398-1.893-2.115-2.83c-0.104-0.137-0.223-0.257-0.353-0.361c-0.682-0.543-1.662-0.613-2.406-0.075
			c-0.871,0.634-1.066,1.888-0.434,2.762c1.182,1.626,2.359,3.258,3.538,4.887c0.524,0.727,1.015,1.479,1.516,2.222
			c0.481,0.708,0.908,1.444,1.339,2.182c0.38,0.717,0.758,1.435,1.088,2.176l0.759,1.698c0.219,0.484,0.395,0.99,0.593,1.481
			c0.154,0.382,0.318,0.759,0.447,1.15c0.209,0.646,0.422,1.295,0.633,1.938c0.257,0.791,0.445,1.606,0.648,2.412
			c0.182,0.906,0.397,1.811,0.536,2.728c0.164,1.054,0.335,2.105,0.438,3.166c0.059,0.566,0.114,1.129,0.169,1.694
			c0.053,0.572,0.053,1.156,0.079,1.725c0.042,0.883,0.025,1.767,0.014,2.652c-0.052,0.709-0.102,1.419-0.152,2.133
			c-0.049,0.707-0.179,1.416-0.267,2.121c-0.085,0.671-0.251,1.343-0.378,2.01c-0.113,0.589-0.283,1.17-0.434,1.749
			c-0.419,1.365-0.845,2.726-1.409,4.041c-0.152,0.359-0.305,0.721-0.46,1.077c-0.166,0.397-0.39,0.778-0.58,1.161
			c-0.273,0.542-0.584,1.062-0.893,1.584c-0.341,0.512-0.663,1.038-1.035,1.524c-0.453,0.593-0.904,1.184-1.378,1.76
			c-0.477,0.574-0.965,1.129-1.463,1.68c-0.436,0.486-0.896,0.942-1.352,1.406c-1.568,1.477-3.183,2.905-4.929,4.174
			c-0.94,0.684-1.881,1.363-2.856,1.998c-0.964,0.632-1.937,1.227-2.938,1.801c-2.17,1.171-4.377,2.266-6.646,3.235
			c-2.199,0.94-4.497,1.675-6.814,2.264c0.028-0.006,0.056-0.013,0.085-0.019c-0.054,0.013-0.107,0.026-0.161,0.039
			c-0.004,0-0.008,0.001-0.011,0.003c0.003-0.002,0.006-0.002,0.008-0.002c-0.529,0.127-1.059,0.253-1.59,0.372
			c-0.032-0.127-0.054-0.256-0.087-0.381c-0.498-1.901-1.212-3.738-1.585-5.67c-0.081-0.414-0.157-0.825-0.259-1.23
			c-0.03-0.118-0.097-0.215-0.186-0.285c-0.128-0.102-0.298-0.146-0.463-0.104c-0.009,0.002-0.014,0.008-0.023,0.011
			c-0.092,0.001-0.185,0.033-0.254,0.103c-0.567,0.562-1.122,1.139-1.727,1.66c-0.689,0.594-1.394,1.161-2.119,1.713
			c0.034-0.023,0.062-0.045,0.095-0.069c-0.764,0.57-1.535,1.124-2.332,1.643c-0.871,0.564-1.765,1.085-2.677,1.578
			c-0.941,0.504-1.906,0.964-2.876,1.41c-0.959,0.444-1.946,0.837-2.919,1.25l-0.406,0.17c-0.207,0.091-0.298,0.367-0.247,0.573
			c0.011,0.038,0.034,0.07,0.052,0.105c-0.025,0.247,0.122,0.521,0.377,0.573c0.17,0.028,0.329,0.08,0.487,0.14
			c-0.016-0.006-0.031-0.013-0.048-0.02c0.019,0.007,0.036,0.015,0.054,0.022c0.024,0.01,0.05,0.021,0.075,0.03
			c-0.02-0.007-0.039-0.014-0.059-0.022c0.326,0.142,0.644,0.299,0.972,0.431c0.33,0.129,0.661,0.252,0.993,0.383
			c0.915,0.389,1.81,0.812,2.744,1.157c0.957,0.354,1.932,0.665,2.913,0.953c1.011,0.291,2.041,0.516,3.068,0.731
			c0.559,0.114,1.115,0.224,1.674,0.325c0.269,0.071,0.534,0.157,0.804,0.225c0.822,0.21,1.647,0.428,2.481,0.579
			c0.46,0.081,0.922,0.165,1.388,0.182c0.244,0.008,0.507-0.004,0.75-0.05c0.102,0.008,0.205,0.022,0.309,0.015
			c0.236-0.013,0.448-0.098,0.656-0.192c0.158-0.067,0.233-0.235,0.237-0.403c0.09-0.216,0.042-0.468-0.029-0.688
			c-0.058-0.177-0.126-0.351-0.205-0.519c-0.077-0.16-0.16-0.316-0.229-0.479c0.009,0.024,0.018,0.049,0.027,0.074
			c-0.012-0.031-0.024-0.061-0.035-0.094c-0.001-0.002-0.001-0.005-0.003-0.007c0.002,0.003,0.001,0.005,0.003,0.007
			c-0.027-0.072-0.054-0.144-0.083-0.215c-0.09-0.241-0.176-0.482-0.238-0.731c-0.065-0.246-0.121-0.495-0.176-0.745
			c-0.104-0.508-0.196-1.02-0.293-1.532c-0.088-0.453-0.207-0.897-0.309-1.349c0.99-0.179,1.98-0.357,2.963-0.571
			c1.373-0.3,2.718-0.702,4.062-1.109c1.314-0.396,2.59-0.893,3.867-1.399c1.264-0.501,2.518-1.06,3.744-1.657
			c1.329-0.654,2.665-1.302,3.941-2.063c1.224-0.728,2.445-1.468,3.608-2.295c1.254-0.89,2.482-1.803,3.678-2.778
			c1.12-0.911,2.2-1.902,3.209-2.937c0.55-0.565,1.087-1.131,1.612-1.721c0.487-0.542,0.948-1.108,1.413-1.667
			C51.868,55.855,52.023,55.623,52.184,55.402"/>
	</g>
	<g id="Fill_2">
		<path class="st1" d="M51.382,54.572c0.202-0.279,0.421-0.548,0.606-0.836c0.435-0.683,0.887-1.357,1.278-2.068
			c0.355-0.646,0.706-1.287,1.019-1.955c0.148-0.317,0.298-0.637,0.449-0.952c0.168-0.361,0.299-0.745,0.443-1.115
			c0.271-0.678,0.505-1.366,0.743-2.06c0.232-0.679,0.414-1.378,0.608-2.073c0.231-0.805,0.401-1.619,0.578-2.437
			c0.155-0.696,0.236-1.411,0.342-2.114c0.111-0.711,0.149-1.435,0.222-2.152c0.064-0.708,0.063-1.428,0.086-2.139
			c0.049-1.485-0.005-2.971-0.122-4.453c-0.049-0.665-0.094-1.324-0.182-1.984c-0.095-0.715-0.163-1.443-0.294-2.157l-0.442-2.435
			c-0.134-0.736-0.346-1.459-0.522-2.185c-0.338-1.407-0.77-2.801-1.287-4.158c-0.521-1.369-1.062-2.729-1.678-4.06
			c-0.54-1.154-1.143-2.264-1.785-3.365c-0.586-1.007-1.278-1.948-1.935-2.912c-0.583-0.853-1.226-1.67-1.84-2.505
			c-0.696-0.95-1.398-1.893-2.115-2.83c-0.104-0.137-0.223-0.257-0.353-0.361c-0.682-0.543-1.662-0.613-2.406-0.075
			c-0.871,0.634-1.066,1.888-0.434,2.762c1.182,1.626,2.359,3.258,3.538,4.887c0.524,0.727,1.015,1.479,1.516,2.222
			c0.481,0.708,0.908,1.444,1.339,2.182c0.38,0.717,0.758,1.435,1.088,2.176L50.6,17.12c0.219,0.484,0.395,0.99,0.593,1.481
			c0.154,0.382,0.318,0.759,0.447,1.15c0.209,0.646,0.422,1.295,0.633,1.938c0.257,0.791,0.445,1.606,0.648,2.412
			c0.182,0.906,0.397,1.811,0.536,2.728c0.164,1.054,0.335,2.105,0.438,3.166c0.059,0.566,0.114,1.129,0.169,1.694
			c0.053,0.572,0.053,1.156,0.079,1.725c0.042,0.883,0.025,1.767,0.014,2.652c-0.052,0.709-0.102,1.419-0.152,2.133
			c-0.049,0.707-0.179,1.416-0.267,2.121c-0.085,0.671-0.251,1.343-0.378,2.01c-0.113,0.589-0.283,1.17-0.434,1.749
			c-0.419,1.365-0.845,2.726-1.409,4.041c-0.152,0.359-0.305,0.721-0.46,1.077c-0.166,0.397-0.39,0.778-0.58,1.161
			c-0.273,0.542-0.584,1.062-0.893,1.584c-0.341,0.512-0.663,1.038-1.035,1.524c-0.453,0.593-0.904,1.184-1.378,1.76
			c-0.477,0.574-0.965,1.129-1.463,1.68c-0.436,0.486-0.896,0.942-1.352,1.406c-1.568,1.477-3.183,2.905-4.929,4.174
			c-0.94,0.684-1.881,1.363-2.856,1.998c-0.964,0.632-1.937,1.227-2.938,1.801c-2.17,1.171-4.377,2.266-6.646,3.235
			c-2.199,0.94-4.497,1.675-6.814,2.264c0.028-0.006,0.056-0.013,0.085-0.019c-0.054,0.013-0.107,0.026-0.161,0.039
			c-0.004,0-0.008,0.001-0.011,0.003c0.003-0.002,0.006-0.002,0.008-0.002c-0.529,0.127-1.059,0.253-1.59,0.372
			c-0.032-0.127-0.054-0.256-0.087-0.381c-0.498-1.901-1.212-3.738-1.585-5.67c-0.081-0.414-0.157-0.825-0.259-1.23
			c-0.03-0.118-0.097-0.215-0.186-0.285c-0.127-0.102-0.298-0.146-0.463-0.104c-0.009,0.002-0.014,0.008-0.023,0.011
			c-0.092,0.001-0.185,0.033-0.254,0.103c-0.567,0.562-1.122,1.139-1.727,1.66c-0.689,0.594-1.394,1.161-2.119,1.713
			c0.034-0.023,0.062-0.045,0.095-0.069c-0.764,0.57-1.535,1.124-2.332,1.643c-0.871,0.564-1.765,1.085-2.677,1.578
			c-0.941,0.504-1.906,0.964-2.876,1.41c-0.959,0.444-1.946,0.837-2.919,1.25l-0.406,0.17c-0.207,0.091-0.298,0.367-0.247,0.573
			c0.011,0.038,0.034,0.07,0.052,0.105c-0.025,0.247,0.122,0.521,0.377,0.573c0.17,0.028,0.329,0.08,0.487,0.14
			c-0.016-0.006-0.031-0.013-0.048-0.02c0.019,0.007,0.036,0.015,0.054,0.022c0.024,0.01,0.05,0.021,0.075,0.03
			c-0.02-0.007-0.039-0.014-0.059-0.022c0.326,0.142,0.644,0.299,0.972,0.431c0.33,0.129,0.661,0.252,0.993,0.383
			c0.915,0.389,1.81,0.812,2.744,1.157c0.957,0.354,1.932,0.665,2.913,0.953c1.011,0.291,2.041,0.516,3.068,0.731
			c0.559,0.114,1.115,0.224,1.674,0.325c0.269,0.071,0.534,0.157,0.804,0.225c0.822,0.21,1.647,0.428,2.481,0.579
			c0.46,0.081,0.922,0.165,1.388,0.182c0.244,0.008,0.507-0.004,0.75-0.05c0.102,0.008,0.205,0.022,0.309,0.015
			c0.236-0.013,0.448-0.098,0.656-0.192c0.158-0.067,0.233-0.235,0.237-0.403c0.09-0.216,0.042-0.468-0.029-0.688
			c-0.058-0.177-0.126-0.351-0.205-0.519c-0.077-0.16-0.16-0.316-0.229-0.479c0.009,0.024,0.018,0.049,0.027,0.074
			c-0.012-0.031-0.024-0.061-0.035-0.094c-0.001-0.002-0.001-0.005-0.003-0.007c0.002,0.003,0.001,0.005,0.003,0.007
			c-0.027-0.072-0.054-0.144-0.083-0.215c-0.09-0.241-0.176-0.482-0.238-0.731c-0.065-0.246-0.121-0.495-0.176-0.745
			c-0.104-0.508-0.196-1.02-0.293-1.532c-0.088-0.453-0.207-0.897-0.309-1.349c0.99-0.179,1.98-0.357,2.963-0.571
			c1.373-0.3,2.718-0.702,4.062-1.109c1.314-0.396,2.59-0.893,3.867-1.399c1.264-0.501,2.518-1.06,3.744-1.657
			c1.329-0.654,2.665-1.302,3.941-2.063c1.224-0.728,2.445-1.468,3.608-2.295c1.254-0.89,2.482-1.803,3.678-2.778
			c1.12-0.911,2.2-1.902,3.209-2.937c0.55-0.565,1.087-1.131,1.612-1.721c0.487-0.542,0.948-1.108,1.413-1.667
			C51.066,55.025,51.221,54.793,51.382,54.572"/>
	</g>
</g>
</svg>
