<?xml version="1.0" encoding="utf-8"?>
<!-- Generator: Adobe Illustrator 24.2.3, SVG Export Plug-In . SVG Version: 6.00 Build 0)  -->
<svg version="1.1" id="Layer_1" xmlns="http://www.w3.org/2000/svg" xmlns:xlink="http://www.w3.org/1999/xlink" x="0px" y="0px"
	 width="22px" height="58px" viewBox="0 0 22 58" style="enable-background:new 0 0 22 58;" xml:space="preserve">
<style type="text/css">
	.st0{fill-rule:evenodd;clip-rule:evenodd;fill:#E30613;}
	.st1{fill:#FFFFFF;filter:url(#Adobe_OpacityMaskFilter);}
	.st2{fill-rule:evenodd;clip-rule:evenodd;}
	.st3{mask:url(#path-1-outside-1_331_8331_1_);}
	.st4{fill:#FFFFFF;}
</style>
<g>
	<path class="st0" d="M3.048,56.047c0.426-0.59,0.859-1.178,1.262-1.784c0.441-0.656,0.855-1.317,1.265-1.991
		c0.75-1.235,1.441-2.529,2.044-3.84c0.646-1.402,1.224-2.819,1.773-4.255c0.51-1.332,0.923-2.699,1.322-4.066
		c0.419-1.426,0.713-2.881,1.015-4.331c0.273-1.336,0.5-2.69,0.671-4.039c0.172-1.363,0.334-2.722,0.39-4.094
		c0.059-1.403,0.113-2.806,0.061-4.21c-0.038-1.005-0.112-2.008-0.186-3.012c0.462-0.013,0.922-0.009,1.383-0.037
		c0.52-0.034,1.039-0.073,1.556-0.098c0.256-0.009,0.511-0.017,0.765-0.015c0.257-0.002,0.511,0.021,0.767,0.049
		c0.076,0.011,0.152,0.019,0.229,0.027c-0.003-0.001-0.005,0-0.008-0.001c0.003,0.001,0.006,0.001,0.008,0.001
		c0.034,0.003,0.066,0.007,0.099,0.011c-0.026-0.002-0.053-0.005-0.078-0.008c0.175,0.027,0.347,0.068,0.521,0.102
		c0.183,0.035,0.368,0.057,0.554,0.069c0.23,0.013,0.487-0.003,0.673-0.144c0.162-0.046,0.306-0.16,0.331-0.33
		c0.038-0.225,0.068-0.452,0.022-0.684c-0.019-0.102-0.058-0.199-0.092-0.296c-0.015-0.247-0.069-0.504-0.138-0.739
		c-0.133-0.447-0.329-0.874-0.522-1.299c-0.354-0.77-0.771-1.515-1.179-2.258c-0.134-0.245-0.282-0.479-0.419-0.722
		c-0.237-0.516-0.483-1.028-0.733-1.54c-0.464-0.941-0.94-1.881-1.474-2.788c-0.523-0.878-1.068-1.744-1.65-2.583
		c-0.566-0.819-1.2-1.58-1.805-2.369c-0.21-0.288-0.412-0.578-0.619-0.866c-0.209-0.285-0.441-0.554-0.66-0.834
		c0.013,0.017,0.025,0.034,0.036,0.051c-0.015-0.021-0.032-0.044-0.048-0.065c-0.012-0.015-0.024-0.03-0.035-0.046
		c0.011,0.015,0.022,0.028,0.031,0.041c-0.097-0.138-0.187-0.279-0.257-0.437C9.813,2.385,9.511,2.311,9.277,2.397
		C9.239,2.388,9.202,2.374,9.163,2.373C8.951,2.375,8.706,2.532,8.669,2.755L8.606,3.19c-0.157,1.046-0.291,2.1-0.482,3.139
		c-0.189,1.051-0.394,2.1-0.647,3.137c-0.249,1.005-0.531,2.002-0.86,2.986c-0.303,0.901-0.647,1.786-1.009,2.668
		c0.015-0.038,0.029-0.071,0.043-0.109c-0.353,0.839-0.726,1.664-1.13,2.479c-0.354,0.716-0.774,1.398-1.177,2.087
		c-0.05,0.085-0.058,0.183-0.036,0.272c-0.001,0.009-0.006,0.016-0.005,0.025c0,0.171,0.086,0.325,0.216,0.423
		c0.09,0.068,0.201,0.109,0.322,0.109c0.417-0.002,0.835-0.031,1.255-0.056c1.964-0.12,3.921,0.112,5.886,0.12
		c0.13,0,0.261-0.01,0.391-0.011c0.018,0.545,0.027,1.089,0.037,1.633c0-0.003-0.001-0.006,0-0.009c0,0.004,0,0.007,0,0.011
		c0.002,0.056,0.002,0.11,0.003,0.166c-0.001-0.03-0.002-0.059-0.003-0.087c0.008,2.39-0.13,4.799-0.492,7.163
		c-0.373,2.439-0.882,4.85-1.475,7.243c-0.306,1.112-0.639,2.203-1.011,3.294c-0.372,1.103-0.795,2.183-1.223,3.264
		c-0.793,2.007-1.774,3.927-2.812,5.814c-0.336,0.557-0.662,1.116-1.024,1.66c-0.41,0.62-0.825,1.231-1.262,1.836"/>
	<defs>
		<filter id="Adobe_OpacityMaskFilter" filterUnits="userSpaceOnUse" x="0.49" y="0.37" width="21.021" height="56.848">
			<feColorMatrix  type="matrix" values="1 0 0 0 0  0 1 0 0 0  0 0 1 0 0  0 0 0 1 0"/>
		</filter>
	</defs>
	<mask maskUnits="userSpaceOnUse" x="0.49" y="0.37" width="21.021" height="56.848" id="path-1-outside-1_331_8331_1_">
		<rect x="-21.214" y="-0.915" class="st1" width="55.647" height="59.19"/>
		<path class="st2" d="M3.048,56.047c0.426-0.59,0.859-1.178,1.262-1.784c0.441-0.656,0.855-1.317,1.265-1.991
			c0.75-1.235,1.441-2.529,2.044-3.84c0.646-1.402,1.224-2.819,1.773-4.255c0.51-1.332,0.923-2.699,1.322-4.066
			c0.419-1.426,0.713-2.881,1.015-4.331c0.273-1.336,0.5-2.69,0.671-4.039c0.172-1.363,0.334-2.722,0.39-4.094
			c0.059-1.403,0.113-2.806,0.061-4.21c-0.038-1.005-0.112-2.008-0.186-3.012c0.462-0.013,0.922-0.009,1.383-0.037
			c0.52-0.034,1.039-0.073,1.556-0.098c0.256-0.009,0.511-0.017,0.765-0.015c0.257-0.002,0.511,0.021,0.767,0.049
			c0.076,0.011,0.152,0.019,0.229,0.027c-0.003-0.001-0.005,0-0.008-0.001c0.003,0.001,0.006,0.001,0.008,0.001
			c0.034,0.003,0.066,0.007,0.099,0.011c-0.026-0.002-0.053-0.005-0.078-0.008c0.175,0.027,0.347,0.068,0.521,0.102
			c0.183,0.035,0.368,0.057,0.554,0.069c0.23,0.013,0.487-0.003,0.673-0.144c0.162-0.046,0.306-0.16,0.331-0.33
			c0.038-0.225,0.068-0.452,0.022-0.684c-0.019-0.102-0.058-0.199-0.092-0.296c-0.015-0.247-0.069-0.504-0.138-0.739
			c-0.133-0.447-0.329-0.874-0.522-1.299c-0.354-0.77-0.771-1.515-1.179-2.258c-0.134-0.245-0.282-0.479-0.419-0.722
			c-0.237-0.516-0.483-1.028-0.733-1.54c-0.464-0.941-0.94-1.881-1.474-2.788c-0.523-0.878-1.068-1.744-1.65-2.583
			c-0.566-0.819-1.2-1.58-1.805-2.369c-0.21-0.288-0.412-0.578-0.619-0.866c-0.209-0.285-0.441-0.554-0.66-0.834
			c0.013,0.017,0.025,0.034,0.036,0.051c-0.015-0.021-0.032-0.044-0.048-0.065c-0.012-0.015-0.024-0.03-0.035-0.046
			c0.011,0.015,0.022,0.028,0.031,0.041c-0.097-0.138-0.187-0.279-0.257-0.437C9.813,2.385,9.511,2.311,9.277,2.397
			C9.239,2.388,9.202,2.374,9.163,2.373C8.951,2.375,8.706,2.532,8.669,2.755L8.606,3.19c-0.157,1.046-0.291,2.1-0.482,3.139
			c-0.189,1.051-0.394,2.1-0.647,3.137c-0.249,1.005-0.531,2.002-0.86,2.986c-0.303,0.901-0.647,1.786-1.009,2.668
			c0.015-0.038,0.029-0.071,0.043-0.109c-0.353,0.839-0.726,1.664-1.13,2.479c-0.354,0.716-0.774,1.398-1.177,2.087
			c-0.05,0.085-0.058,0.183-0.036,0.272c-0.001,0.009-0.006,0.016-0.005,0.025c0,0.171,0.086,0.325,0.216,0.423
			c0.09,0.068,0.201,0.109,0.322,0.109c0.417-0.002,0.835-0.031,1.255-0.056c1.964-0.12,3.921,0.112,5.886,0.12
			c0.13,0,0.261-0.01,0.391-0.011c0.018,0.545,0.027,1.089,0.037,1.633c0-0.003-0.001-0.006,0-0.009c0,0.004,0,0.007,0,0.011
			c0.002,0.056,0.002,0.11,0.003,0.166c-0.001-0.03-0.002-0.059-0.003-0.087c0.008,2.39-0.13,4.799-0.492,7.163
			c-0.373,2.439-0.882,4.85-1.475,7.243c-0.306,1.112-0.639,2.203-1.011,3.294c-0.372,1.103-0.795,2.183-1.223,3.264
			c-0.793,2.007-1.774,3.927-2.812,5.814c-0.336,0.557-0.662,1.116-1.024,1.66c-0.41,0.62-0.825,1.231-1.262,1.836"/>
	</mask>
	<g class="st3">
		<polygon class="st4" points="1.708,49.505 1.704,49.511 3.373,50.614 		"/>
		<polygon class="st4" points="6.11,49.986 6.13,49.953 6.149,49.918 4.397,48.954 		"/>
		<polygon class="st4" points="5.35,42.404 5.35,42.404 7.209,43.139 		"/>
		<polygon class="st4" points="6.539,39.23 6.537,39.236 8.432,39.875 		"/>
		<polygon class="st4" points="11.372,37.111 11.378,37.087 11.385,37.062 9.443,36.581 		"/>
		<polygon class="st4" points="8.941,29.036 8.941,29.036 10.918,29.338 		"/>
		<polygon class="st4" points="13.408,22.095 9.41,22.182 11.41,22.175 		"/>
		<polygon class="st4" points="9.415,22.352 13.413,22.238 11.413,22.262 		"/>
		<polygon class="st4" points="13.41,22.044 13.407,21.93 13.391,21.818 11.41,22.096 		"/>
		<polygon class="st4" points="13.407,22.2 9.514,21.448 11.41,22.085 		"/>
		<polygon class="st4" points="9.43,22.372 13.41,22.059 11.41,22.094 		"/>
		<polygon class="st4" points="13.372,20.395 13.308,18.453 11.366,18.461 11.373,20.461 		"/>
		<polygon class="st4" points="10.974,22.471 10.978,22.471 10.982,20.471 		"/>
		<polygon class="st4" points="5.214,22.348 5.219,22.347 5.096,20.351 		"/>
		<polygon class="st4" points="3.84,22.407 3.852,22.407 3.841,20.407 		"/>
		<polygon class="st4" points="5.303,19.87 5.303,19.809 5.299,19.749 3.303,19.875 		"/>
		<polygon class="st4" points="5.3,20.024 5.329,19.695 5.251,19.374 3.308,19.85 		"/>
		<polygon class="st4" points="5.065,20.596 5.071,20.587 3.344,19.578 		"/>
		<polygon class="st4" points="2.729,16.603 2.728,16.604 4.521,17.491 		"/>
		<polygon class="st4" points="7.531,15.692 3.807,14.235 5.651,15.011 		"/>
		<polygon class="st4" points="3.743,14.395 7.458,15.879 5.607,15.12 		"/>
		<polygon class="st4" points="8.512,13.09 8.513,13.087 6.616,12.452 		"/>
		<polygon class="st4" points="9.417,9.948 9.419,9.941 7.476,9.466 		"/>
		<polygon class="st4" points="6.156,5.968 6.155,5.974 8.123,6.329 		"/>
		<polygon class="st4" points="10.583,3.488 10.584,3.48 8.606,3.19 		"/>
		<polygon class="st4" points="6.696,2.432 6.693,2.448 6.69,2.465 8.669,2.755 		"/>
		<polygon class="st4" points="9.208,0.374 9.176,0.373 9.144,0.373 9.163,2.373 		"/>
		<polygon class="st4" points="8.826,4.345 9.407,4.48 9.966,4.275 9.277,2.397 		"/>
		<polygon class="st4" points="11.755,1.808 11.741,1.778 11.726,1.747 9.926,2.619 		"/>
		<polygon class="st4" points="8.558,4.221 11.82,1.906 10.183,3.056 		"/>
		<polygon class="st4" points="11.739,1.798 8.523,4.175 10.152,3.014 		"/>
		<polygon class="st4" points="11.777,1.847 11.767,1.835 11.757,1.823 10.187,3.061 		"/>
		<polygon class="st4" points="8.601,4.28 11.898,2.016 10.235,3.126 		"/>
		<polygon class="st4" points="11.773,1.842 8.602,4.28 10.198,3.074 		"/>
		<polygon class="st4" points="12.481,2.74 12.476,2.733 12.471,2.726 10.858,3.908 		"/>
		<polygon class="st4" points="9.859,5.951 9.874,5.971 9.889,5.991 11.477,4.774 		"/>
		<polygon class="st4" points="11.636,8.281 11.637,8.282 13.281,7.143 		"/>
		<polygon class="st4" points="16.655,8.712 16.649,8.702 14.931,9.726 		"/>
		<polygon class="st4" points="18.202,11.638 18.198,11.629 16.405,12.514 		"/>
		<polygon class="st4" points="15.321,14.891 15.354,14.963 15.393,15.033 17.137,14.055 		"/>
		<polygon class="st4" points="15.801,15.736 15.803,15.74 17.556,14.777 		"/>
		<polygon class="st4" points="20.556,16.207 20.552,16.2 18.735,17.035 		"/>
		<polygon class="st4" points="21.177,17.772 21.175,17.765 19.258,18.334 		"/>
		<polygon class="st4" points="17.4,19.198 17.417,19.471 17.506,19.73 19.396,19.073 		"/>
		<polygon class="st4" points="17.522,19.741 17.524,19.75 17.526,19.76 19.487,19.369 		"/>
		<polygon class="st4" points="17.494,19.717 17.49,19.737 17.487,19.757 19.466,20.052 		"/>
		<polygon class="st4" points="18.592,18.457 18.228,18.56 17.927,18.788 19.134,20.382 		"/>
		<polygon class="st4" points="18.328,22.522 18.337,22.522 18.346,22.523 18.461,20.526 		"/>
		<polygon class="st4" points="17.515,22.418 17.523,22.42 17.531,22.421 17.907,20.457 		"/>
		<polygon class="st4" points="17.61,18.367 17.083,22.332 17.386,20.355 		"/>
		<polygon class="st4" points="17.306,22.356 17.695,18.376 17.464,20.362 		"/>
		<polygon class="st4" points="17.002,22.318 17.093,22.335 17.184,22.343 17.365,20.351 		"/>
		<polygon class="st4" points="17.163,22.341 18.001,18.455 17.365,20.351 		"/>
		<polygon class="st4" points="17.417,18.344 17.384,18.339 17.35,18.336 17.136,20.324 		"/>
		<polygon class="st4" points="16.358,22.276 16.37,22.276 16.383,22.276 16.369,20.276 		"/>
		<polygon class="st4" points="15.534,18.292 15.519,18.293 15.504,18.294 15.603,20.291 		"/>
		<polygon class="st4" points="14.17,22.385 14.177,22.385 14.047,20.389 		"/>
		<polygon class="st4" points="12.605,18.427 10.516,18.489 10.669,20.573 12.664,20.426 		"/>
		<polygon class="st4" points="14.849,23.363 14.849,23.363 12.85,23.438 		"/>
		<polygon class="st4" points="10.791,27.564 10.791,27.567 12.789,27.648 		"/>
		<polygon class="st4" points="14.383,31.992 14.383,31.992 12.399,31.741 		"/>
		<polygon class="st4" points="13.686,36.187 13.688,36.18 11.728,35.78 		"/>
		<polygon class="st4" points="8.795,39.547 8.793,39.551 10.713,40.111 		"/>
		<polygon class="st4" points="7.524,43.462 7.523,43.464 9.391,44.177 		"/>
		<polygon class="st4" points="5.802,47.596 5.801,47.597 7.618,48.432 		"/>
		<polygon class="st4" points="7.283,53.313 7.284,53.311 5.575,52.273 		"/>
		<polygon class="st4" points="2.65,53.149 2.644,53.156 4.31,54.264 		"/>
		<path class="st4" d="M3.732,53.621c0.459-0.635,0.891-1.271,1.31-1.905l-3.337-2.205c-0.401,0.606-0.799,1.193-1.215,1.767
			L3.732,53.621z"/>
		<path class="st4" d="M5.037,51.722c0.395-0.593,0.757-1.212,1.072-1.736l-3.426-2.065c-0.356,0.591-0.647,1.09-0.976,1.584
			L5.037,51.722z"/>
		<path class="st4" d="M6.149,49.918c1.056-1.919,2.082-3.923,2.92-6.043l-3.72-1.471c-0.749,1.893-1.683,3.73-2.705,5.585
			L6.149,49.918z"/>
		<path class="st4" d="M9.069,43.875c0.427-1.08,0.868-2.203,1.258-3.361l-3.79-1.278c-0.353,1.049-0.759,2.084-1.187,3.167
			L9.069,43.875z"/>
		<path class="st4" d="M10.326,40.52c0.385-1.131,0.73-2.26,1.046-3.408l-3.857-1.061c-0.296,1.075-0.618,2.128-0.976,3.18
			L10.326,40.52z"/>
		<path class="st4" d="M11.385,37.062c0.603-2.437,1.126-4.909,1.51-7.421l-3.954-0.604c-0.361,2.365-0.857,4.715-1.439,7.064
			L11.385,37.062z"/>
		<path class="st4" d="M12.895,29.641c0.381-2.488,0.524-5.003,0.515-7.473l-4,0.014c0.008,2.31-0.126,4.613-0.469,6.854
			L12.895,29.641z"/>
		<path class="st4" d="M9.412,22.255c0,0,0,0.001,0,0.006c0,0.005,0,0.009,0.001,0.018c0,0.015,0.001,0.042,0.003,0.073l3.996-0.179
			c0,0.001,0-0.001,0-0.015c0-0.01-0.001-0.036-0.002-0.063L9.412,22.255z"/>
		<path class="st4" d="M13.413,22.238c-0.001-0.047-0.001-0.12-0.003-0.194l-3.999,0.105c0.001,0.038,0.001,0.073,0.002,0.138
			L13.413,22.238z"/>
		<path class="st4" d="M13.391,21.818c0.03,0.216,0.015,0.395,0.016,0.382l-3.993-0.231c0,0,0,0.001,0,0.003
			c0,0.001,0,0.004,0,0.006c0,0.005-0.001,0.013-0.001,0.023C9.411,22.02,9.41,22.05,9.41,22.086c0,0.075,0.004,0.174,0.02,0.289
			L13.391,21.818z"/>
		<path class="st4" d="M9.514,21.448c-0.089,0.264-0.107,0.5-0.104,0.672c0.001,0.081,0.007,0.147,0.012,0.188
			c0.002,0.021,0.004,0.037,0.006,0.048c0.001,0.005,0.001,0.01,0.002,0.012c0,0.001,0,0.002,0,0.003s0,0.001,0,0.001l3.961-0.557
			c-0.007-0.053,0.086,0.4-0.084,0.907L9.514,21.448z"/>
		<path class="st4" d="M13.41,22.059c-0.009-0.542-0.019-1.102-0.037-1.664l-3.998,0.132c0.017,0.526,0.027,1.055,0.036,1.601
			L13.41,22.059z"/>
		<path class="st4" d="M11.366,18.461c-0.109,0-0.213,0.005-0.269,0.007c-0.069,0.003-0.094,0.003-0.11,0.003l-0.009,4
			c0.114,0,0.22-0.004,0.281-0.007c0.074-0.003,0.101-0.004,0.122-0.004L11.366,18.461z"/>
		<path class="st4" d="M10.99,18.471c-0.928-0.004-1.837-0.06-2.861-0.106c-0.994-0.045-2.062-0.077-3.155-0.01l0.245,3.993
			c0.871-0.053,1.763-0.03,2.73,0.014c0.937,0.042,1.988,0.106,3.025,0.11L10.99,18.471z"/>
		<path class="st4" d="M4.978,18.354c-0.45,0.027-0.799,0.05-1.148,0.052l0.022,4c0.485-0.003,0.971-0.036,1.362-0.059L4.978,18.354
			z"/>
		<path class="st4" d="M3.842,18.407c0.34,0,0.646,0.118,0.88,0.294l-2.407,3.194c0.414,0.312,0.942,0.511,1.525,0.512L3.842,18.407
			z"/>
		<path class="st4" d="M4.722,18.701c0.329,0.248,0.579,0.664,0.58,1.169l-4,0.01c0.002,0.846,0.423,1.571,1.012,2.015L4.722,18.701
			z"/>
		<path class="st4" d="M5.299,19.749c0.024,0.385-0.075,0.679-0.086,0.713C5.211,20.467,5.21,20.472,5.21,20.47
			c0,0,0.002-0.006,0.004-0.012c0.004-0.013,0.013-0.042,0.023-0.08c0.021-0.078,0.05-0.201,0.063-0.354l-3.985-0.348
			c0.013-0.149,0.041-0.267,0.06-0.341c0.01-0.035,0.018-0.063,0.021-0.074c0.002-0.005,0.003-0.01,0.003-0.009v0v0c0,0,0,0,0,0.001
			c0,0,0,0.001-0.001,0.002c0,0.002-0.001,0.004-0.002,0.008C1.384,19.305,1.282,19.606,1.307,20L5.299,19.749z"/>
		<path class="st4" d="M5.251,19.374c0.081,0.333,0.073,0.786-0.185,1.221L1.622,18.56c-0.358,0.606-0.382,1.255-0.257,1.766
			L5.251,19.374z"/>
		<path class="st4" d="M5.071,20.587c0.371-0.635,0.848-1.411,1.243-2.209l-3.585-1.774c-0.314,0.634-0.676,1.221-1.111,1.964
			L5.071,20.587z"/>
		<path class="st4" d="M6.313,18.379c0.425-0.858,0.814-1.721,1.181-2.591l-3.687-1.552c-0.34,0.808-0.696,1.595-1.078,2.367
			L6.313,18.379z"/>
		<path class="st4" d="M3.77,14.331c0.007-0.02,0.013-0.033,0.008-0.021c-0.001,0.003-0.002,0.006-0.004,0.011
			c-0.002,0.005-0.005,0.011-0.008,0.018c-0.006,0.014-0.014,0.034-0.023,0.057l3.728,1.45c-0.002,0.004-0.002,0.006-0.001,0.002
			c0.001-0.002,0.002-0.004,0.003-0.009c0.001-0.003,0.004-0.01,0.006-0.016c0.01-0.024,0.029-0.072,0.051-0.131L3.77,14.331z"/>
		<path class="st4" d="M7.458,15.879c0.37-0.903,0.732-1.832,1.054-2.789l-3.791-1.276C4.436,12.659,4.11,13.5,3.757,14.361
			L7.458,15.879z"/>
		<path class="st4" d="M8.513,13.087c0.35-1.044,0.645-2.093,0.905-3.139L5.535,8.985c-0.239,0.964-0.506,1.908-0.815,2.832
			L8.513,13.087z"/>
		<path class="st4" d="M9.419,9.941c0.267-1.095,0.48-2.19,0.673-3.257l-3.937-0.71C5.969,7.009,5.772,8.013,5.533,8.992
			L9.419,9.941z"/>
		<path class="st4" d="M10.091,6.691c0.199-1.081,0.345-2.218,0.493-3.203L6.628,2.893C6.461,4,6.34,4.97,6.156,5.968L10.091,6.691z
			"/>
		<rect x="8.418" y="0.973" transform="matrix(0.145 -0.9894 0.9894 0.145 4.4434 11.0877)" class="st4" width="0.44" height="4"/>
		<path class="st4" d="M10.643,3.078c-0.087,0.532-0.396,0.86-0.613,1.018C9.817,4.252,9.531,4.37,9.181,4.373l-0.036-4
			C8.583,0.378,8.068,0.576,7.67,0.866C7.269,1.159,6.819,1.677,6.696,2.432L10.643,3.078z"/>
		<path class="st4" d="M9.117,4.373C8.92,4.368,8.773,4.332,8.735,4.322C8.718,4.318,8.701,4.313,8.723,4.319
			c0.012,0.003,0.053,0.015,0.103,0.026l0.902-3.897C9.76,0.456,9.782,0.462,9.775,0.46c-0.002-0.001-0.002,0-0.006-0.002
			C9.765,0.457,9.76,0.456,9.755,0.455C9.744,0.452,9.726,0.447,9.706,0.442C9.63,0.423,9.445,0.379,9.208,0.374L9.117,4.373z"/>
		<path class="st4" d="M9.966,4.275C9.668,4.384,9.351,4.39,9.053,4.298C8.739,4.2,8.351,3.955,8.126,3.491l3.6-1.744
			c-0.685-1.414-2.231-1.561-3.137-1.228L9.966,4.275z"/>
		<path class="st4" d="M8.098,3.43c0.148,0.333,0.323,0.596,0.449,0.776l3.273-2.3c-0.033-0.047-0.051-0.075-0.061-0.091
			c-0.009-0.015-0.009-0.016-0.004-0.006L8.098,3.43z"/>
		<path class="st4" d="M11.809,1.89c-0.026-0.036-0.049-0.066-0.059-0.079c-0.005-0.006-0.011-0.014-0.011-0.014
			c-0.002-0.002-0.001-0.002,0,0.001L8.565,4.231c0.007,0.009,0.014,0.018,0.017,0.022c0.001,0.001,0.002,0.002,0.003,0.003
			c0.001,0.001,0.001,0.002,0.002,0.002C8.587,4.26,8.587,4.26,8.587,4.26c0,0-0.003-0.005-0.008-0.011
			c-0.005-0.006-0.012-0.016-0.02-0.028L11.809,1.89z"/>
		<path class="st4" d="M8.523,4.175C8.56,4.228,8.593,4.27,8.616,4.299l3.141-2.477c-0.001-0.002,0.009,0.011,0.023,0.031
			L8.523,4.175z"/>
		<path class="st4" d="M8.597,4.275C8.599,4.276,8.6,4.278,8.601,4.28c0.001,0.002,0.001,0.002,0,0l3.266-2.309
			c-0.032-0.045-0.063-0.087-0.091-0.124L8.597,4.275z"/>
		<path class="st4" d="M11.898,2.016c-0.035-0.052-0.069-0.1-0.104-0.146L8.602,4.28C8.598,4.275,8.593,4.268,8.587,4.26
			C8.581,4.251,8.576,4.243,8.571,4.236L11.898,2.016z"/>
		<path class="st4" d="M8.623,4.306c0.312,0.399,0.424,0.514,0.623,0.785l3.226-2.365c-0.22-0.301-0.57-0.721-0.697-0.883
			L8.623,4.306z"/>
		<path class="st4" d="M9.235,5.077c0.171,0.238,0.423,0.597,0.625,0.874l3.234-2.353c-0.218-0.299-0.37-0.521-0.613-0.857
			L9.235,5.077z"/>
		<path class="st4" d="M9.889,5.991c0.671,0.875,1.216,1.522,1.747,2.29l3.29-2.276c-0.602-0.87-1.323-1.745-1.862-2.448
			L9.889,5.991z"/>
		<path class="st4" d="M11.637,8.282c0.548,0.791,1.068,1.617,1.576,2.468l3.436-2.048c-0.539-0.904-1.109-1.811-1.724-2.698
			L11.637,8.282z"/>
		<path class="st4" d="M13.207,10.741c0.494,0.839,0.942,1.724,1.404,2.659l3.587-1.77c-0.467-0.947-0.97-1.943-1.544-2.918
			L13.207,10.741z"/>
		<path class="st4" d="M14.607,13.391c0.246,0.506,0.485,1.003,0.714,1.5l3.633-1.673c-0.246-0.534-0.498-1.06-0.752-1.58
			L14.607,13.391z"/>
		<path class="st4" d="M15.393,15.033c0.083,0.147,0.168,0.291,0.234,0.402c0.071,0.12,0.125,0.213,0.174,0.301l3.511-1.917
			c-0.085-0.156-0.172-0.304-0.243-0.423c-0.076-0.128-0.133-0.224-0.186-0.319L15.393,15.033z"/>
		<path class="st4" d="M15.803,15.74c0.422,0.768,0.798,1.441,1.115,2.13l3.635-1.67c-0.391-0.85-0.849-1.668-1.244-2.387
			L15.803,15.74z"/>
		<path class="st4" d="M16.915,17.863c0.207,0.454,0.34,0.751,0.426,1.04l3.834-1.139c-0.18-0.604-0.439-1.162-0.619-1.557
			L16.915,17.863z"/>
		<path class="st4" d="M17.338,18.896c0.041,0.139,0.058,0.245,0.061,0.302l3.992-0.249c-0.027-0.437-0.118-0.846-0.215-1.176
			L17.338,18.896z"/>
		<path class="st4" d="M17.506,19.73c0.007,0.019,0.013,0.036,0.018,0.051c0.003,0.007,0.005,0.014,0.007,0.02
			c0.002,0.006,0.004,0.011,0.006,0.017c0.004,0.01,0.006,0.017,0.008,0.023c0.002,0.006,0.003,0.008,0.003,0.009
			c0.001,0.002-0.003-0.008-0.007-0.025c-0.005-0.017-0.012-0.046-0.019-0.083l3.93-0.744c-0.033-0.173-0.077-0.316-0.107-0.407
			c-0.015-0.046-0.03-0.087-0.04-0.115c-0.012-0.033-0.016-0.043-0.02-0.058L17.506,19.73z"/>
		<path class="st4" d="M17.526,19.76c-0.018-0.089-0.015-0.15-0.015-0.159c0-0.004,0,0.002-0.003,0.022
			c-0.003,0.021-0.007,0.05-0.015,0.095l3.943,0.67c0.041-0.242,0.135-0.787,0.012-1.409L17.526,19.76z"/>
		<path class="st4" d="M17.487,19.757c0.133-0.888,0.825-1.221,1.105-1.3l1.084,3.85c0.604-0.17,1.584-0.731,1.767-1.96
			L17.487,19.757z"/>
		<path class="st4" d="M17.927,18.788c0.233-0.176,0.45-0.23,0.548-0.246c0.094-0.016,0.14-0.009,0.102-0.012l-0.231,3.993
			c0.292,0.017,1.196,0.059,1.996-0.546L17.927,18.788z"/>
		<path class="st4" d="M18.594,18.531c-0.119-0.008-0.222-0.021-0.311-0.038l-0.753,3.928c0.277,0.053,0.544,0.084,0.797,0.101
			L18.594,18.531z"/>
		<path class="st4" d="M18.299,18.496c-0.079-0.016-0.378-0.082-0.611-0.118l-0.605,3.954c0.118,0.018,0.163,0.033,0.432,0.087
			L18.299,18.496z"/>
		<path class="st4" d="M17.162,22.342c0.043,0.005,0.092,0.01,0.144,0.014l0.316-3.987c0,0-0.001,0-0.003,0
			c-0.003,0-0.006-0.001-0.009-0.001L17.162,22.342z"/>
		<path class="st4" d="M17.695,18.376c-0.006-0.001-0.082-0.01-0.15-0.016l-0.361,3.984c-0.005-0.001-0.006-0.001,0.002,0
			c0.004,0.001,0.009,0.001,0.018,0.002c0.007,0.001,0.018,0.002,0.03,0.003L17.695,18.376z"/>
		<path class="st4" d="M17.727,18.384c-0.123-0.023-0.22-0.028-0.249-0.03c-0.016-0.001-0.031-0.002-0.028-0.001c0,0,0,0,0,0
			c0,0,0,0,0,0c0,0,0,0,0,0c0,0,0.001,0,0.001,0c0.001,0,0.003,0,0.005,0c0.004,0,0.011,0.001,0.019,0.001
			c0.061,0.003,0.268,0.016,0.517,0.1l-1.274,3.792c0.253,0.085,0.462,0.098,0.526,0.101c0.009,0,0.016,0.001,0.02,0.001
			c0.002,0,0.004,0,0.005,0c0.001,0,0.002,0,0.002,0c0.003,0-0.01,0-0.026-0.001c-0.027-0.002-0.124-0.007-0.245-0.03L17.727,18.384
			z"/>
		<path class="st4" d="M16.72,22.246c0.04,0.013,0.08,0.025,0.12,0.036c0.04,0.011,0.079,0.02,0.117,0.028
			c0.077,0.016,0.147,0.025,0.208,0.031c0.06,0.006,0.109,0.008,0.141,0.009c0.016,0,0.029,0.001,0.037,0.001
			c0.004,0,0.008,0,0.01,0c0.001,0,0.002,0,0.002,0c0,0,0,0,0.001,0c0,0,0,0,0,0c0,0-0.001,0-0.003,0c-0.002,0-0.005,0-0.009,0
			c-0.008,0-0.021,0-0.036-0.001c-0.032-0.001-0.08-0.003-0.139-0.009c-0.06-0.006-0.129-0.015-0.206-0.031
			c-0.038-0.008-0.077-0.017-0.116-0.027c-0.04-0.011-0.079-0.023-0.119-0.036l1.274-3.792c-0.04-0.013-0.08-0.025-0.12-0.036
			c-0.04-0.011-0.079-0.02-0.117-0.028c-0.077-0.016-0.147-0.025-0.208-0.031c-0.06-0.006-0.109-0.008-0.141-0.009
			c-0.016,0-0.029-0.001-0.037-0.001c-0.004,0-0.007,0-0.01,0c-0.001,0-0.002,0-0.002,0c0,0,0,0-0.001,0c0,0,0,0,0,0
			c0,0,0.001,0,0.003,0c0.002,0,0.005,0,0.009,0c0.008,0,0.021,0,0.036,0.001c0.032,0.001,0.08,0.003,0.139,0.009
			c0.06,0.006,0.129,0.015,0.206,0.031c0.038,0.008,0.077,0.017,0.116,0.028c0.04,0.011,0.079,0.022,0.119,0.036L16.72,22.246z"/>
		<path class="st4" d="M17.566,18.361c-0.063-0.006-0.11-0.012-0.149-0.017l-0.563,3.96c0.113,0.016,0.219,0.028,0.309,0.037
			L17.566,18.361z"/>
		<path class="st4" d="M17.35,18.336c-0.271-0.029-0.619-0.063-0.996-0.06l0.028,4c0.137-0.001,0.298,0.011,0.539,0.037
			L17.35,18.336z"/>
		<path class="st4" d="M16.379,18.276c-0.299-0.002-0.59,0.008-0.845,0.017l0.138,3.998c0.257-0.009,0.476-0.015,0.686-0.014
			L16.379,18.276z"/>
		<path class="st4" d="M15.504,18.294c-0.538,0.027-1.092,0.068-1.587,0.1l0.26,3.992c0.545-0.035,1.028-0.072,1.526-0.096
			L15.504,18.294z"/>
		<path class="st4" d="M13.924,18.393c-0.429,0.026-0.741,0.017-1.319,0.034l0.117,3.998c0.346-0.01,0.955-0.01,1.447-0.04
			L13.924,18.393z"/>
		<path class="st4" d="M10.669,20.573c0.074,1.011,0.146,1.977,0.182,2.939l3.997-0.15c-0.039-1.048-0.117-2.087-0.19-3.083
			L10.669,20.573z"/>
		<path class="st4" d="M10.851,23.512c0.049,1.314-0.001,2.642-0.061,4.051l3.996,0.169c0.059-1.397,0.117-2.874,0.061-4.369
			L10.851,23.512z"/>
		<path class="st4" d="M10.791,27.567c-0.052,1.277-0.204,2.56-0.376,3.924l3.969,0.5c0.172-1.361,0.345-2.797,0.404-4.263
			L10.791,27.567z"/>
		<path class="st4" d="M10.415,31.491c-0.163,1.295-0.382,2.599-0.646,3.889l3.919,0.8c0.282-1.381,0.518-2.785,0.695-4.189
			L10.415,31.491z"/>
		<path class="st4" d="M9.77,35.373c-0.307,1.475-0.584,2.843-0.976,4.174l3.837,1.129c0.447-1.52,0.758-3.063,1.054-4.489
			L9.77,35.373z"/>
		<path class="st4" d="M8.793,39.551c-0.398,1.363-0.791,2.662-1.27,3.911l3.735,1.431c0.542-1.415,0.974-2.85,1.375-4.221
			L8.793,39.551z"/>
		<path class="st4" d="M7.523,43.464c-0.538,1.409-1.099,2.783-1.721,4.132l3.633,1.673c0.67-1.454,1.265-2.915,1.824-4.378
			L7.523,43.464z"/>
		<path class="st4" d="M5.801,47.597c-0.569,1.239-1.224,2.465-1.936,3.637l3.418,2.077c0.789-1.298,1.516-2.66,2.152-4.044
			L5.801,47.597z"/>
		<path class="st4" d="M3.866,51.233c-0.402,0.66-0.799,1.293-1.217,1.916l3.321,2.23c0.463-0.69,0.894-1.378,1.313-2.066
			L3.866,51.233z"/>
		<path class="st4" d="M2.644,53.156c-0.376,0.565-0.776,1.109-1.218,1.721l3.243,2.341c0.41-0.567,0.875-1.199,1.306-1.847
			L2.644,53.156z"/>
	</g>
</g>
</svg>
