<?xml version="1.0" encoding="utf-8"?>
<!-- Generator: Adobe Illustrator 24.2.3, SVG Export Plug-In . SVG Version: 6.00 Build 0)  -->
<svg version="1.1" id="Layer_1" xmlns="http://www.w3.org/2000/svg" xmlns:xlink="http://www.w3.org/1999/xlink" x="0px" y="0px"
	 width="22px" height="58px" viewBox="0 0 22 58" style="enable-background:new 0 0 22 58;" xml:space="preserve">
<style type="text/css">
	.st0{fill-rule:evenodd;clip-rule:evenodd;fill:#E30613;}
	.st1{fill:#FFFFFF;filter:url(#Adobe_OpacityMaskFilter);}
	.st2{fill-rule:evenodd;clip-rule:evenodd;}
	.st3{mask:url(#path-1-outside-1_331_8331_1_);}
	.st4{fill:#FFFFFF;}
</style>
<g>
	<path class="st0" d="M19.889,52.45c-0.437-0.605-0.852-1.216-1.262-1.836c-0.362-0.544-0.688-1.103-1.024-1.66
		c-1.039-1.887-2.019-3.808-2.812-5.814c-0.428-1.081-0.851-2.161-1.223-3.264c-0.372-1.091-0.705-2.182-1.011-3.294
		c-0.593-2.393-1.102-4.804-1.475-7.243c-0.362-2.364-0.5-4.773-0.492-7.163c-0.001,0.028-0.002,0.058-0.003,0.087
		c0.001-0.056,0.001-0.11,0.003-0.166c0.001-0.004,0-0.008,0-0.011c0.001,0.003,0.001,0.006,0,0.009
		c0.009-0.544,0.019-1.088,0.037-1.633c0.131,0.001,0.261,0.011,0.391,0.011c1.965-0.008,3.922-0.241,5.886-0.12
		c0.421,0.025,0.838,0.053,1.255,0.056c0.121,0,0.232-0.041,0.322-0.109c0.13-0.098,0.215-0.252,0.216-0.423
		c0.001-0.009-0.004-0.016-0.005-0.025c0.022-0.089,0.014-0.187-0.036-0.272c-0.403-0.689-0.823-1.371-1.177-2.087
		c-0.404-0.815-0.776-1.64-1.13-2.479c0.014,0.038,0.029,0.071,0.043,0.109c-0.362-0.882-0.706-1.767-1.009-2.668
		c-0.329-0.984-0.611-1.98-0.86-2.986c-0.253-1.037-0.458-2.087-0.647-3.137c-0.191-1.039-0.325-2.093-0.482-3.139l-0.064-0.435
		c-0.037-0.223-0.282-0.38-0.493-0.382c-0.039,0.001-0.076,0.015-0.115,0.024c-0.234-0.086-0.535-0.012-0.649,0.222
		c-0.07,0.158-0.16,0.298-0.257,0.437c0.01-0.014,0.02-0.026,0.031-0.041c-0.012,0.016-0.023,0.031-0.035,0.046
		c-0.016,0.021-0.032,0.043-0.048,0.065c0.012-0.018,0.023-0.034,0.036-0.051c-0.219,0.281-0.45,0.549-0.66,0.834
		c-0.207,0.287-0.409,0.577-0.619,0.866c-0.605,0.789-1.238,1.55-1.805,2.369c-0.581,0.839-1.127,1.705-1.65,2.583
		c-0.534,0.907-1.009,1.848-1.474,2.788c-0.25,0.513-0.495,1.024-0.733,1.54c-0.136,0.243-0.285,0.478-0.419,0.722
		c-0.409,0.744-0.825,1.488-1.179,2.258c-0.193,0.425-0.39,0.852-0.522,1.299c-0.069,0.235-0.123,0.492-0.138,0.739
		c-0.034,0.097-0.072,0.193-0.092,0.296c-0.046,0.231-0.017,0.458,0.022,0.684c0.025,0.17,0.169,0.284,0.331,0.33
		c0.187,0.141,0.443,0.157,0.673,0.144c0.186-0.012,0.371-0.034,0.554-0.069c0.174-0.035,0.346-0.076,0.521-0.102
		c-0.025,0.003-0.052,0.006-0.078,0.008c0.033-0.004,0.065-0.008,0.099-0.011c0.002,0,0.005,0,0.008-0.001
		c-0.003,0.001-0.005,0-0.008,0.001c0.077-0.008,0.153-0.016,0.229-0.027c0.256-0.028,0.51-0.05,0.767-0.049
		c0.254-0.001,0.51,0.007,0.765,0.015c0.518,0.026,1.036,0.064,1.556,0.098c0.461,0.028,0.921,0.024,1.383,0.037
		c-0.074,1.004-0.148,2.006-0.186,3.012c-0.052,1.404,0.002,2.807,0.061,4.21c0.056,1.372,0.218,2.731,0.39,4.094
		c0.17,1.349,0.398,2.703,0.671,4.039c0.302,1.451,0.596,2.906,1.015,4.331c0.399,1.367,0.812,2.734,1.322,4.066
		c0.549,1.436,1.127,2.853,1.773,4.255c0.603,1.311,1.293,2.605,2.044,3.84c0.41,0.674,0.824,1.335,1.265,1.991
		c0.403,0.606,0.836,1.194,1.262,1.784"/>
	<defs>
		<filter id="Adobe_OpacityMaskFilter" filterUnits="userSpaceOnUse" x="0.49" y="0.37" width="21.021" height="56.848">
			<feColorMatrix  type="matrix" values="1 0 0 0 0  0 1 0 0 0  0 0 1 0 0  0 0 0 1 0"/>
		</filter>
	</defs>
	<mask maskUnits="userSpaceOnUse" x="0.49" y="0.37" width="21.021" height="56.848" id="path-1-outside-1_331_8331_1_">
		<rect x="-12.433" y="-0.915" class="st1" width="55.647" height="59.19"/>
		<path class="st2" d="M19.889,52.45c-0.437-0.605-0.852-1.216-1.262-1.836c-0.362-0.544-0.688-1.103-1.024-1.66
			c-1.039-1.887-2.019-3.808-2.812-5.814c-0.428-1.081-0.851-2.161-1.223-3.264c-0.372-1.091-0.705-2.182-1.011-3.294
			c-0.593-2.393-1.102-4.804-1.475-7.243c-0.362-2.364-0.5-4.773-0.492-7.163c-0.001,0.028-0.002,0.058-0.003,0.087
			c0.001-0.056,0.001-0.11,0.003-0.166c0.001-0.004,0-0.008,0-0.011c0.001,0.003,0.001,0.006,0,0.009
			c0.009-0.544,0.019-1.088,0.037-1.633c0.131,0.001,0.261,0.011,0.391,0.011c1.965-0.008,3.922-0.241,5.886-0.12
			c0.421,0.025,0.838,0.053,1.255,0.056c0.121,0,0.232-0.041,0.322-0.109c0.13-0.098,0.215-0.252,0.216-0.423
			c0.001-0.009-0.004-0.016-0.005-0.025c0.022-0.089,0.014-0.187-0.036-0.272c-0.403-0.689-0.823-1.371-1.177-2.087
			c-0.404-0.815-0.776-1.64-1.13-2.479c0.014,0.038,0.029,0.071,0.043,0.109c-0.362-0.882-0.706-1.767-1.009-2.668
			c-0.329-0.984-0.611-1.98-0.86-2.986c-0.253-1.037-0.458-2.087-0.647-3.137c-0.191-1.039-0.325-2.093-0.482-3.139l-0.064-0.435
			c-0.037-0.223-0.282-0.38-0.493-0.382c-0.039,0.001-0.076,0.015-0.115,0.024c-0.234-0.086-0.535-0.012-0.649,0.222
			c-0.07,0.158-0.16,0.298-0.257,0.437c0.01-0.014,0.02-0.026,0.031-0.041c-0.012,0.016-0.023,0.031-0.035,0.046
			c-0.016,0.021-0.032,0.043-0.048,0.065c0.012-0.018,0.023-0.034,0.036-0.051c-0.219,0.281-0.45,0.549-0.66,0.834
			c-0.207,0.287-0.409,0.577-0.619,0.866c-0.605,0.789-1.238,1.55-1.805,2.369c-0.581,0.839-1.127,1.705-1.65,2.583
			c-0.534,0.907-1.009,1.848-1.474,2.788c-0.25,0.513-0.495,1.024-0.733,1.54c-0.136,0.243-0.285,0.478-0.419,0.722
			c-0.409,0.744-0.825,1.488-1.179,2.258c-0.193,0.425-0.39,0.852-0.522,1.299c-0.069,0.235-0.123,0.492-0.138,0.739
			c-0.034,0.097-0.072,0.193-0.092,0.296c-0.046,0.231-0.017,0.458,0.022,0.684c0.025,0.17,0.169,0.284,0.331,0.33
			c0.187,0.141,0.443,0.157,0.673,0.144c0.186-0.012,0.371-0.034,0.554-0.069c0.174-0.035,0.346-0.076,0.521-0.102
			c-0.025,0.003-0.052,0.006-0.078,0.008c0.033-0.004,0.065-0.008,0.099-0.011c0.002,0,0.005,0,0.008-0.001
			c-0.003,0.001-0.005,0-0.008,0.001c0.077-0.008,0.153-0.016,0.229-0.027c0.256-0.028,0.51-0.05,0.767-0.049
			c0.254-0.001,0.51,0.007,0.765,0.015c0.518,0.026,1.036,0.064,1.556,0.098c0.461,0.028,0.921,0.024,1.383,0.037
			c-0.074,1.004-0.148,2.006-0.186,3.012c-0.052,1.404,0.002,2.807,0.061,4.21c0.056,1.372,0.218,2.731,0.39,4.094
			c0.17,1.349,0.398,2.703,0.671,4.039c0.302,1.451,0.596,2.906,1.015,4.331c0.399,1.367,0.812,2.734,1.322,4.066
			c0.549,1.436,1.127,2.853,1.773,4.255c0.603,1.311,1.293,2.605,2.044,3.84c0.41,0.674,0.824,1.335,1.265,1.991
			c0.403,0.606,0.836,1.194,1.262,1.784"/>
	</mask>
	<g class="st3">
		<polygon class="st4" points="18.627,50.614 20.296,49.511 20.292,49.505 		"/>
		<polygon class="st4" points="17.603,48.954 15.851,49.918 15.87,49.953 15.89,49.986 		"/>
		<polygon class="st4" points="14.791,43.139 16.65,42.404 16.65,42.404 		"/>
		<polygon class="st4" points="13.568,39.875 15.463,39.236 15.461,39.23 		"/>
		<polygon class="st4" points="12.557,36.581 10.615,37.062 10.622,37.087 10.628,37.111 		"/>
		<polygon class="st4" points="11.082,29.338 13.059,29.036 13.059,29.036 		"/>
		<polygon class="st4" points="10.59,22.175 12.59,22.182 8.592,22.095 		"/>
		<polygon class="st4" points="10.587,22.262 8.587,22.238 12.585,22.352 		"/>
		<polygon class="st4" points="10.59,22.096 8.609,21.818 8.593,21.93 8.59,22.044 		"/>
		<polygon class="st4" points="10.59,22.085 12.486,21.448 8.593,22.2 		"/>
		<polygon class="st4" points="10.59,22.094 8.59,22.059 12.57,22.372 		"/>
		<polygon class="st4" points="10.627,20.461 10.634,18.461 8.692,18.453 8.628,20.395 		"/>
		<polygon class="st4" points="11.018,20.471 11.022,22.471 11.026,22.471 		"/>
		<polygon class="st4" points="16.904,20.351 16.781,22.347 16.786,22.348 		"/>
		<polygon class="st4" points="18.159,20.407 18.148,22.407 18.16,22.407 		"/>
		<polygon class="st4" points="18.697,19.875 16.701,19.749 16.697,19.809 16.697,19.87 		"/>
		<polygon class="st4" points="18.692,19.85 16.749,19.374 16.671,19.695 16.7,20.024 		"/>
		<polygon class="st4" points="18.656,19.578 16.929,20.587 16.935,20.596 		"/>
		<polygon class="st4" points="17.479,17.491 19.272,16.604 19.271,16.603 		"/>
		<polygon class="st4" points="16.349,15.011 18.193,14.235 14.469,15.692 		"/>
		<polygon class="st4" points="16.393,15.12 14.542,15.879 18.257,14.395 		"/>
		<polygon class="st4" points="15.384,12.452 13.487,13.087 13.488,13.09 		"/>
		<polygon class="st4" points="14.524,9.466 12.581,9.941 12.583,9.948 		"/>
		<polygon class="st4" points="13.877,6.329 15.845,5.974 15.844,5.968 		"/>
		<polygon class="st4" points="13.394,3.19 11.416,3.48 11.417,3.488 		"/>
		<polygon class="st4" points="13.331,2.755 15.31,2.465 15.307,2.448 15.304,2.432 		"/>
		<polygon class="st4" points="12.837,2.373 12.856,0.373 12.824,0.373 12.792,0.374 		"/>
		<polygon class="st4" points="12.723,2.397 12.034,4.275 12.593,4.48 13.174,4.345 		"/>
		<polygon class="st4" points="12.074,2.619 10.274,1.747 10.259,1.778 10.245,1.808 		"/>
		<polygon class="st4" points="11.817,3.056 10.18,1.906 13.442,4.221 		"/>
		<polygon class="st4" points="11.848,3.014 13.477,4.175 10.261,1.798 		"/>
		<polygon class="st4" points="11.813,3.061 10.243,1.823 10.233,1.835 10.223,1.847 		"/>
		<polygon class="st4" points="11.765,3.126 10.102,2.016 13.399,4.28 		"/>
		<polygon class="st4" points="11.802,3.074 13.398,4.28 10.227,1.842 		"/>
		<polygon class="st4" points="11.142,3.908 9.529,2.726 9.524,2.733 9.519,2.74 		"/>
		<polygon class="st4" points="10.523,4.774 12.111,5.991 12.126,5.971 12.141,5.951 		"/>
		<polygon class="st4" points="8.719,7.143 10.363,8.282 10.364,8.281 		"/>
		<polygon class="st4" points="7.069,9.726 5.351,8.702 5.345,8.712 		"/>
		<polygon class="st4" points="5.595,12.514 3.802,11.629 3.798,11.638 		"/>
		<polygon class="st4" points="4.863,14.055 6.607,15.033 6.646,14.963 6.679,14.891 		"/>
		<polygon class="st4" points="4.444,14.777 6.197,15.74 6.199,15.736 		"/>
		<polygon class="st4" points="3.265,17.035 1.448,16.2 1.444,16.207 		"/>
		<polygon class="st4" points="2.742,18.334 0.825,17.765 0.823,17.772 		"/>
		<polygon class="st4" points="2.604,19.073 4.494,19.73 4.583,19.471 4.6,19.198 		"/>
		<polygon class="st4" points="2.513,19.369 4.474,19.76 4.476,19.75 4.478,19.741 		"/>
		<polygon class="st4" points="2.534,20.052 4.513,19.757 4.51,19.737 4.506,19.717 		"/>
		<polygon class="st4" points="2.866,20.382 4.073,18.788 3.772,18.56 3.408,18.457 		"/>
		<polygon class="st4" points="3.539,20.526 3.654,22.523 3.663,22.522 3.672,22.522 		"/>
		<polygon class="st4" points="4.093,20.457 4.469,22.421 4.477,22.42 4.485,22.418 		"/>
		<polygon class="st4" points="4.614,20.355 4.917,22.332 4.39,18.367 		"/>
		<polygon class="st4" points="4.536,20.362 4.305,18.376 4.694,22.356 		"/>
		<polygon class="st4" points="4.635,20.351 4.816,22.343 4.907,22.335 4.998,22.318 		"/>
		<polygon class="st4" points="4.635,20.351 3.999,18.455 4.837,22.341 		"/>
		<polygon class="st4" points="4.864,20.324 4.65,18.336 4.616,18.339 4.583,18.344 		"/>
		<polygon class="st4" points="5.631,20.276 5.617,22.276 5.63,22.276 5.642,22.276 		"/>
		<polygon class="st4" points="6.397,20.291 6.496,18.294 6.481,18.293 6.466,18.292 		"/>
		<polygon class="st4" points="7.953,20.389 7.823,22.385 7.83,22.385 		"/>
		<polygon class="st4" points="9.336,20.426 11.331,20.573 11.484,18.489 9.395,18.427 		"/>
		<polygon class="st4" points="9.15,23.438 7.151,23.363 7.151,23.363 		"/>
		<polygon class="st4" points="9.211,27.648 11.209,27.567 11.209,27.564 		"/>
		<polygon class="st4" points="9.601,31.741 7.617,31.992 7.617,31.992 		"/>
		<polygon class="st4" points="10.272,35.78 8.312,36.18 8.314,36.187 		"/>
		<polygon class="st4" points="11.287,40.111 13.207,39.551 13.205,39.547 		"/>
		<polygon class="st4" points="12.609,44.177 14.477,43.464 14.476,43.462 		"/>
		<polygon class="st4" points="14.382,48.432 16.199,47.597 16.198,47.596 		"/>
		<polygon class="st4" points="16.425,52.273 14.716,53.311 14.717,53.313 		"/>
		<polygon class="st4" points="17.69,54.264 19.356,53.156 19.35,53.149 		"/>
		<path class="st4" d="M21.51,51.278c-0.415-0.575-0.814-1.161-1.215-1.767l-3.337,2.205c0.419,0.634,0.851,1.27,1.31,1.905
			L21.51,51.278z"/>
		<path class="st4" d="M20.292,49.505c-0.329-0.494-0.62-0.993-0.976-1.584l-3.426,2.065c0.316,0.524,0.678,1.143,1.072,1.736
			L20.292,49.505z"/>
		<path class="st4" d="M19.355,47.989c-1.021-1.855-1.956-3.692-2.705-5.585l-3.72,1.471c0.838,2.12,1.864,4.125,2.92,6.043
			L19.355,47.989z"/>
		<path class="st4" d="M16.65,42.404c-0.428-1.083-0.834-2.119-1.187-3.167l-3.79,1.278c0.39,1.158,0.831,2.282,1.258,3.361
			L16.65,42.404z"/>
		<path class="st4" d="M15.461,39.23c-0.358-1.052-0.68-2.104-0.976-3.18l-3.857,1.061c0.316,1.149,0.661,2.278,1.046,3.408
			L15.461,39.23z"/>
		<path class="st4" d="M14.498,36.1c-0.582-2.349-1.078-4.699-1.439-7.064L9.105,29.64c0.384,2.512,0.907,4.984,1.51,7.421
			L14.498,36.1z"/>
		<path class="st4" d="M13.059,29.036c-0.343-2.241-0.477-4.544-0.469-6.854l-4-0.014c-0.008,2.47,0.134,4.985,0.515,7.473
			L13.059,29.036z"/>
		<path class="st4" d="M8.592,22.095c-0.001,0.026-0.002,0.052-0.002,0.063c0,0.014-0.001,0.016,0,0.015l3.996,0.179
			c0.001-0.031,0.002-0.058,0.003-0.073c0-0.009,0-0.013,0.001-0.018c0-0.004,0-0.006,0-0.006L8.592,22.095z"/>
		<path class="st4" d="M12.587,22.287c0.001-0.065,0.001-0.1,0.002-0.138L8.59,22.044c-0.002,0.074-0.003,0.148-0.003,0.194
			L12.587,22.287z"/>
		<path class="st4" d="M12.57,22.375c0.016-0.115,0.02-0.213,0.02-0.289c0-0.036-0.001-0.066-0.002-0.085
			c0-0.01-0.001-0.018-0.001-0.023c0-0.003,0-0.005,0-0.006c0-0.001,0-0.002,0-0.003L8.593,22.2
			c0.001,0.012-0.014-0.167,0.016-0.382L12.57,22.375z"/>
		<path class="st4" d="M8.694,22.722c-0.17-0.507-0.077-0.959-0.084-0.907l3.961,0.557c0,0,0,0,0-0.001s0-0.002,0-0.003
			c0-0.003,0.001-0.007,0.002-0.012c0.001-0.01,0.003-0.027,0.006-0.048c0.004-0.041,0.01-0.106,0.012-0.188
			c0.003-0.171-0.016-0.407-0.104-0.672L8.694,22.722z"/>
		<path class="st4" d="M12.59,22.128c0.009-0.547,0.019-1.075,0.036-1.601l-3.998-0.132C8.609,20.958,8.6,21.518,8.59,22.059
			L12.59,22.128z"/>
		<path class="st4" d="M10.619,22.461c0.021,0,0.048,0.001,0.122,0.004c0.061,0.002,0.167,0.007,0.281,0.007l-0.009-4
			c-0.016,0-0.04-0.001-0.11-0.003c-0.056-0.002-0.16-0.007-0.269-0.007L10.619,22.461z"/>
		<path class="st4" d="M11.026,22.471c1.037-0.004,2.088-0.068,3.025-0.11c0.967-0.044,1.859-0.067,2.73-0.014l0.245-3.993
			c-1.093-0.067-2.161-0.034-3.155,0.01c-1.024,0.046-1.933,0.102-2.861,0.106L11.026,22.471z"/>
		<path class="st4" d="M16.786,22.348c0.391,0.023,0.877,0.057,1.362,0.059l0.022-4c-0.35-0.002-0.698-0.026-1.148-0.052
			L16.786,22.348z"/>
		<path class="st4" d="M18.16,22.407c0.582,0,1.11-0.199,1.525-0.512l-2.407-3.194c0.234-0.176,0.54-0.294,0.88-0.294L18.16,22.407z
			"/>
		<path class="st4" d="M19.685,21.895c0.589-0.444,1.01-1.169,1.012-2.015l-4-0.01c0.001-0.505,0.251-0.921,0.58-1.169
			L19.685,21.895z"/>
		<path class="st4" d="M20.693,20c0.025-0.394-0.077-0.696-0.09-0.738c-0.001-0.003-0.002-0.006-0.002-0.008
			c0-0.001,0-0.002-0.001-0.002c0,0,0,0,0-0.001v0v0c0-0.001,0.001,0.004,0.003,0.009c0.003,0.011,0.012,0.038,0.021,0.074
			c0.02,0.074,0.047,0.192,0.06,0.341L16.7,20.024c0.013,0.153,0.042,0.276,0.063,0.354c0.01,0.037,0.019,0.067,0.023,0.08
			c0.002,0.006,0.004,0.012,0.004,0.012c0,0.002-0.001-0.003-0.002-0.007c-0.011-0.035-0.111-0.329-0.086-0.713L20.693,20z"/>
		<path class="st4" d="M20.635,20.325c0.125-0.511,0.101-1.16-0.257-1.766l-3.443,2.036c-0.258-0.436-0.266-0.889-0.185-1.221
			L20.635,20.325z"/>
		<path class="st4" d="M20.383,18.568c-0.435-0.743-0.797-1.33-1.111-1.964l-3.585,1.774c0.395,0.798,0.872,1.574,1.243,2.209
			L20.383,18.568z"/>
		<path class="st4" d="M19.271,16.603c-0.383-0.772-0.738-1.559-1.078-2.367l-3.687,1.552c0.366,0.871,0.756,1.734,1.181,2.591
			L19.271,16.603z"/>
		<path class="st4" d="M14.469,15.692c0.021,0.059,0.041,0.107,0.051,0.131c0.002,0.006,0.005,0.012,0.006,0.016
			c0.002,0.004,0.003,0.007,0.003,0.009c0.002,0.004,0.001,0.002-0.001-0.002l3.728-1.45c-0.009-0.023-0.017-0.043-0.023-0.057
			c-0.003-0.007-0.006-0.014-0.008-0.018c-0.002-0.005-0.003-0.008-0.004-0.011c-0.005-0.012,0.001,0.001,0.008,0.021L14.469,15.692
			z"/>
		<path class="st4" d="M18.243,14.361c-0.353-0.861-0.68-1.703-0.964-2.547l-3.791,1.276c0.322,0.957,0.684,1.886,1.054,2.789
			L18.243,14.361z"/>
		<path class="st4" d="M17.28,11.817c-0.309-0.924-0.576-1.868-0.815-2.832l-3.882,0.963c0.259,1.046,0.555,2.095,0.905,3.139
			L17.28,11.817z"/>
		<path class="st4" d="M16.467,8.992c-0.239-0.979-0.435-1.983-0.622-3.017l-3.937,0.71c0.192,1.066,0.405,2.161,0.673,3.257
			L16.467,8.992z"/>
		<path class="st4" d="M15.844,5.968C15.66,4.97,15.539,4,15.372,2.893l-3.956,0.594c0.148,0.985,0.294,2.122,0.493,3.203
			L15.844,5.968z"/>
		<rect x="11.362" y="2.753" transform="matrix(0.9894 -0.145 0.145 0.9894 -0.2899 1.9694)" class="st4" width="4" height="0.44"/>
		<path class="st4" d="M15.304,2.432c-0.124-0.755-0.574-1.273-0.975-1.566c-0.398-0.291-0.912-0.488-1.474-0.493l-0.036,4
			c-0.35-0.003-0.636-0.121-0.849-0.277c-0.217-0.158-0.526-0.486-0.613-1.018L15.304,2.432z"/>
		<path class="st4" d="M12.792,0.374c-0.237,0.005-0.422,0.049-0.498,0.068c-0.021,0.005-0.038,0.01-0.049,0.013
			c-0.006,0.002-0.01,0.003-0.014,0.004c-0.005,0.001-0.004,0.001-0.006,0.002c-0.007,0.002,0.015-0.004,0.046-0.012l0.902,3.897
			c0.05-0.012,0.092-0.023,0.103-0.026c0.022-0.006,0.004-0.001-0.012,0.003c-0.038,0.009-0.185,0.046-0.382,0.05L12.792,0.374z"/>
		<path class="st4" d="M13.411,0.519c-0.907-0.333-2.452-0.186-3.137,1.228l3.6,1.744c-0.225,0.464-0.613,0.709-0.927,0.807
			c-0.298,0.093-0.615,0.086-0.913-0.023L13.411,0.519z"/>
		<path class="st4" d="M10.245,1.808c0.004-0.01,0.005-0.009-0.004,0.006c-0.01,0.017-0.028,0.044-0.061,0.091l3.273,2.3
			c0.126-0.18,0.302-0.443,0.449-0.776L10.245,1.808z"/>
		<path class="st4" d="M13.442,4.221c-0.009,0.012-0.016,0.021-0.02,0.028c-0.005,0.006-0.008,0.01-0.008,0.011c0,0,0,0,0.001-0.001
			c0-0.001,0.001-0.001,0.002-0.002c0.001-0.001,0.002-0.002,0.003-0.003c0.004-0.005,0.01-0.013,0.017-0.022l-3.174-2.434
			c0.002-0.002,0.002-0.003,0-0.001c0,0.001-0.006,0.008-0.011,0.014c-0.01,0.013-0.033,0.043-0.059,0.079L13.442,4.221z"/>
		<path class="st4" d="M10.219,1.854c0.014-0.02,0.024-0.033,0.023-0.031l3.141,2.477c0.023-0.029,0.056-0.072,0.093-0.124
			L10.219,1.854z"/>
		<path class="st4" d="M10.223,1.847c-0.028,0.036-0.059,0.079-0.091,0.124l3.266,2.309c-0.001,0.002-0.001,0.002,0,0
			c0.001-0.002,0.003-0.004,0.004-0.005L10.223,1.847z"/>
		<path class="st4" d="M13.429,4.236c-0.005,0.008-0.011,0.016-0.017,0.024c-0.006,0.008-0.011,0.015-0.015,0.02l-3.192-2.41
			c-0.035,0.046-0.069,0.094-0.104,0.146L13.429,4.236z"/>
		<path class="st4" d="M10.227,1.842C10.1,2.005,9.75,2.425,9.529,2.726l3.226,2.365c0.198-0.27,0.311-0.386,0.623-0.785
			L10.227,1.842z"/>
		<path class="st4" d="M9.519,2.74C9.277,3.077,9.124,3.298,8.906,3.597l3.234,2.353c0.202-0.277,0.453-0.636,0.625-0.874
			L9.519,2.74z"/>
		<path class="st4" d="M8.936,3.557C8.397,4.26,7.676,5.135,7.074,6.005l3.29,2.276c0.531-0.767,1.076-1.415,1.747-2.29L8.936,3.557
			z"/>
		<path class="st4" d="M7.075,6.004C6.46,6.891,5.89,7.798,5.351,8.702l3.436,2.048c0.507-0.851,1.028-1.677,1.576-2.468
			L7.075,6.004z"/>
		<path class="st4" d="M5.345,8.712c-0.574,0.974-1.076,1.971-1.544,2.918l3.587,1.77c0.461-0.935,0.91-1.82,1.404-2.659
			L5.345,8.712z"/>
		<path class="st4" d="M3.798,11.638c-0.253,0.52-0.506,1.046-0.752,1.58l3.633,1.673c0.229-0.497,0.467-0.994,0.714-1.5
			L3.798,11.638z"/>
		<path class="st4" d="M3.118,13.076c-0.054,0.096-0.111,0.191-0.186,0.319c-0.071,0.119-0.158,0.266-0.243,0.423l3.511,1.917
			c0.048-0.088,0.103-0.181,0.174-0.301c0.066-0.111,0.152-0.255,0.234-0.402L3.118,13.076z"/>
		<path class="st4" d="M2.691,13.814C2.296,14.533,1.838,15.35,1.448,16.2l3.635,1.67c0.317-0.69,0.692-1.362,1.115-2.13
			L2.691,13.814z"/>
		<path class="st4" d="M1.444,16.207c-0.18,0.395-0.44,0.953-0.619,1.557l3.834,1.139c0.086-0.289,0.219-0.586,0.426-1.04
			L1.444,16.207z"/>
		<path class="st4" d="M0.823,17.772c-0.097,0.33-0.187,0.739-0.215,1.176L4.6,19.198c0.004-0.057,0.021-0.163,0.061-0.302
			L0.823,17.772z"/>
		<path class="st4" d="M0.715,18.417c-0.005,0.014-0.009,0.024-0.02,0.058c-0.01,0.027-0.024,0.068-0.04,0.115
			c-0.03,0.092-0.074,0.235-0.107,0.407l3.93,0.744c-0.007,0.037-0.014,0.065-0.019,0.083c-0.005,0.017-0.008,0.027-0.007,0.025
			c0-0.001,0.001-0.003,0.003-0.009c0.002-0.006,0.004-0.013,0.008-0.023c0.002-0.005,0.004-0.01,0.006-0.017
			c0.002-0.006,0.005-0.013,0.007-0.02c0.005-0.014,0.011-0.032,0.018-0.051L0.715,18.417z"/>
		<path class="st4" d="M0.551,18.978c-0.124,0.622-0.03,1.167,0.012,1.409l3.943-0.67c-0.008-0.045-0.012-0.074-0.015-0.095
			c-0.003-0.02-0.003-0.026-0.003-0.022c0.001,0.009,0.003,0.07-0.015,0.159L0.551,18.978z"/>
		<path class="st4" d="M0.556,20.348c0.183,1.228,1.164,1.79,1.767,1.96l1.084-3.85c0.279,0.079,0.972,0.411,1.105,1.3L0.556,20.348
			z"/>
		<path class="st4" d="M1.659,21.977c0.8,0.605,1.703,0.563,1.996,0.546L3.423,18.53c-0.039,0.002,0.008-0.004,0.102,0.012
			c0.098,0.017,0.315,0.07,0.548,0.246L1.659,21.977z"/>
		<path class="st4" d="M3.672,22.522c0.253-0.017,0.52-0.048,0.797-0.101l-0.753-3.928c-0.089,0.017-0.191,0.03-0.311,0.038
			L3.672,22.522z"/>
		<path class="st4" d="M4.485,22.418c0.269-0.054,0.314-0.069,0.432-0.087l-0.605-3.954c-0.233,0.036-0.532,0.102-0.611,0.118
			L4.485,22.418z"/>
		<path class="st4" d="M4.39,18.367c-0.004,0-0.007,0.001-0.009,0.001c-0.003,0-0.004,0-0.003,0l0.316,3.987
			c0.052-0.004,0.101-0.009,0.144-0.014L4.39,18.367z"/>
		<path class="st4" d="M4.767,22.349c0.011-0.001,0.022-0.003,0.03-0.003c0.008-0.001,0.013-0.002,0.018-0.002
			c0.008-0.001,0.007-0.001,0.002,0l-0.361-3.984c-0.067,0.006-0.144,0.015-0.15,0.016L4.767,22.349z"/>
		<path class="st4" d="M4.998,22.318c-0.122,0.022-0.218,0.028-0.245,0.03c-0.016,0.001-0.029,0.002-0.026,0.001
			c0,0,0.001,0,0.002,0c0.001,0,0.003,0,0.005,0c0.005,0,0.012-0.001,0.02-0.001c0.064-0.004,0.273-0.017,0.526-0.101l-1.274-3.792
			c0.25-0.084,0.457-0.097,0.517-0.1c0.008,0,0.015-0.001,0.019-0.001c0.002,0,0.004,0,0.005,0c0.001,0,0.001,0,0.001,0c0,0,0,0,0,0
			c0,0,0,0,0,0c0,0,0,0,0,0c0.003,0-0.012,0-0.028,0.001c-0.028,0.002-0.126,0.007-0.249,0.03L4.998,22.318z"/>
		<path class="st4" d="M4.007,18.454c0.039-0.013,0.079-0.025,0.119-0.036s0.078-0.02,0.116-0.028
			c0.076-0.016,0.146-0.025,0.206-0.031c0.059-0.006,0.108-0.008,0.139-0.009c0.016,0,0.029-0.001,0.036-0.001
			c0.004,0,0.007,0,0.009,0c0.002,0,0.003,0,0.003,0c0,0,0,0,0,0s0,0-0.001,0c-0.001,0-0.001,0-0.002,0c-0.002,0-0.005,0-0.01,0
			c-0.008,0-0.021,0-0.037,0.001c-0.032,0.001-0.082,0.003-0.141,0.009c-0.061,0.006-0.131,0.015-0.208,0.031
			c-0.038,0.008-0.078,0.017-0.117,0.028c-0.04,0.011-0.08,0.023-0.12,0.036l1.274,3.792c-0.039,0.013-0.079,0.025-0.119,0.036
			c-0.04,0.011-0.078,0.02-0.116,0.027c-0.076,0.016-0.146,0.025-0.206,0.031c-0.059,0.006-0.108,0.008-0.139,0.009
			c-0.016,0-0.029,0.001-0.036,0.001c-0.004,0-0.007,0-0.009,0c-0.002,0-0.003,0-0.003,0c0,0,0,0,0,0c0,0,0,0,0.001,0
			c0.001,0,0.001,0,0.002,0c0.002,0,0.005,0,0.01,0c0.008,0,0.021,0,0.037-0.001c0.032-0.001,0.082-0.003,0.141-0.009
			c0.061-0.006,0.131-0.015,0.208-0.031c0.038-0.008,0.078-0.017,0.117-0.028c0.04-0.011,0.08-0.023,0.12-0.036L4.007,18.454z"/>
		<path class="st4" d="M4.837,22.341c0.09-0.009,0.196-0.021,0.309-0.037l-0.563-3.96c-0.039,0.005-0.085,0.011-0.149,0.017
			L4.837,22.341z"/>
		<path class="st4" d="M5.078,22.313c0.241-0.026,0.402-0.038,0.539-0.037l0.028-4c-0.376-0.003-0.725,0.031-0.996,0.06
			L5.078,22.313z"/>
		<path class="st4" d="M5.642,22.276c0.21-0.001,0.429,0.005,0.686,0.014l0.138-3.998c-0.255-0.009-0.546-0.018-0.845-0.017
			L5.642,22.276z"/>
		<path class="st4" d="M6.298,22.289c0.497,0.025,0.98,0.061,1.526,0.096l0.26-3.992c-0.495-0.032-1.049-0.073-1.587-0.1
			L6.298,22.289z"/>
		<path class="st4" d="M7.83,22.385c0.492,0.03,1.101,0.03,1.447,0.04l0.117-3.998c-0.578-0.017-0.889-0.008-1.319-0.034
			L7.83,22.385z"/>
		<path class="st4" d="M7.342,20.279c-0.073,0.996-0.151,2.036-0.19,3.083l3.997,0.15c0.036-0.963,0.108-1.929,0.182-2.939
			L7.342,20.279z"/>
		<path class="st4" d="M7.151,23.363c-0.056,1.494,0.002,2.972,0.061,4.369l3.996-0.169c-0.059-1.409-0.11-2.737-0.061-4.051
			L7.151,23.363z"/>
		<path class="st4" d="M7.213,27.729c0.06,1.466,0.232,2.901,0.404,4.263l3.969-0.5c-0.172-1.365-0.324-2.647-0.376-3.924
			L7.213,27.729z"/>
		<path class="st4" d="M7.617,31.992c0.177,1.403,0.413,2.807,0.695,4.189l3.919-0.8c-0.264-1.29-0.482-2.594-0.646-3.889
			L7.617,31.992z"/>
		<path class="st4" d="M8.314,36.187c0.297,1.426,0.607,2.969,1.054,4.489l3.837-1.129c-0.392-1.332-0.669-2.699-0.976-4.174
			L8.314,36.187z"/>
		<path class="st4" d="M9.367,40.672c0.4,1.371,0.832,2.806,1.375,4.221l3.735-1.431c-0.479-1.249-0.872-2.548-1.27-3.911
			L9.367,40.672z"/>
		<path class="st4" d="M10.741,44.891c0.559,1.463,1.155,2.924,1.824,4.378l3.633-1.673c-0.622-1.349-1.183-2.723-1.721-4.132
			L10.741,44.891z"/>
		<path class="st4" d="M12.564,49.267c0.636,1.384,1.363,2.745,2.152,4.044l3.418-2.077c-0.712-1.172-1.366-2.398-1.936-3.637
			L12.564,49.267z"/>
		<path class="st4" d="M14.717,53.313c0.418,0.688,0.85,1.376,1.313,2.066l3.321-2.23c-0.418-0.622-0.815-1.256-1.217-1.916
			L14.717,53.313z"/>
		<path class="st4" d="M16.024,55.371c0.431,0.648,0.896,1.28,1.306,1.847l3.243-2.341c-0.442-0.612-0.842-1.156-1.218-1.721
			L16.024,55.371z"/>
	</g>
</g>
</svg>
