<?xml version="1.0" encoding="utf-8"?>
<!-- Generator: Adobe Illustrator 24.2.3, SVG Export Plug-In . SVG Version: 6.00 Build 0)  -->
<!DOCTYPE svg PUBLIC "-//W3C//DTD SVG 1.1//EN" "http://www.w3.org/Graphics/SVG/1.1/DTD/svg11.dtd" [
	<!ENTITY ns_extend "http://ns.adobe.com/Extensibility/1.0/">
	<!ENTITY ns_ai "http://ns.adobe.com/AdobeIllustrator/10.0/">
	<!ENTITY ns_graphs "http://ns.adobe.com/Graphs/1.0/">
	<!ENTITY ns_vars "http://ns.adobe.com/Variables/1.0/">
	<!ENTITY ns_imrep "http://ns.adobe.com/ImageReplacement/1.0/">
	<!ENTITY ns_sfw "http://ns.adobe.com/SaveForWeb/1.0/">
	<!ENTITY ns_custom "http://ns.adobe.com/GenericCustomNamespace/1.0/">
	<!ENTITY ns_adobe_xpath "http://ns.adobe.com/XPath/1.0/">
]>
<svg version="1.1" id="Layer_1" xmlns:x="&ns_extend;" xmlns:i="&ns_ai;" xmlns:graph="&ns_graphs;"
	 xmlns="http://www.w3.org/2000/svg" xmlns:xlink="http://www.w3.org/1999/xlink" x="0px" y="0px" width="1280px" height="356px"
	 viewBox="0 0 1280 356" style="enable-background:new 0 0 1280 356;" xml:space="preserve">
<style type="text/css">
	.st0{fill:url(#SVGID_1_);}
</style>
<metadata>
	<sfw  xmlns="&ns_sfw;">
		<slices></slices>
		<sliceSourceBounds  bottomLeftOrigin="true" height="354.8" width="1280" x="0" y="0"></sliceSourceBounds>
	</sfw>
</metadata>
<linearGradient id="SVGID_1_" gradientUnits="userSpaceOnUse" x1="638.0881" y1="-203.0629" x2="643.2126" y2="-486.2911" gradientTransform="matrix(1 0 0 -1 0 -130.1102)">
	<stop  offset="0" style="stop-color:#FFF2F3"/>
	<stop  offset="0.5587" style="stop-color:#F8F8F8;stop-opacity:0"/>
</linearGradient>
<path class="st0" d="M1222.1,37.2c-15,9.3-33.9,9.7-49.3,1l-42.3-23.8c-15.7-8.9-35-8.2-50.1,1.6l-48.1,31.4
	c-13.3,8.7-30.1,10.3-44.8,4.2l-34.2-14.1c-17.5-7.2-37.5-3.5-51.3,9.3l-36,33.5c-12.2,11.4-29.4,15.6-45.5,11.3L570.2,24.1
	c-7.5-2-15.4-2.2-22.9-0.6L273.6,83.4c-13.4,2.9-27.4,0-38.6-8l-46.5-33.5c-13.9-10-32.2-11.9-47.9-5L101,54.5
	c-14.1,6.2-30.3,5.4-43.7-2.4L0,19v337h1280V1.2L1222.1,37.2z"/>
</svg>
