<?xml version="1.0" encoding="utf-8"?>
<!-- Generator: Adobe Illustrator 24.2.3, SVG Export Plug-In . SVG Version: 6.00 Build 0)  -->
<!DOCTYPE svg PUBLIC "-//W3C//DTD SVG 1.1//EN" "http://www.w3.org/Graphics/SVG/1.1/DTD/svg11.dtd" [
	<!ENTITY ns_extend "http://ns.adobe.com/Extensibility/1.0/">
	<!ENTITY ns_ai "http://ns.adobe.com/AdobeIllustrator/10.0/">
	<!ENTITY ns_graphs "http://ns.adobe.com/Graphs/1.0/">
	<!ENTITY ns_vars "http://ns.adobe.com/Variables/1.0/">
	<!ENTITY ns_imrep "http://ns.adobe.com/ImageReplacement/1.0/">
	<!ENTITY ns_sfw "http://ns.adobe.com/SaveForWeb/1.0/">
	<!ENTITY ns_custom "http://ns.adobe.com/GenericCustomNamespace/1.0/">
	<!ENTITY ns_adobe_xpath "http://ns.adobe.com/XPath/1.0/">
]>
<svg version="1.1" id="Layer_1" xmlns:x="&ns_extend;" xmlns:i="&ns_ai;" xmlns:graph="&ns_graphs;"
	 xmlns="http://www.w3.org/2000/svg" xmlns:xlink="http://www.w3.org/1999/xlink" x="0px" y="0px" width="253.4px" height="246.5px"
	 viewBox="0 0 253.4 246.5" style="enable-background:new 0 0 253.4 246.5;" xml:space="preserve">
<style type="text/css">
	.st0{opacity:0.1;enable-background:new    ;}
	.st1{fill:#FFFFFF;}
	.st2{opacity:0.1;fill:none;stroke:#000000;stroke-miterlimit:10;enable-background:new    ;}
	.st3{opacity:0.1;fill:none;stroke:#000000;stroke-width:1;stroke-miterlimit:9.9999;enable-background:new    ;}
	.st4{opacity:0.1;fill:none;stroke:#000000;stroke-width:1;stroke-miterlimit:10.0003;enable-background:new    ;}
	.st5{fill:#7371FC;}
	.st6{opacity:0.5;}
	.st7{fill:#FFBB5C;}
	.st8{opacity:0.56;fill:#FF9B50;enable-background:new    ;}
	.st9{fill:none;stroke:#EEEEFF;stroke-miterlimit:10;}
	.st10{fill:#F9AE69;}
	.st11{fill:#E20613;}
	.st12{fill:#4C4C4C;}
	.st13{fill:#EF391E;}
	.st14{fill:#000119;}
	.st15{fill:#EEEEFF;}
	.st16{opacity:0.3;fill:#914A4A;enable-background:new    ;}
	.st17{fill:#E25E3E;}
	.st18{fill:#FF9B50;}
	.st19{fill:#91C4FB;}
	.st20{fill:#BDDCFD;}
	.st21{fill:none;stroke:#2C4049;stroke-width:1.12;stroke-miterlimit:10;}
	.st22{fill:none;stroke:#FEFEE3;stroke-width:1.12;stroke-miterlimit:10;}
	.st23{fill:#32338C;}
	.st24{fill:none;stroke:#32338C;stroke-width:0.9839;stroke-linecap:round;stroke-linejoin:round;stroke-miterlimit:10;}
	.st25{opacity:0.1;}
	.st26{fill:none;stroke:#E20613;stroke-miterlimit:10;}
	.st27{fill:none;stroke:#7371FC;stroke-width:1;stroke-miterlimit:10.0002;}
	.st28{fill:none;stroke:#7371FC;stroke-miterlimit:10;}
	.st29{fill:none;stroke:#000000;stroke-width:1;stroke-miterlimit:10.0002;}
	.st30{fill:none;stroke:#FFBB5C;stroke-width:1;stroke-miterlimit:10.0002;}
	.st31{fill:none;stroke:#E25E3E;stroke-miterlimit:10;}
	.st32{fill:none;stroke:#FF9B50;stroke-miterlimit:10;}
	.st33{opacity:0.5;fill:#FF9B50;enable-background:new    ;}
</style>
<metadata>
	<sfw  xmlns="&ns_sfw;">
		<slices></slices>
		<sliceSourceBounds  bottomLeftOrigin="true" height="226.9" width="228" x="64.7" y="60"></sliceSourceBounds>
	</sfw>
</metadata>
<g id="BACKGROUND">
</g>
<g id="OBJECTS">
	<g>
		<rect x="129.7" y="22.3" class="st0" width="54.1" height="62.4"/>
		<rect x="133.8" y="27" class="st1" width="45.9" height="52.9"/>
		<path class="st2" d="M139.9,36.4h33.4c1.5,0,2.7-1.2,2.7-2.7l0,0c0-1.5-1.2-2.7-2.7-2.7h-33.4c-1.5,0-2.7,1.2-2.7,2.7l0,0
			C137.1,35.2,138.4,36.4,139.9,36.4z"/>
		<path class="st2" d="M139.9,44.2h33.4c1.5,0,2.7-1.2,2.7-2.7l0,0c0-1.5-1.2-2.7-2.7-2.7h-33.4c-1.5,0-2.7,1.2-2.7,2.7l0,0
			C137.1,43,138.4,44.2,139.9,44.2z"/>
		<path class="st2" d="M139.9,52.2h33.4c1.5,0,2.7-1.2,2.7-2.7l0,0c0-1.5-1.2-2.7-2.7-2.7h-33.4c-1.5,0-2.7,1.2-2.7,2.7l0,0
			C137.1,50.9,138.4,52.2,139.9,52.2z"/>
		<path class="st2" d="M139.9,60h33.4c1.5,0,2.7-1.2,2.7-2.7l0,0c0-1.5-1.2-2.7-2.7-2.7h-33.4c-1.5,0-2.7,1.2-2.7,2.7l0,0
			C137.1,58.9,138.4,60,139.9,60z"/>
		<path class="st2" d="M139.9,67.9h33.4c1.5,0,2.7-1.2,2.7-2.7l0,0c0-1.5-1.2-2.7-2.7-2.7h-33.4c-1.5,0-2.7,1.2-2.7,2.7l0,0
			C137.1,66.7,138.4,67.9,139.9,67.9z"/>
		<path class="st2" d="M139.9,75.8h33.4c1.5,0,2.7-1.2,2.7-2.7l0,0c0-1.5-1.2-2.7-2.7-2.7h-33.4c-1.5,0-2.7,1.2-2.7,2.7l0,0
			C137.1,74.6,138.4,75.8,139.9,75.8z"/>
		<rect x="13" y="9.9" class="st0" width="80.8" height="85.9"/>
		<rect x="13" y="9.9" class="st1" width="76.7" height="81.2"/>
		<rect x="200.3" y="59.4" class="st0" width="39.3" height="45.3"/>
		<rect x="203.3" y="62.8" class="st1" width="33.4" height="38.4"/>
		<polyline class="st2" points="236.6,101.3 225.7,71 217.6,101.3 209.4,76.5 203.2,101.3 		"/>
		<ellipse class="st3" cx="39.8" cy="41.6" rx="20.5" ry="20.5"/>
		<ellipse class="st4" cx="64.2" cy="41.6" rx="20.5" ry="20.5"/>
		<circle class="st2" cx="51.5" cy="63.5" r="20.5"/>
		<rect x="61.6" y="217.9" class="st0" width="13.3" height="5.8"/>
		<rect x="47.3" y="217.9" class="st0" width="13.3" height="5.8"/>
		<rect x="54.5" y="224.7" class="st0" width="13.3" height="5.8"/>
		<rect x="40.6" y="211.6" class="st0" width="13.3" height="5.8"/>
		<rect x="203.3" y="178.3" class="st5" width="13.3" height="5.8"/>
		<rect x="196.3" y="185.1" class="st5" width="13.3" height="5.8"/>
		<g class="st6">
			<rect x="202" y="16.6" class="st0" width="13.3" height="5.8"/>
			<rect x="195.3" y="10.2" class="st0" width="13.3" height="5.8"/>
			<rect x="71.6" y="175.1" class="st0" width="13.3" height="5.8"/>
			<rect x="64.9" y="168.7" class="st0" width="13.3" height="5.8"/>
			<rect x="110.5" y="16.3" class="st0" width="13.3" height="5.8"/>
			<rect x="124.9" y="16.3" class="st0" width="13.3" height="5.8"/>
			<rect x="117.6" y="23.1" class="st0" width="13.3" height="5.8"/>
			<rect x="131.6" y="9.9" class="st0" width="13.3" height="5.8"/>
			<rect x="205.3" y="44.9" class="st0" width="13.3" height="5.8"/>
			<rect x="219.7" y="44.9" class="st0" width="13.3" height="5.8"/>
			<rect x="212.4" y="51.8" class="st0" width="13.3" height="5.8"/>
			<rect x="226.3" y="38.5" class="st0" width="13.3" height="5.8"/>
			<rect x="215.3" y="156.4" class="st0" width="13.3" height="5.8"/>
			<rect x="208.6" y="150.1" class="st0" width="13.3" height="5.8"/>
			<rect x="20.1" y="120.1" class="st0" width="13.3" height="5.8"/>
			<rect x="34.4" y="120.1" class="st0" width="13.3" height="5.8"/>
			<rect x="27.1" y="127" class="st0" width="13.3" height="5.8"/>
			<rect x="41" y="113.7" class="st0" width="13.3" height="5.8"/>
			<rect x="189" y="178.3" class="st0" width="13.3" height="5.8"/>
			<rect x="182.3" y="171.9" class="st0" width="13.3" height="5.8"/>
		</g>
		<path class="st7" d="M140.5,114.5H112c-19.3,0-34.9,15.6-34.9,34.9l0,0c0,19.3,15.6,34.9,34.9,34.9h28.6
			c19.3,0,34.9-15.6,34.9-34.9l0,0C175.4,130.1,159.8,114.5,140.5,114.5z"/>
		<path class="st8" d="M67.8,236.6h116.7l-4.2-5.5c-3.1-4-7.7-6.3-12.7-6.3H84.9c-5,0-9.8,2.3-12.7,6.3L67.8,236.6z"/>
		<line class="st9" x1="71.2" y1="224.8" x2="178.4" y2="224.8"/>
		<path d="M96.2,196.6c6.8-6.8,53.2-7.8,61.6,0c14.1,13.2,12.5,40,12.5,40h-88C82.3,236.6,81.8,210.8,96.2,196.6z"/>
		<path class="st9" d="M127.9,236.6c3-7.8,5.2-15.9,6.3-24.2"/>
		<path d="M147.4,84.9c0.8,2,2.4,3.6,3.6,5.4c0.8-0.3,1.6-0.7,2.3-1c-0.4-1.6-0.8-3.2-1.3-4.8c1.1,1.3,2.2,2.6,3.3,3.8
			c6.8-3.5,10.5-7,10.5-7s-7.3-13.9-11.8-28.3c-4.4-14.4-12.4-24.1-27.9-23.7c-17.2,0.3-23,13-26.7,25.8S87.1,81.2,87.1,81.2
			s5.5,4.2,14.5,8c1.5-1.9,2.9-3.8,4.3-5.8c-0.6,2.3-1.1,4.5-1.6,6.8c0.5,0.2,1,0.4,1.6,0.6c0.6-1.5,1.3-3,1.9-4.5
			c0,1.7,0,3.4,0,5.1c5.9,1.9,12.8,3.3,20.4,3.3c7.9,0,14.8-1.5,20.4-3.6C148.1,89.1,147.8,87,147.4,84.9z"/>
		<path class="st10" d="M150,60.7c0,12.6-10.2,31-22.8,31s-22.8-18.4-22.8-31s10.2-22.8,22.7-22.8S150,48.1,150,60.7z"/>
		<path d="M101.8,74.4c4.5-6.2,6.5-14.2,5.4-21.8c8.1-0.1,15.7-5,19.6-12.2c3.8,6.5,11.4,10.7,18.9,10.6c-0.4,3.8-0.4,7.5,0.6,11.1
			c1,3.7,3.1,7.2,6.2,9.5c2.3-3.9,3.3-8.8,2.8-13.2c-0.5-4.5-2.1-8.7-4.3-12.7c-1.5-2.7-3.3-5.4-5.7-7.3c-3.9-3.2-9-4.5-14-5.1
			c-3.5-0.3-7.1-0.4-10.5,0.6c-7.4,2.1-12.7,8.6-15.9,15.5c-1.2,2.7-2.2,5.6-2.6,8.6c-0.5,3.8-0.2,7.5,0.2,11.3
			C102.8,71.2,102.5,72.9,101.8,74.4z"/>
		<path class="st10" d="M127,99.5c2.5,0,5-0.4,7.3-1.5c1-0.5,2-1,2.8-1.7c-1.4-2.9-1.4-10.5-1.4-10.5h-8.6h-0.3h-8.5
			c0,0,0,8.6-1.7,11c1,0.7,2.2,1.2,3.3,1.6C122.2,99,124.6,99.4,127,99.5z"/>
		<path class="st11" d="M159.7,117.4c-1.1-5.5,1.9-14.1,1.9-14.1s-21.8-4.5-23.9-6.1c-0.3-0.2-0.5-0.5-0.7-0.9
			c-0.9,0.6-1.8,1.3-2.8,1.7c-2.2,1-4.8,1.5-7.3,1.5c-2.4,0-4.7-0.4-7-1.2c-1.2-0.4-2.3-0.9-3.3-1.6c-0.1,0.2-0.3,0.3-0.4,0.4
			c-2.1,1.6-23.9,6.1-23.9,6.1s3.1,8.6,1.9,14.1c-1.1,5.5-7.4,11.3-4.5,21.6c2.9,10.2,6.4,57.7,6.4,57.7s13.5,2.2,30.6,2.2
			s30.9-2.2,30.9-2.2s3.5-47.4,6.4-57.7C167.1,128.6,160.8,122.9,159.7,117.4z"/>
		<path class="st10" d="M182.1,120.7c-0.8-0.8-11.2-14.2-20.5-17.5c0,0-2.2,5.1-2.4,11.6c-0.1,4.2,2.2,6.5,3.2,9.2
			c1.5,4,2.2,6.5,2.2,6.5l6.1,4.2l-33.8,2.5l-2.8-12.6c0,0,0-4.9-1.2-12c-1.2-7-6.8-11.2-6.8-11.2s0,15.7,0,24.3
			c0,3.8,0.8,7.9,1.8,11.2c1.3,4.5,4.9,7.9,9.4,9.1c6.2,1.6,16.3,1.8,29.3,1.9c22.4,0.1,29.8-7.3,29.8-7.3S193.5,132.8,182.1,120.7z
			"/>
		<g>
			<path class="st12" d="M126.1,106c1,1.3,1.7,2.8,2.2,4.4c0.4,1.6,0.6,3.2,0.8,4.9c0.3,3.3,0.3,6.5,0.1,9.8
				c-0.4-3.2-0.6-6.5-0.9-9.7c-0.1-1.6-0.3-3.2-0.6-4.8C127.3,109,126.9,107.5,126.1,106z"/>
		</g>
		<g>
			<path class="st12" d="M126.2,103.4c1.3,1.2,2.4,2.7,3,4.4c0.7,1.7,1.1,3.4,1.5,5.2c0.7,3.5,1,7,1.2,10.5c-0.8-3.5-1.3-7-2-10.4
				c-0.3-1.7-0.7-3.4-1.2-5.1C128,106.4,127.3,104.8,126.2,103.4z"/>
		</g>
		<g>
			<path class="st12" d="M166.9,134.9c3.5-0.8,7-1.2,10.6-1.5c1.8-0.1,3.6,0,5.4,0.3c1.7,0.3,3.5,0.8,5.2,1.5
				c-1.7-0.3-3.5-0.6-5.2-0.8s-3.5-0.3-5.2-0.1C174,134.6,170.5,134.8,166.9,134.9z"/>
		</g>
		<path class="st10" d="M70.4,120.7c0.8-0.8,12.7-14.2,21.9-17.5c0,0,2.3,5.3,2.4,11.8c0.1,4.2-2.2,6.5-3.2,9.2
			c-1.5,4-2.2,6.5-2.2,6.5l-7.6,4l33.8,2.5l2.8-12.6c0,0,0-4.9,1.2-12c1.2-7,6.8-11.2,6.8-11.2s0,15.7,0,24.3
			c0,3.8-0.8,7.9-1.8,11.2c-1.3,4.5-4.9,7.9-9.4,9.1c-6.2,1.6-16.3,1.8-29.3,1.9C63.4,148,56,140.6,56,140.6S59.1,132.8,70.4,120.7z
			"/>
		<g>
			<path class="st11" d="M182.1,120.7c-0.8-0.8-11.2-14.2-20.5-17.5c0,0-2.2,5.1-2.4,11.6c-0.1,4.2,2.2,6.5,3.2,9.2
				c1.5,4,2.2,6.5,2.2,6.5l3,2.1l17.1-8.8C184,122.7,183.1,121.7,182.1,120.7z"/>
			<path class="st11" d="M89.4,130.7c0,0,0.7-2.4,2.2-6.5c1-2.7,3.3-5,3.2-9.2c-0.1-6.5-2.4-11.8-2.4-11.8
				c-9.3,3.2-21.1,16.6-21.9,17.5c-0.8,0.8-1.5,1.7-2.3,2.5l16.9,9.8L89.4,130.7z"/>
		</g>
		<g>
			<path class="st12" d="M126.5,106c-0.8,1.5-1.2,3-1.5,4.5c-0.3,1.6-0.4,3.2-0.6,4.8c-0.3,3.2-0.6,6.4-0.9,9.7
				c-0.3-3.3-0.2-6.5,0.1-9.8c0.1-1.6,0.3-3.3,0.8-4.9C124.7,108.9,125.4,107.3,126.5,106z"/>
		</g>
		<g>
			<path class="st12" d="M126.3,103.4c-1.1,1.4-1.8,3-2.4,4.7c-0.6,1.7-0.9,3.3-1.2,5.1c-0.7,3.4-1.3,6.9-2,10.4
				c0.1-3.6,0.5-7,1.2-10.5c0.3-1.7,0.8-3.5,1.5-5.2C124,106.2,125,104.6,126.3,103.4z"/>
		</g>
		<g>
			<path class="st12" d="M85.7,134.9c-3.6-0.1-7.1-0.3-10.7-0.6c-1.7-0.1-3.5-0.1-5.2,0.1s-3.5,0.5-5.2,0.8c1.7-0.7,3.4-1.2,5.2-1.5
				c1.7-0.3,3.6-0.5,5.4-0.3C78.6,133.7,82.2,134.2,85.7,134.9z"/>
		</g>
		<g>
			<path class="st12" d="M126.3,101.3c0.1,1.1,0.1,2.3,0.2,3.4l0.1,3.4c0.1,2.3,0.1,4.6,0.1,6.9c0,2.3,0,4.6-0.1,6.9l-0.1,3.4
				c-0.1,1.1-0.1,2.3-0.2,3.4c-0.1-1.1-0.1-2.3-0.2-3.4L126,122c-0.1-2.3-0.1-4.6-0.1-6.9s0-4.6,0.1-6.9l0.1-3.4
				C126.1,103.6,126.2,102.5,126.3,101.3z"/>
		</g>
		<g>
			<path class="st12" d="M115.5,86.3c1.7,1.5,3.6,2.6,5.5,3.6c1,0.4,2,0.8,3.1,1c1,0.3,2.1,0.3,3.2,0.3c2.2-0.1,4.2-0.7,6.2-1.6
				c2-1,3.8-2.2,5.5-3.6c-1.5,1.7-3.3,3.1-5.2,4.2c-1,0.6-2,1-3.1,1.3c-1.1,0.3-2.2,0.5-3.3,0.6c-2.3,0.1-4.6-0.6-6.5-1.6
				C118.7,89.4,116.9,88,115.5,86.3z"/>
		</g>
		<g>
			<path class="st12" d="M127.7,60c0.3,1.9,0.4,3.7,0.9,5.4c0.3,0.8,0.6,1.7,1,2.4c0.4,0.8,1,1.5,1.7,2l0.3,0.2l-0.2,0.3
				c-1,1.3-2.4,2.2-3.8,2.7c1.3-0.9,2.4-2,3.3-3.2l0.1,0.5c-0.8-0.6-1.5-1.3-2-2.2c-0.5-0.8-0.8-1.7-1.1-2.6
				C127.5,63.7,127.5,61.8,127.7,60z"/>
		</g>
		<path class="st12" d="M134.1,75.2c0,0-2.5,1.5-6.5,1.5s-6.3-1.5-6.5-1.5c0,0,1.3,2.2,3.2,3.6c2.2-0.6,4.6-0.6,6.8-0.1
			C133,77.2,134.1,75.2,134.1,75.2z"/>
		<path class="st13" d="M124.3,78.7c1,0.7,2.1,1.2,3.3,1.2c1.3,0,2.5-0.6,3.5-1.3C128.9,78.1,126.5,78.1,124.3,78.7z"/>
		<g>
			<path class="st12" d="M115.1,61.4c0.5,0.8,1,1.6,1.7,2.3c0.6,0.6,1.4,1.1,2.2,1.1c0.8,0,1.5-0.5,2.2-1.1c0.6-0.6,1.1-1.5,1.6-2.3
				c-0.1,1-0.6,1.9-1.1,2.7c-0.3,0.4-0.6,0.8-1.1,1.1c-0.5,0.3-1,0.5-1.5,0.5c-0.6,0-1.1-0.2-1.5-0.5c-0.4-0.3-0.8-0.7-1.1-1
				C115.7,63.2,115.3,62.3,115.1,61.4z"/>
		</g>
		<g>
			<path class="st12" d="M133.2,61.4c0.5,0.8,1,1.6,1.7,2.3c0.6,0.6,1.4,1.1,2.2,1.1s1.5-0.5,2.2-1.1c0.6-0.6,1.1-1.5,1.6-2.3
				c-0.1,1-0.6,1.9-1.1,2.7c-0.3,0.4-0.6,0.8-1.1,1.1c-0.5,0.3-1,0.5-1.5,0.5s-1.1-0.2-1.5-0.5s-0.8-0.7-1.1-1
				C133.8,63.2,133.4,62.3,133.2,61.4z"/>
		</g>
		<g>
			<path class="st14" d="M110.9,59c0.5-1.2,1.3-2.2,2.2-3.2c0.9-1,2-1.7,3.2-2.4c0.6-0.3,1.2-0.6,1.9-0.8c0.6-0.2,1.3-0.3,2-0.3
				c0.7,0,1.4,0.1,2,0.3s1.3,0.5,1.8,0.9l-0.1,0.2c-0.7,0.1-1.3,0.3-1.9,0.4l-1.7,0.3c-0.6,0.1-1.1,0.2-1.7,0.3
				c-0.6,0.1-1.1,0.1-1.7,0.3c-1.1,0.3-2.2,0.9-3.1,1.6c-1,0.7-1.9,1.5-2.6,2.5L110.9,59z"/>
		</g>
		<g>
			<path class="st14" d="M143.2,59.1c-0.8-1-1.7-1.8-2.6-2.5c-1-0.7-2-1.2-3.1-1.6c-0.6-0.2-1.1-0.3-1.7-0.3
				c-0.6-0.1-1.1-0.1-1.7-0.3l-1.7-0.3c-0.6-0.1-1.2-0.2-1.9-0.4l-0.1-0.2c0.6-0.4,1.2-0.8,1.8-0.9c0.6-0.2,1.3-0.3,2-0.3
				c0.7,0,1.4,0.1,2,0.3s1.3,0.6,1.9,0.8c1.2,0.6,2.3,1.4,3.2,2.4c0.9,1,1.6,2,2.2,3.2L143.2,59.1z"/>
		</g>
		<g>
			<path class="st15" d="M102.2,47.6c2.6-0.3,5.2-1,7.6-2.1c2.4-1,4.7-2.4,6.8-4c2.1-1.7,3.8-3.6,5.4-5.8s2.8-4.5,3.6-7
				c-0.8,2.5-2,4.9-3.4,7.2c-1.5,2.2-3.3,4.2-5.4,5.9c-2.1,1.7-4.4,3.1-6.9,4C107.5,46.8,104.9,47.4,102.2,47.6z"/>
		</g>
		<g>
			<path class="st15" d="M105,41.2c3-0.7,5.9-2.1,8.1-4c1.2-1,2.2-2.1,3.1-3.3s1.7-2.6,2.3-4c-0.5,1.5-1.2,2.9-2.1,4.1
				c-0.9,1.3-2,2.4-3.1,3.4C110.9,39.5,108.1,40.9,105,41.2z"/>
		</g>
		<g>
			<path class="st15" d="M128.4,28.8c0.8,2.5,1.9,4.9,3.4,7c1.5,2.2,3.3,4,5.4,5.6c2.1,1.6,4.4,2.8,6.8,3.7c2.4,0.8,5,1.3,7.7,1.4
				c-2.6,0.1-5.2-0.3-7.7-1.1c-2.5-0.8-4.9-2.1-7-3.6c-2.1-1.6-3.9-3.6-5.4-5.8C130.2,33.8,129.1,31.3,128.4,28.8z"/>
		</g>
		<g>
			<path class="st15" d="M134.7,30c1.2,2.7,3.1,5.2,5.5,6.8c1.2,0.8,2.6,1.5,4,2c1.4,0.4,2.9,0.7,4.4,0.8c-1.5,0.1-3-0.1-4.5-0.5
				c-1.5-0.4-2.9-1-4-1.9C137.5,35.3,135.5,32.8,134.7,30z"/>
		</g>
		<g>
			<path class="st15" d="M148.6,51.3c0.3,3,0.8,6,1.4,8.9c0.6,2.9,1.3,5.9,2.3,8.8c0.9,2.9,2,5.7,3.1,8.5s2.5,5.5,4,8.1
				c-1.6-2.6-3-5.2-4.2-8c-1.3-2.8-2.3-5.6-3.3-8.5c-0.9-2.9-1.7-5.9-2.2-8.8C149.2,57.4,148.8,54.3,148.6,51.3z"/>
		</g>
		<g>
			<path class="st15" d="M152.1,84.2c-1.1-1.7-2.1-3.4-2.9-5.2c-0.4-0.9-0.8-1.8-1-2.8c-0.3-1-0.6-1.9-0.8-2.9l1.1,2.8
				c0.3,0.9,0.8,1.8,1.1,2.7c0.4,0.9,0.8,1.8,1.3,2.7L152.1,84.2z"/>
		</g>
		<g>
			<path class="st15" d="M143.3,92.4c-0.3-0.8-0.5-1.5-0.7-2.3c-0.2-0.8-0.4-1.5-0.6-2.3c-0.1-0.8-0.2-1.6-0.3-2.4s-0.1-1.6-0.1-2.4
				c0.3,1.6,0.4,3.1,0.7,4.7C142.6,89.3,143.1,90.8,143.3,92.4z"/>
		</g>
		<g>
			<path class="st15" d="M111.5,92.5c0.2-1.5,0.5-3,0.7-4.5c0.1-0.8,0.2-1.5,0.3-2.2c0.1-0.8,0.2-1.5,0.3-2.2c0,0.8,0,1.5,0,2.3
				c0,0.8-0.1,1.5-0.2,2.3c-0.1,0.8-0.3,1.5-0.4,2.2C111.9,91,111.7,91.8,111.5,92.5z"/>
		</g>
		<g>
			<path class="st15" d="M97.7,87.6c0.8-1.2,1.6-2.4,2.4-3.6c0.8-1.2,1.7-2.3,2.4-3.5c0.8-1.2,1.5-2.4,2.3-3.6l2.2-3.7
				c-0.6,1.3-1.3,2.6-1.9,3.8c-0.7,1.3-1.5,2.5-2.2,3.7c-0.8,1.2-1.7,2.4-2.5,3.5C99.5,85.4,98.6,86.5,97.7,87.6z"/>
		</g>
		<g>
			<path class="st15" d="M106.1,50.4c-0.9,2.9-1.9,5.9-2.9,8.7c-1,2.9-2.2,5.8-3.3,8.6c-1.3,2.8-2.6,5.6-4,8.3
				c-1.5,2.6-3.2,5.2-5.1,7.7c1.7-2.5,3.3-5.2,4.8-7.8c1.5-2.7,2.8-5.4,4-8.3c1.3-2.8,2.3-5.6,3.4-8.5L106.1,50.4z"/>
		</g>
		<path class="st10" d="M105.9,63c-0.9-1.2-2.6-2-4-1.5c-1,0.3-1.8,1.3-2.2,2.3c-1.4,3-0.8,6.8,1.7,9.1c0.7,0.6,1.5,1.1,2.5,1.2
			c1.7,0.1,3.2-1.2,3.7-2.6c0.5-1.3,0.6-3.1,0-4.4C107,65.7,106.8,64.1,105.9,63z"/>
		<path class="st16" d="M105,72.6c-0.6-0.4-1.1-1-1.2-1.7c0-0.1,0-0.3,0-0.3c0.1-0.1,0.1-0.2,0.2-0.3c0.6-0.4,1.2-0.8,1.9-0.8
			c-0.1-1.3-0.1-2.6-0.6-3.7c-0.5-1.1-1.5-2-2.5-1.9c-0.8,0.1-1.6,0.9-1.8,1.9c0,0-0.7,1.9,0.3,4.2C102.2,72.2,105,72.6,105,72.6z"
			/>
		<g>
			<path class="st12" d="M101.1,65.7c0.1-0.8,0.6-1.7,1.4-2.1c0.4-0.2,1-0.1,1.4,0c0.4,0.1,0.8,0.5,1.1,0.8c0.6,0.7,0.9,1.6,1,2.4
				c0.1,0.8,0.2,1.7,0.2,2.5v0.3l-0.3,0.1c-0.3,0.1-0.8,0.2-1.1,0.3c-0.2,0.1-0.3,0.1-0.5,0.3l-0.2,0.1c-0.1,0.1-0.1,0.1-0.1,0.1
				c-0.1,0.1,0,0.3,0,0.5c0.1,0.2,0.1,0.3,0.2,0.6c0.2,0.3,0.4,0.7,0.7,1c-0.3-0.2-0.7-0.5-1-0.8c-0.1-0.1-0.3-0.3-0.3-0.6
				c-0.1-0.2-0.1-0.4-0.1-0.7c0-0.1,0.1-0.3,0.2-0.4c0.1-0.1,0.1-0.1,0.3-0.2c0.1-0.1,0.3-0.3,0.6-0.3c0.3-0.2,0.8-0.4,1.3-0.5
				l-0.3,0.4c-0.1-0.8-0.1-1.6-0.3-2.4c-0.1-0.8-0.4-1.5-0.8-2.1c-0.4-0.6-1.1-1-1.8-0.8C101.9,64.4,101.3,65,101.1,65.7z"/>
		</g>
		<path class="st10" d="M147.5,63c0.9-1.2,2.6-2,4-1.5c1,0.3,1.8,1.3,2.2,2.3c1.4,3,0.8,6.8-1.7,9.1c-0.7,0.6-1.5,1.1-2.5,1.2
			c-1.7,0.1-3.2-1.2-3.7-2.6c-0.5-1.3-0.6-3.1,0-4.4C146.3,65.7,146.6,64.1,147.5,63z"/>
		<path class="st16" d="M148.3,72.6c0.6-0.4,1.1-1,1.2-1.7c0-0.1,0-0.3,0-0.3c-0.1-0.1-0.1-0.2-0.2-0.3c-0.6-0.4-1.2-0.8-1.9-0.8
			c0.1-1.3,0.1-2.6,0.6-3.7c0.5-1.1,1.5-2,2.5-1.9c0.8,0.1,1.6,0.9,1.8,1.9c0,0,0.7,1.9-0.3,4.2C151.1,72.2,148.3,72.6,148.3,72.6z"
			/>
		<g>
			<path class="st12" d="M152.3,65.7c-0.3-0.8-0.9-1.4-1.6-1.6c-0.7-0.1-1.3,0.2-1.8,0.8c-0.4,0.6-0.7,1.3-0.8,2.1
				c-0.1,0.8-0.2,1.6-0.3,2.4l-0.3-0.4c0.4,0.1,0.8,0.3,1.3,0.5c0.2,0.1,0.3,0.2,0.6,0.3c0.1,0.1,0.1,0.1,0.3,0.2
				c0.1,0.1,0.2,0.3,0.2,0.4c0.1,0.3-0.1,0.5-0.1,0.7c-0.1,0.2-0.2,0.4-0.3,0.6c-0.3,0.3-0.6,0.6-1,0.8c0.3-0.3,0.6-0.6,0.7-1
				c0.1-0.2,0.1-0.3,0.2-0.6c0.1-0.2,0.1-0.4,0-0.5c0-0.1-0.1-0.1-0.1-0.1l-0.2-0.1c-0.1-0.1-0.3-0.2-0.5-0.3
				c-0.3-0.1-0.7-0.3-1.1-0.3l-0.3-0.1v-0.3c0-0.8,0.1-1.7,0.2-2.5c0.1-0.8,0.5-1.7,1-2.4c0.3-0.3,0.7-0.6,1.1-0.8
				c0.4-0.1,1-0.2,1.4,0C151.8,64,152.2,64.9,152.3,65.7z"/>
		</g>
		<g>
			<path class="st15" d="M148.1,108.4c-0.1-0.6,0-1,0.2-1.5c0.2-0.5,0.4-0.9,0.8-1.3c0.1,0.6,0,1-0.2,1.5
				C148.8,107.7,148.5,108.1,148.1,108.4z"/>
		</g>
		<g>
			<path class="st15" d="M151.3,108.9c0.1-0.5,0.3-0.8,0.6-1.2c0.3-0.3,0.6-0.6,1.2-0.7c-0.1,0.5-0.3,0.8-0.6,1.2
				S151.9,108.8,151.3,108.9z"/>
		</g>
		<g>
			<path class="st15" d="M153.8,114c0.5-0.1,0.9,0.1,1.3,0.3c0.3,0.2,0.7,0.4,1,0.9c-0.5,0.1-0.9-0.1-1.3-0.3
				C154.4,114.7,154.1,114.5,153.8,114z"/>
		</g>
		<g>
			<path class="st15" d="M155.2,122.6c0.1-0.5,0.3-0.8,0.6-1.2s0.6-0.6,1-0.8c0,0.5-0.2,0.9-0.5,1.3
				C156.1,122.2,155.7,122.4,155.2,122.6z"/>
		</g>
		<g>
			<path class="st15" d="M159.1,127.2c0.1-0.4,0.3-0.6,0.6-0.8c0.2-0.2,0.4-0.3,0.8-0.5c0.1,0.4-0.1,0.8-0.4,1
				C159.9,127.2,159.6,127.3,159.1,127.2z"/>
		</g>
		<g>
			<path class="st15" d="M156,104c0.4-0.1,0.8,0.1,1,0.3c0.3,0.2,0.6,0.4,0.7,0.8c-0.4,0.1-0.8-0.1-1-0.3
				C156.4,104.7,156.1,104.4,156,104z"/>
		</g>
		<g>
			<path class="st15" d="M155.9,110.9c0-0.3,0.1-0.6,0.2-0.8c0.1-0.2,0.3-0.3,0.6-0.5c0.1,0.3,0.1,0.6-0.1,0.9
				C156.5,110.7,156.2,110.9,155.9,110.9z"/>
		</g>
		<g>
			<path class="st15" d="M145.1,101.8c0.4,0.1,0.7,0.3,0.9,0.6c0.2,0.3,0.3,0.6,0.3,1c-0.4-0.1-0.7-0.3-0.9-0.6
				C145.4,102.5,145.2,102.2,145.1,101.8z"/>
		</g>
		<g>
			<path class="st15" d="M139.4,100.2c0.3,0.3,0.3,0.7,0.3,1c0,0.3-0.1,0.7-0.3,1c-0.3-0.3-0.3-0.7-0.3-1
				C139.2,100.9,139.2,100.6,139.4,100.2z"/>
		</g>
		<g>
			<path class="st15" d="M142,105c0.6,0.1,0.9,0.3,1.3,0.6c0.3,0.3,0.7,0.6,0.8,1.1c-0.6-0.1-0.9-0.3-1.3-0.6
				C142.5,105.9,142.2,105.5,142,105z"/>
		</g>
		<g>
			<path class="st15" d="M144.4,111.5c-0.1-0.6,0-1,0.1-1.5s0.3-1,0.8-1.4c0.1,0.6,0,1-0.1,1.5C145,110.6,144.8,111.1,144.4,111.5z"
				/>
		</g>
		<g>
			<path class="st15" d="M146.8,116.2c0.4-0.1,0.7,0.1,0.9,0.3c0.2,0.2,0.4,0.6,0.3,0.9c-0.4-0.1-0.6-0.3-0.8-0.4
				C147.1,116.8,146.9,116.6,146.8,116.2z"/>
		</g>
		<g>
			<path class="st15" d="M149.9,112.1c0.5,0.3,0.7,0.7,0.9,1.1c0.1,0.4,0.2,0.9,0.1,1.4c-0.3-0.4-0.6-0.8-0.7-1.2
				C150,113.1,149.8,112.7,149.9,112.1z"/>
		</g>
		<g>
			<path class="st15" d="M152.7,119.1c0.1,0.5-0.1,0.8-0.2,1.1c-0.1,0.3-0.3,0.6-0.7,0.9c-0.1-0.4-0.1-0.8,0.1-1.2
				C152,119.7,152.2,119.3,152.7,119.1z"/>
		</g>
		<g>
			<path class="st15" d="M154.1,126.8c0.3,0,0.6,0.1,0.8,0.3c0.1,0.2,0.3,0.4,0.3,0.8c-0.3,0-0.6-0.1-0.8-0.3
				C154.1,127.4,154.1,127.1,154.1,126.8z"/>
		</g>
		<g>
			<path class="st15" d="M159.3,132.3c0.1-0.5,0.3-0.9,0.5-1.3c0.3-0.3,0.6-0.6,1-0.8c-0.1,0.5-0.2,0.9-0.5,1.3
				C160,131.8,159.8,132.2,159.3,132.3z"/>
		</g>
		<g>
			<path class="st15" d="M153.7,131.9c0.5,0,0.8,0.1,1.1,0.3c0.3,0.2,0.6,0.5,0.8,0.9c-0.5,0-0.8-0.1-1.1-0.3
				C154.1,132.7,153.9,132.4,153.7,131.9z"/>
		</g>
		<g>
			<path class="st15" d="M150,133.4c-0.2-0.4-0.1-0.8-0.1-1.2c0.1-0.3,0.2-0.8,0.6-1c0.2,0.4,0.1,0.8,0.1,1.2
				C150.5,132.7,150.4,133,150,133.4z"/>
		</g>
		<g>
			<path class="st15" d="M148.8,125.9c0.5,0,0.8,0.1,1.2,0.4c0.3,0.3,0.6,0.6,0.6,1.1c-0.5-0.1-0.8-0.3-1-0.6
				C149.2,126.6,148.9,126.3,148.8,125.9z"/>
		</g>
		<g>
			<path class="st15" d="M148.3,120.8c0,0.5-0.1,0.8-0.3,1.1c-0.2,0.3-0.4,0.6-0.8,0.8c-0.1-0.5,0.1-0.8,0.2-1.2
				C147.7,121.2,147.9,120.9,148.3,120.8z"/>
		</g>
		<g>
			<path class="st15" d="M142.8,118.6c0.5,0.1,0.8,0.3,1.1,0.6c0.3,0.3,0.5,0.6,0.6,1.1c-0.5-0.1-0.8-0.3-1.1-0.6
				C143.1,119.4,142.8,119.1,142.8,118.6z"/>
		</g>
		<g>
			<path class="st15" d="M141.7,115.1c-0.1-0.4,0-0.7,0.1-1c0.1-0.3,0.3-0.5,0.8-0.6c0.1,0.4,0,0.7-0.1,1
				C142.4,114.6,142.1,114.9,141.7,115.1z"/>
		</g>
		<g>
			<path class="st15" d="M138.2,109.6c0.4,0,0.8,0.1,1,0.3c0.3,0.2,0.5,0.5,0.6,0.9c-0.4,0-0.8-0.1-1-0.3
				C138.5,110.3,138.3,110,138.2,109.6z"/>
		</g>
		<g>
			<path class="st15" d="M137.7,104.9c0.1,0.4,0,0.7-0.1,1c-0.1,0.3-0.3,0.5-0.8,0.6c-0.1-0.4,0-0.7,0.1-1
				C137.1,105.3,137.3,105,137.7,104.9z"/>
		</g>
		<g>
			<path class="st15" d="M133,101.5c0.5,0.1,0.8,0.4,1.1,0.7c0.3,0.3,0.6,0.7,0.6,1.2c-0.5-0.1-0.8-0.4-1.1-0.7
				C133.4,102.3,133.1,102,133,101.5z"/>
		</g>
		<g>
			<path class="st15" d="M136.2,98.3c0.4,0.2,0.7,0.6,0.8,0.9c0.1,0.3,0.2,0.8,0,1.3c-0.3-0.3-0.6-0.6-0.7-1
				C136.2,99.1,136.2,98.8,136.2,98.3z"/>
		</g>
		<g>
			<path class="st15" d="M136,112.4c0.2,0.3,0.3,0.6,0.2,0.8c-0.1,0.3-0.1,0.5-0.5,0.7c-0.2-0.3-0.3-0.6-0.2-0.8
				S135.7,112.6,136,112.4z"/>
		</g>
		<g>
			<path class="st15" d="M138.1,116c0.5,0.1,0.8,0.5,1.1,0.8c0.3,0.3,0.5,0.7,0.6,1.3c-0.5-0.1-0.8-0.5-1.1-0.8
				C138.4,116.8,138.1,116.5,138.1,116z"/>
		</g>
		<g>
			<path class="st15" d="M137.4,122.6c-0.1-0.5,0-1,0.1-1.4c0.1-0.4,0.3-0.8,0.8-1.2c0.1,0.5,0,1-0.1,1.4
				C138,121.8,137.8,122.2,137.4,122.6z"/>
		</g>
		<g>
			<path class="st15" d="M140.5,124.5c-0.1-0.4,0.1-0.7,0.2-1c0.1-0.3,0.3-0.5,0.7-0.7c0.1,0.4,0.1,0.7-0.1,1
				C141.1,124.1,140.9,124.4,140.5,124.5z"/>
		</g>
		<g>
			<path class="st15" d="M143.3,129.2c0.5,0,0.8,0.2,1.2,0.4c0.3,0.2,0.6,0.6,0.8,1c-0.5,0-0.8-0.2-1.2-0.4
				C143.7,129.9,143.4,129.6,143.3,129.2z"/>
		</g>
		<g>
			<path class="st15" d="M144.2,125.2c0.5,0.1,0.8,0.6,1,0.9c0.2,0.4,0.3,0.8,0.2,1.4c-0.4-0.3-0.6-0.7-0.8-1
				C144.4,126.1,144.2,125.7,144.2,125.2z"/>
		</g>
		<g>
			<path class="st15" d="M138.9,128c0.1,0.6,0,1-0.1,1.5c-0.1,0.4-0.2,0.9-0.5,1.3c-0.3-0.5-0.3-1-0.2-1.5
				C138.3,128.8,138.5,128.4,138.9,128z"/>
		</g>
		<g>
			<path class="st15" d="M141.4,133.4c0.6-0.2,1-0.1,1.5-0.1c0.5,0.1,1,0.2,1.4,0.6c-0.6,0.2-1,0.1-1.5,0.1
				C142.3,134,141.8,133.9,141.4,133.4z"/>
		</g>
		<g>
			<path class="st15" d="M121,101c0.3,0.4,0.5,0.8,0.6,1.3c0.1,0.4,0.1,0.9-0.1,1.4c-0.3-0.4-0.5-0.8-0.6-1.3
				C120.8,101.9,120.8,101.5,121,101z"/>
		</g>
		<g>
			<path class="st15" d="M117.5,99.8c0.1,0.4,0.1,0.7-0.1,1c-0.1,0.3-0.3,0.5-0.7,0.7c-0.1-0.4-0.1-0.7,0.1-1
				C116.9,100.2,117.1,100,117.5,99.8z"/>
		</g>
		<g>
			<path class="st15" d="M116.9,104.3c0.3,0.2,0.5,0.5,0.6,0.8c0.1,0.3,0.1,0.6-0.1,1c-0.3-0.2-0.5-0.5-0.6-0.8
				C116.7,105,116.7,104.6,116.9,104.3z"/>
		</g>
		<g>
			<path class="st15" d="M113.3,100.9c-0.1,0.6-0.4,1-0.8,1.5s-0.8,0.8-1.3,1c0.1-0.6,0.4-1,0.8-1.5
				C112.3,101.5,112.8,101.1,113.3,100.9z"/>
		</g>
		<g>
			<path class="st15" d="M116.4,110c0.4,0.1,0.7,0.5,0.9,0.8c0.2,0.3,0.3,0.7,0.3,1.2c-0.4-0.1-0.7-0.5-0.9-0.8
				C116.5,110.8,116.3,110.5,116.4,110z"/>
		</g>
		<g>
			<path class="st15" d="M113.7,106.6c0.1,0.5,0,0.9-0.3,1.3c-0.2,0.3-0.6,0.7-1,0.8c0.1-0.5,0.2-0.8,0.4-1.1
				C113,107.1,113.3,106.8,113.7,106.6z"/>
		</g>
		<g>
			<path class="st15" d="M107.5,101.6c0.4,0.1,0.7,0.4,0.8,0.8s0.3,0.7,0.2,1.1c-0.4-0.2-0.6-0.5-0.8-0.8
				C107.5,102.4,107.5,102,107.5,101.6z"/>
		</g>
		<g>
			<path class="st15" d="M109.8,106.6c0.1,0.4,0,0.8-0.1,1.1c-0.1,0.3-0.3,0.6-0.8,0.8c-0.1-0.4-0.1-0.8,0.1-1.1
				C109.1,107.1,109.3,106.8,109.8,106.6z"/>
		</g>
		<g>
			<path class="st15" d="M104.5,104.1c0.5,0.1,0.8,0.3,1,0.8c0.2,0.3,0.3,0.8,0.2,1.3c-0.3-0.3-0.6-0.6-0.8-0.9
				C104.8,104.8,104.7,104.5,104.5,104.1z"/>
		</g>
		<g>
			<path class="st15" d="M100.5,103.8c0.4,0,0.7,0.2,0.9,0.5c0.2,0.3,0.3,0.6,0.1,1c-0.3-0.2-0.6-0.4-0.7-0.6
				C100.6,104.4,100.5,104.2,100.5,103.8z"/>
		</g>
		<g>
			<path class="st15" d="M96.2,103.6c0.1,0.5,0,0.9-0.1,1.3c-0.1,0.4-0.2,0.8-0.5,1.3c-0.3-0.4-0.3-0.9-0.2-1.4
				C95.6,104.4,95.8,103.9,96.2,103.6z"/>
		</g>
		<g>
			<path class="st15" d="M98.5,108.7c0.1-0.4,0.2-0.7,0.4-1c0.2-0.2,0.5-0.4,1-0.4c-0.1,0.4-0.2,0.7-0.4,1
				C99.2,108.5,98.9,108.7,98.5,108.7z"/>
		</g>
		<g>
			<path class="st15" d="M102.9,110c0.5,0.1,0.8,0.3,1,0.6c0.3,0.3,0.5,0.6,0.5,1c-0.5-0.1-0.8-0.3-1-0.6
				C103.1,110.7,102.9,110.5,102.9,110z"/>
		</g>
		<g>
			<path class="st15" d="M107.6,113.4c0-0.5,0.2-0.9,0.4-1.3c0.2-0.3,0.5-0.7,0.9-1c0.1,0.5-0.1,1-0.3,1.3
				C108.4,112.8,108.1,113.2,107.6,113.4z"/>
		</g>
		<g>
			<path class="st15" d="M112.6,111.8c0.5,0.3,0.7,0.6,1,1c0.2,0.4,0.3,0.8,0.3,1.3c-0.5-0.3-0.7-0.6-1-1
				C112.7,112.7,112.5,112.3,112.6,111.8z"/>
		</g>
		<g>
			<path class="st15" d="M115.8,117.1c0-0.6,0.1-1,0.3-1.4c0.2-0.4,0.3-0.8,0.8-1.2c0.1,0.5,0.1,1-0.1,1.5
				C116.6,116.5,116.3,116.8,115.8,117.1z"/>
		</g>
		<g>
			<path class="st15" d="M114.3,119.4c0.4,0.1,0.7,0.4,0.9,0.7c0.2,0.3,0.3,0.6,0.3,1.1c-0.4-0.1-0.7-0.4-0.9-0.7
				C114.5,120.1,114.3,119.9,114.3,119.4z"/>
		</g>
		<g>
			<path class="st15" d="M111,116.8c0.1,0.4,0.1,0.8-0.1,1.1c-0.1,0.3-0.3,0.6-0.7,0.9c-0.1-0.4-0.1-0.8,0.1-1.1
				C110.5,117.4,110.6,117.1,111,116.8z"/>
		</g>
		<g>
			<path class="st15" d="M105.4,115.2c0.4,0.1,0.6,0.4,0.8,0.7c0.1,0.3,0.3,0.6,0.2,1c-0.4-0.1-0.6-0.4-0.8-0.7
				C105.5,116,105.4,115.6,105.4,115.2z"/>
		</g>
		<g>
			<path class="st15" d="M101.3,114.2c-0.1,0.5-0.2,0.8-0.3,1c-0.2,0.3-0.4,0.6-0.8,0.8c-0.1-0.4,0-0.8,0.1-1.2
				C100.6,114.6,100.9,114.3,101.3,114.2z"/>
		</g>
		<g>
			<path class="st15" d="M96.9,110.9c0.3,0.2,0.5,0.4,0.6,0.7c0.1,0.3,0.1,0.6-0.1,0.8c-0.3-0.2-0.5-0.4-0.6-0.7
				C96.7,111.4,96.7,111.2,96.9,110.9z"/>
		</g>
		<g>
			<path class="st15" d="M97.2,117.7c0.1,0.4,0.1,0.8,0,1.2c-0.1,0.3-0.3,0.7-0.6,1c-0.1-0.4-0.1-0.8,0-1.2
				C96.7,118.3,96.8,118.1,97.2,117.7z"/>
		</g>
		<g>
			<path class="st15" d="M100.4,119.7c0.4,0.1,0.6,0.3,0.8,0.6c0.1,0.3,0.3,0.6,0.3,1c-0.4-0.1-0.6-0.3-0.8-0.6
				C100.4,120.4,100.3,120,100.4,119.7z"/>
		</g>
		<g>
			<path class="st15" d="M104.1,122.2c0-0.5,0.2-0.8,0.3-1.2c0.2-0.3,0.4-0.7,0.8-1c0.1,0.5,0,0.9-0.2,1.3
				C104.8,121.7,104.5,122,104.1,122.2z"/>
		</g>
		<g>
			<path class="st15" d="M108.4,122.6c0.5,0.1,0.8,0.2,1.1,0.3c0.3,0.2,0.6,0.4,0.8,0.8c-0.4,0.1-0.8,0-1.2-0.2
				C108.7,123.3,108.4,123,108.4,122.6z"/>
		</g>
		<g>
			<path class="st15" d="M112.7,125.7c0-0.4,0.1-0.8,0.3-1.1c0.1-0.3,0.3-0.6,0.8-0.8c0.1,0.4,0,0.8-0.1,1.1
				C113.4,125.3,113.1,125.6,112.7,125.7z"/>
		</g>
		<g>
			<path class="st15" d="M114.8,127.7c0.4,0.1,0.7,0.2,0.9,0.5c0.2,0.2,0.3,0.5,0.3,0.9c-0.4-0.1-0.7-0.2-0.9-0.5
				C115,128.4,114.8,128.2,114.8,127.7z"/>
		</g>
		<g>
			<path class="st15" d="M112.8,130.8c0.1,0.4,0,0.7-0.1,1c-0.1,0.3-0.3,0.5-0.8,0.6c-0.1-0.4,0-0.7,0.1-1
				C112.2,131.2,112.4,130.9,112.8,130.8z"/>
		</g>
		<g>
			<path class="st15" d="M109.1,127.5c0.2,0.3,0.3,0.5,0.2,0.7c-0.1,0.2-0.1,0.4-0.5,0.6c-0.2-0.3-0.3-0.5-0.2-0.7
				C108.7,127.9,108.8,127.7,109.1,127.5z"/>
		</g>
		<g>
			<path class="st15" d="M105.3,124.9c0.4,0.2,0.7,0.5,0.9,0.8c0.2,0.3,0.3,0.7,0.3,1.2c-0.4-0.2-0.7-0.5-0.9-0.8
				C105.4,125.8,105.2,125.4,105.3,124.9z"/>
		</g>
		<g>
			<path class="st15" d="M102,127c-0.1-0.5,0.1-0.8,0.2-1.2c0.2-0.3,0.4-0.6,0.8-0.8c0.1,0.5-0.1,0.8-0.2,1.2
				C102.7,126.5,102.4,126.8,102,127z"/>
		</g>
		<g>
			<path class="st15" d="M98.5,124.3c0.4,0.2,0.6,0.5,0.8,0.8c0.1,0.3,0.2,0.8,0.1,1.2c-0.3-0.3-0.6-0.6-0.7-0.9
				C98.5,125.2,98.4,124.8,98.5,124.3z"/>
		</g>
		<g>
			<path class="st15" d="M93.7,125.6c0-0.5,0.1-0.8,0.3-1.1c0.2-0.3,0.4-0.6,0.8-0.9c0.1,0.5,0,0.8-0.2,1.3
				C94.5,125.2,94.2,125.4,93.7,125.6z"/>
		</g>
		<g>
			<path class="st15" d="M93,129.8c0.4,0.1,0.7,0.3,0.9,0.6c0.2,0.3,0.3,0.6,0.3,1c-0.4-0.1-0.7-0.3-0.9-0.6
				C93.1,130.5,93,130.2,93,129.8z"/>
		</g>
		<g>
			<path class="st15" d="M98.7,129.1c0.2,0.4,0.3,0.7,0.3,1c0,0.3,0.1,0.7-0.1,1.1c-0.3-0.3-0.6-0.6-0.6-1
				C98.3,129.9,98.4,129.5,98.7,129.1z"/>
		</g>
		<g>
			<path class="st15" d="M96,127.2c0.3,0.2,0.5,0.5,0.6,0.7c0.1,0.3,0.1,0.6-0.1,0.9c-0.3-0.2-0.5-0.5-0.6-0.7
				C95.9,127.9,95.9,127.6,96,127.2z"/>
		</g>
		<g>
			<path class="st15" d="M100.6,133.7c0.1-0.5,0.4-0.8,0.7-1.1c0.3-0.3,0.6-0.6,1-0.9c0.1,0.5-0.1,1-0.5,1.3
				C101.5,133.4,101.1,133.7,100.6,133.7z"/>
		</g>
		<g>
			<path class="st15" d="M104.4,129.7c0.3,0,0.6,0.1,0.7,0.3c0.1,0.2,0.3,0.4,0.2,0.8c-0.3,0-0.6-0.1-0.7-0.3S104.3,130,104.4,129.7
				z"/>
		</g>
		<g>
			<path class="st15" d="M107.5,134.1c0-0.4,0.1-0.7,0.3-0.9s0.3-0.4,0.8-0.6c0.1,0.4,0,0.7-0.1,1
				C108.2,133.9,107.9,134.1,107.5,134.1z"/>
		</g>
		<g>
			<path class="st15" d="M112.1,135.1c0.1-0.3,0.3-0.5,0.5-0.7c0.2-0.1,0.4-0.3,0.8-0.3c0.1,0.4-0.1,0.7-0.3,0.9
				C112.8,135.2,112.6,135.3,112.1,135.1z"/>
		</g>
		<g>
			<path class="st15" d="M95.8,150.5c0.6,0.2,0.9,0.6,1.3,1s0.6,0.8,0.8,1.5c-0.6-0.2-0.9-0.6-1.3-1
				C96.2,151.5,95.9,151.1,95.8,150.5z"/>
		</g>
		<g>
			<path class="st15" d="M98.8,155.3c-0.1-0.5,0-0.8,0.2-1.3c0.2-0.3,0.4-0.7,0.8-0.9c0.1,0.5,0,0.8-0.2,1.3
				C99.5,154.8,99.2,155.1,98.8,155.3z"/>
		</g>
		<g>
			<path class="st15" d="M101.3,149.6c0.5,0,0.8,0.3,1,0.6c0.2,0.3,0.4,0.7,0.3,1.2c-0.4-0.2-0.6-0.5-0.8-0.8
				C101.5,150.4,101.3,150,101.3,149.6z"/>
		</g>
		<g>
			<path class="st15" d="M105.9,154.2c-0.2-0.6-0.1-1.1,0-1.6s0.4-1,0.9-1.3c0,0.6-0.1,1-0.3,1.5
				C106.4,153.2,106.3,153.7,105.9,154.2z"/>
		</g>
		<g>
			<path class="st15" d="M109,149.1c0.4,0.1,0.6,0.3,0.8,0.5c0.1,0.2,0.3,0.5,0.2,0.9c-0.4-0.1-0.6-0.3-0.8-0.5
				C109.1,149.7,108.9,149.5,109,149.1z"/>
		</g>
		<g>
			<path class="st15" d="M111.9,153.2c0.2-0.3,0.4-0.6,0.6-0.7c0.2-0.1,0.5-0.3,0.9-0.3c0,0.4-0.2,0.7-0.5,0.9
				C112.7,153.2,112.3,153.4,111.9,153.2z"/>
		</g>
		<g>
			<path class="st15" d="M114.8,149c0.1-0.3,0.3-0.3,0.6-0.4c0.2,0,0.4,0,0.6,0.3c-0.1,0.3-0.3,0.3-0.6,0.4
				C115.3,149.3,115.1,149.2,114.8,149z"/>
		</g>
		<g>
			<path class="st15" d="M119.7,147.4c0.4,0,0.6,0.2,0.9,0.4c0.2,0.2,0.3,0.5,0.3,0.9c-0.4,0-0.6-0.2-0.9-0.4
				C119.9,148.1,119.7,147.9,119.7,147.4z"/>
		</g>
		<g>
			<path class="st15" d="M123.1,144.9c0.3,0.1,0.6,0.3,0.7,0.5c0.1,0.2,0.2,0.5,0.1,0.8c-0.3-0.1-0.6-0.3-0.7-0.5
				C123.1,145.5,123,145.3,123.1,144.9z"/>
		</g>
		<g>
			<path class="st15" d="M125.4,143.1c0.1-0.6,0.3-1,0.6-1.4c0.3-0.4,0.6-0.8,1.1-1c-0.1,0.6-0.3,1-0.6,1.4
				C126.2,142.5,125.9,142.8,125.4,143.1z"/>
		</g>
		<g>
			<path class="st15" d="M126,137.6c0.3,0.1,0.5,0.2,0.6,0.4c0.1,0.2,0.2,0.3,0.2,0.8c-0.3,0.1-0.6-0.1-0.8-0.3
				C126,138.2,125.9,137.9,126,137.6z"/>
		</g>
		<g>
			<path class="st15" d="M128.6,144c0.3,0.5,0.3,1,0.3,1.5c0,0.5,0,1-0.2,1.5c-0.3-0.4-0.4-1-0.5-1.5
				C128.3,145,128.4,144.5,128.6,144z"/>
		</g>
		<g>
			<path class="st15" d="M125,149.6c0.1-0.4,0.3-0.6,0.5-0.8c0.2-0.2,0.5-0.3,0.9-0.3c-0.1,0.4-0.3,0.6-0.5,0.8
				C125.6,149.5,125.4,149.6,125,149.6z"/>
		</g>
		<g>
			<path class="st15" d="M122.4,152.1c0.4,0.1,0.6,0.3,0.8,0.5c0.2,0.2,0.4,0.4,0.6,0.8c-0.4,0.1-0.8-0.1-1-0.3
				C122.6,152.9,122.4,152.5,122.4,152.1z"/>
		</g>
		<g>
			<path class="st15" d="M130.3,150.9c0.4,0.1,0.6,0.3,0.8,0.6s0.3,0.6,0.3,1c-0.4-0.1-0.6-0.3-0.8-0.6
				C130.4,151.6,130.3,151.3,130.3,150.9z"/>
		</g>
		<g>
			<path class="st15" d="M133.1,148.5c0.1-0.3,0.3-0.6,0.5-0.7c0.2-0.1,0.4-0.3,0.8-0.3c0,0.4-0.1,0.6-0.3,0.8
				C133.8,148.5,133.5,148.6,133.1,148.5z"/>
		</g>
		<g>
			<path class="st15" d="M136.4,150.9c0.4,0,0.6,0.1,0.8,0.3c0.2,0.2,0.3,0.4,0.3,0.8c-0.4,0-0.6-0.1-0.8-0.3
				C136.6,151.5,136.4,151.3,136.4,150.9z"/>
		</g>
		<g>
			<path class="st15" d="M139.4,148.5c0.3-0.3,0.5-0.3,0.7-0.4c0.2-0.1,0.5-0.1,0.8,0.1c-0.1,0.3-0.3,0.6-0.6,0.6
				C139.9,148.8,139.6,148.8,139.4,148.5z"/>
		</g>
		<g>
			<path class="st15" d="M142.4,150.4c0.4,0.2,0.7,0.5,1,0.8c0.3,0.3,0.5,0.6,0.6,1.1c-0.5-0.1-0.8-0.3-1.1-0.6
				C142.6,151.2,142.4,150.9,142.4,150.4z"/>
		</g>
		<g>
			<path class="st15" d="M146.5,151.3c0.1-0.4,0.3-0.6,0.5-0.9c0.2-0.2,0.5-0.4,0.9-0.5c0,0.4-0.1,0.8-0.4,1
				C147.2,151.1,146.9,151.3,146.5,151.3z"/>
		</g>
		<g>
			<path class="st15" d="M150.8,149.5c0.4,0.2,0.6,0.6,0.8,0.9c0.1,0.3,0.3,0.8,0.2,1.3c-0.4-0.2-0.6-0.6-0.8-0.9
				S150.7,150,150.8,149.5z"/>
		</g>
		<g>
			<path class="st15" d="M155.5,150.2c-0.1-0.4,0.1-0.6,0.2-0.8c0.2-0.2,0.4-0.3,0.8-0.4c0.1,0.4-0.1,0.6-0.2,0.8
				C156.1,150,155.9,150.2,155.5,150.2z"/>
		</g>
		<g>
			<path class="st15" d="M159.4,149.1c0.3,0.2,0.6,0.5,0.6,0.8c0.1,0.3,0.1,0.6,0,1c-0.3-0.2-0.6-0.5-0.6-0.8
				C159.3,149.8,159.2,149.5,159.4,149.1z"/>
		</g>
		<g>
			<path class="st15" d="M148.1,164.6c-0.1-0.6,0-1,0.2-1.5c0.2-0.5,0.4-0.9,0.8-1.3c0.1,0.6,0,1-0.2,1.5
				C148.8,163.8,148.5,164.2,148.1,164.6z"/>
		</g>
		<g>
			<path class="st15" d="M151.3,165.1c0.1-0.5,0.3-0.8,0.6-1.2c0.3-0.3,0.6-0.6,1.2-0.7c-0.1,0.5-0.3,0.8-0.6,1.2
				S151.9,165,151.3,165.1z"/>
		</g>
		<g>
			<path class="st15" d="M153.8,170.2c0.5-0.1,0.9,0.1,1.3,0.3c0.3,0.2,0.7,0.4,1,0.9c-0.5,0.1-0.9-0.1-1.3-0.3
				C154.4,170.8,154.1,170.6,153.8,170.2z"/>
		</g>
		<g>
			<path class="st15" d="M155.2,178.7c0.1-0.5,0.3-0.8,0.6-1.2s0.6-0.6,1-0.8c0,0.5-0.2,0.9-0.5,1.3
				C156.1,178.3,155.7,178.6,155.2,178.7z"/>
		</g>
		<g>
			<path class="st15" d="M159.1,183.4c0.1-0.4,0.3-0.6,0.6-0.8c0.2-0.2,0.4-0.3,0.8-0.5c0.1,0.4-0.1,0.8-0.4,1
				C159.9,183.3,159.6,183.5,159.1,183.4z"/>
		</g>
		<g>
			<path class="st15" d="M156,160.1c0.4-0.1,0.8,0.1,1,0.3s0.6,0.4,0.7,0.8c-0.4,0.1-0.8-0.1-1-0.3
				C156.4,160.8,156.1,160.6,156,160.1z"/>
		</g>
		<g>
			<path class="st15" d="M155.9,167c0-0.3,0.1-0.6,0.2-0.8c0.1-0.2,0.3-0.3,0.6-0.5c0.1,0.3,0.1,0.6-0.1,0.9
				C156.5,166.9,156.2,167.1,155.9,167z"/>
		</g>
		<g>
			<path class="st15" d="M145.1,157.9c0.4,0.1,0.7,0.3,0.9,0.6c0.2,0.3,0.3,0.6,0.3,1c-0.4-0.1-0.7-0.3-0.9-0.6
				C145.4,158.6,145.2,158.3,145.1,157.9z"/>
		</g>
		<g>
			<path class="st15" d="M139.4,156.4c0.3,0.3,0.3,0.7,0.3,1c0,0.3-0.1,0.7-0.3,1c-0.3-0.3-0.3-0.7-0.3-1
				C139.2,157.1,139.2,156.7,139.4,156.4z"/>
		</g>
		<g>
			<path class="st15" d="M142,161.2c0.6,0.1,0.9,0.3,1.3,0.6c0.3,0.3,0.7,0.6,0.8,1.1c-0.6-0.1-0.9-0.3-1.3-0.6
				C142.5,162,142.2,161.7,142,161.2z"/>
		</g>
		<g>
			<path class="st15" d="M144.4,167.6c-0.1-0.6,0-1,0.1-1.5c0.1-0.5,0.3-1,0.8-1.4c0.1,0.6,0,1-0.1,1.5
				C145,166.8,144.8,167.2,144.4,167.6z"/>
		</g>
		<g>
			<path class="st15" d="M146.8,172.4c0.4-0.1,0.7,0.1,0.9,0.3s0.4,0.6,0.3,0.9c-0.4-0.1-0.6-0.3-0.8-0.4
				C147.1,173,146.9,172.7,146.8,172.4z"/>
		</g>
		<g>
			<path class="st15" d="M149.9,168.3c0.5,0.3,0.7,0.7,0.9,1.1c0.1,0.4,0.2,0.9,0.1,1.4c-0.3-0.4-0.6-0.8-0.7-1.2
				C150,169.2,149.8,168.8,149.9,168.3z"/>
		</g>
		<g>
			<path class="st15" d="M152.7,175.3c0.1,0.5-0.1,0.8-0.2,1.1c-0.1,0.3-0.3,0.6-0.7,0.9c-0.1-0.4-0.1-0.8,0.1-1.2
				C152,175.8,152.2,175.4,152.7,175.3z"/>
		</g>
		<g>
			<path class="st15" d="M154.1,182.9c0.3,0,0.6,0.1,0.8,0.3c0.1,0.2,0.3,0.4,0.3,0.8c-0.3,0-0.6-0.1-0.8-0.3
				C154.1,183.5,154.1,183.2,154.1,182.9z"/>
		</g>
		<g>
			<path class="st15" d="M159.3,188.5c0.1-0.5,0.3-0.9,0.5-1.3c0.3-0.3,0.6-0.6,1-0.8c-0.1,0.5-0.2,0.9-0.5,1.3
				S159.8,188.3,159.3,188.5z"/>
		</g>
		<g>
			<path class="st15" d="M153.7,188.1c0.5,0,0.8,0.1,1.1,0.3c0.3,0.2,0.6,0.5,0.8,0.9c-0.5,0-0.8-0.1-1.1-0.3
				C154.1,188.8,153.9,188.5,153.7,188.1z"/>
		</g>
		<g>
			<path class="st15" d="M150,189.5c-0.2-0.4-0.1-0.8-0.1-1.2c0.1-0.3,0.2-0.8,0.6-1c0.2,0.4,0.1,0.8,0.1,1.2
				C150.5,188.8,150.4,189.2,150,189.5z"/>
		</g>
		<g>
			<path class="st15" d="M148.8,182c0.5,0,0.8,0.1,1.2,0.4c0.3,0.3,0.6,0.6,0.6,1.1c-0.5-0.1-0.8-0.3-1-0.6
				C149.2,182.7,148.9,182.4,148.8,182z"/>
		</g>
		<g>
			<path class="st15" d="M148.3,176.9c0,0.5-0.1,0.8-0.3,1.1c-0.2,0.3-0.4,0.6-0.8,0.8c-0.1-0.5,0.1-0.8,0.2-1.2
				C147.7,177.3,147.9,177,148.3,176.9z"/>
		</g>
		<g>
			<path class="st15" d="M142.8,174.7c0.5,0.1,0.8,0.3,1.1,0.6c0.3,0.3,0.5,0.6,0.6,1.1c-0.5-0.1-0.8-0.3-1.1-0.6
				C143.1,175.6,142.8,175.2,142.8,174.7z"/>
		</g>
		<g>
			<path class="st15" d="M141.7,171.2c-0.1-0.4,0-0.7,0.1-1s0.3-0.5,0.8-0.6c0.1,0.4,0,0.7-0.1,1
				C142.4,170.8,142.1,171.1,141.7,171.2z"/>
		</g>
		<g>
			<path class="st15" d="M138.2,165.8c0.4,0,0.8,0.1,1,0.3c0.3,0.2,0.5,0.5,0.6,0.9c-0.4,0-0.8-0.1-1-0.3
				C138.5,166.5,138.3,166.2,138.2,165.8z"/>
		</g>
		<g>
			<path class="st15" d="M137.7,161c0.1,0.4,0,0.7-0.1,1c-0.1,0.3-0.3,0.5-0.8,0.6c-0.1-0.4,0-0.7,0.1-1
				C137.1,161.4,137.3,161.2,137.7,161z"/>
		</g>
		<g>
			<path class="st15" d="M133,157.6c0.5,0.1,0.8,0.4,1.1,0.7c0.3,0.3,0.6,0.7,0.6,1.2c-0.5-0.1-0.8-0.4-1.1-0.7
				C133.4,158.4,133.1,158.1,133,157.6z"/>
		</g>
		<g>
			<path class="st15" d="M136.2,154.5c0.4,0.2,0.7,0.6,0.8,0.9c0.1,0.3,0.2,0.8,0,1.3c-0.3-0.3-0.6-0.6-0.7-1
				C136.2,155.2,136.2,154.9,136.2,154.5z"/>
		</g>
		<g>
			<path class="st15" d="M136,168.5c0.2,0.3,0.3,0.6,0.2,0.8c-0.1,0.3-0.1,0.5-0.5,0.7c-0.2-0.3-0.3-0.6-0.2-0.8
				C135.6,169,135.7,168.8,136,168.5z"/>
		</g>
		<g>
			<path class="st15" d="M138.1,172.1c0.5,0.1,0.8,0.5,1.1,0.8c0.3,0.3,0.5,0.7,0.6,1.3c-0.5-0.1-0.8-0.5-1.1-0.8
				C138.4,173,138.1,172.6,138.1,172.1z"/>
		</g>
		<g>
			<path class="st15" d="M137.4,178.7c-0.1-0.5,0-1,0.1-1.4c0.1-0.4,0.3-0.8,0.8-1.2c0.1,0.5,0,1-0.1,1.4
				C138,178,137.8,178.4,137.4,178.7z"/>
		</g>
		<g>
			<path class="st15" d="M140.5,180.6c-0.1-0.4,0.1-0.7,0.2-1c0.1-0.3,0.3-0.5,0.7-0.7c0.1,0.4,0.1,0.7-0.1,1
				C141.1,180.2,140.9,180.5,140.5,180.6z"/>
		</g>
		<g>
			<path class="st15" d="M143.3,185.3c0.5,0,0.8,0.2,1.2,0.4c0.3,0.2,0.6,0.6,0.8,1c-0.5,0-0.8-0.2-1.2-0.4
				C143.7,186,143.4,185.8,143.3,185.3z"/>
		</g>
		<g>
			<path class="st15" d="M144.2,181.4c0.5,0.1,0.8,0.6,1,0.9c0.2,0.4,0.3,0.8,0.2,1.4c-0.4-0.3-0.6-0.7-0.8-1
				C144.4,182.3,144.2,181.9,144.2,181.4z"/>
		</g>
		<g>
			<path class="st15" d="M138.9,184.1c0.1,0.6,0,1-0.1,1.5c-0.1,0.4-0.2,0.9-0.5,1.3c-0.3-0.5-0.3-1-0.2-1.5
				C138.3,185,138.5,184.5,138.9,184.1z"/>
		</g>
		<g>
			<path class="st15" d="M131.3,164.6c-0.1-0.6,0-1,0.2-1.5c0.2-0.5,0.4-0.9,0.8-1.3c0.1,0.6,0,1-0.2,1.5
				C132,163.8,131.7,164.2,131.3,164.6z"/>
		</g>
		<g>
			<path class="st15" d="M128.4,157.9c0.4,0.1,0.7,0.3,0.9,0.6c0.2,0.3,0.3,0.6,0.3,1c-0.4-0.1-0.7-0.3-0.9-0.6
				C128.6,158.6,128.4,158.3,128.4,157.9z"/>
		</g>
		<g>
			<path class="st15" d="M122.6,156.4c0.3,0.3,0.3,0.7,0.3,1c0,0.3-0.1,0.7-0.3,1c-0.3-0.3-0.3-0.7-0.3-1
				C122.4,157.1,122.4,156.7,122.6,156.4z"/>
		</g>
		<g>
			<path class="st15" d="M125.2,161.2c0.6,0.1,0.9,0.3,1.3,0.6c0.3,0.3,0.7,0.6,0.8,1.1c-0.6-0.1-0.9-0.3-1.3-0.6
				C125.7,162,125.4,161.7,125.2,161.2z"/>
		</g>
		<g>
			<path class="st15" d="M127.7,167.6c-0.1-0.6,0-1,0.1-1.5c0.1-0.5,0.3-1,0.8-1.4c0.1,0.6,0,1-0.1,1.5
				C128.2,166.8,128,167.2,127.7,167.6z"/>
		</g>
		<g>
			<path class="st15" d="M130,172.4c0.4-0.1,0.7,0.1,0.9,0.3c0.2,0.2,0.4,0.6,0.3,0.9c-0.4-0.1-0.6-0.3-0.8-0.4
				C130.3,173,130.1,172.7,130,172.4z"/>
		</g>
		<g>
			<path class="st15" d="M132,182c0.5,0,0.8,0.1,1.2,0.4c0.3,0.3,0.6,0.6,0.6,1.1c-0.5-0.1-0.8-0.3-1-0.6
				C132.4,182.7,132.1,182.4,132,182z"/>
		</g>
		<g>
			<path class="st15" d="M131.6,176.9c0,0.5-0.1,0.8-0.3,1.1c-0.2,0.3-0.4,0.6-0.8,0.8c-0.1-0.5,0.1-0.8,0.2-1.2
				C130.9,177.3,131.1,177,131.6,176.9z"/>
		</g>
		<g>
			<path class="st15" d="M126,174.7c0.5,0.1,0.8,0.3,1.1,0.6c0.3,0.3,0.5,0.6,0.6,1.1c-0.5-0.1-0.8-0.3-1.1-0.6
				C126.3,175.6,126.1,175.2,126,174.7z"/>
		</g>
		<g>
			<path class="st15" d="M124.9,171.2c-0.1-0.4,0-0.7,0.1-1s0.3-0.5,0.8-0.6c0.1,0.4,0,0.7-0.1,1
				C125.6,170.8,125.4,171.1,124.9,171.2z"/>
		</g>
		<g>
			<path class="st15" d="M121.4,165.8c0.4,0,0.8,0.1,1,0.3c0.3,0.2,0.5,0.5,0.6,0.9c-0.4,0-0.8-0.1-1-0.3
				C121.7,166.5,121.5,166.2,121.4,165.8z"/>
		</g>
		<g>
			<path class="st15" d="M120.9,161c0.1,0.4,0,0.7-0.1,1c-0.1,0.3-0.3,0.5-0.8,0.6c-0.1-0.4,0-0.7,0.1-1
				C120.3,161.4,120.5,161.2,120.9,161z"/>
		</g>
		<g>
			<path class="st15" d="M118.3,179c0.5,0.1,0.8,0.4,1.1,0.7c0.3,0.3,0.6,0.7,0.6,1.2c-0.5-0.1-0.8-0.4-1.1-0.7
				C118.6,179.9,118.3,179.6,118.3,179z"/>
		</g>
		<g>
			<path class="st15" d="M119.4,154.5c0.4,0.2,0.7,0.6,0.8,0.9c0.1,0.3,0.2,0.8,0,1.3c-0.3-0.3-0.6-0.6-0.7-1
				C119.4,155.2,119.4,154.9,119.4,154.5z"/>
		</g>
		<g>
			<path class="st15" d="M119.2,168.5c0.2,0.3,0.3,0.6,0.2,0.8c-0.1,0.3-0.1,0.5-0.5,0.7c-0.2-0.3-0.3-0.6-0.2-0.8
				C118.8,169,119,168.8,119.2,168.5z"/>
		</g>
		<g>
			<path class="st15" d="M121.3,172.1c0.5,0.1,0.8,0.5,1.1,0.8c0.3,0.3,0.5,0.7,0.6,1.3c-0.5-0.1-0.8-0.5-1.1-0.8
				C121.6,173,121.3,172.6,121.3,172.1z"/>
		</g>
		<g>
			<path class="st15" d="M120.6,178.7c-0.1-0.5,0-1,0.1-1.4c0.1-0.4,0.3-0.8,0.8-1.2c0.1,0.5,0,1-0.1,1.4
				C121.3,178,121,178.4,120.6,178.7z"/>
		</g>
		<g>
			<path class="st15" d="M123.7,180.6c-0.1-0.4,0.1-0.7,0.2-1s0.3-0.5,0.7-0.7c0.1,0.4,0.1,0.7-0.1,1
				C124.3,180.2,124.1,180.5,123.7,180.6z"/>
		</g>
		<g>
			<path class="st15" d="M126.5,185.3c0.5,0,0.8,0.2,1.2,0.4c0.3,0.2,0.6,0.6,0.8,1c-0.5,0-0.8-0.2-1.2-0.4
				C126.9,186,126.6,185.8,126.5,185.3z"/>
		</g>
		<g>
			<path class="st15" d="M127.4,181.4c0.5,0.1,0.8,0.6,1,0.9c0.2,0.4,0.3,0.8,0.2,1.4c-0.4-0.3-0.6-0.7-0.8-1
				S127.5,181.9,127.4,181.4z"/>
		</g>
		<g>
			<path class="st15" d="M122.2,184.1c0.1,0.6,0,1-0.1,1.5c-0.1,0.4-0.2,0.9-0.5,1.3c-0.3-0.5-0.3-1-0.2-1.5
				C121.5,185,121.7,184.5,122.2,184.1z"/>
		</g>
		<g>
			<path class="st15" d="M141.4,189.7c0.6-0.2,1-0.1,1.5-0.1c0.5,0.1,1,0.2,1.4,0.6c-0.6,0.2-1,0.1-1.5,0.1
				C142.3,190.1,141.8,190,141.4,189.7z"/>
		</g>
		<g>
			<path class="st15" d="M121,157.1c0.3,0.4,0.5,0.8,0.6,1.3c0.1,0.4,0.1,0.9-0.1,1.4c-0.3-0.4-0.5-0.8-0.6-1.3
				C120.8,158,120.8,157.6,121,157.1z"/>
		</g>
		<g>
			<path class="st15" d="M117.5,156c0.1,0.4,0.1,0.7-0.1,1c-0.1,0.3-0.3,0.5-0.7,0.7c-0.1-0.4-0.1-0.7,0.1-1
				C116.9,156.4,117.1,156.2,117.5,156z"/>
		</g>
		<g>
			<path class="st15" d="M116.9,160.4c0.3,0.2,0.5,0.5,0.6,0.8c0.1,0.3,0.1,0.6-0.1,1c-0.3-0.2-0.5-0.5-0.6-0.8
				C116.7,161.1,116.7,160.8,116.9,160.4z"/>
		</g>
		<g>
			<path class="st15" d="M113.3,157c-0.1,0.6-0.4,1-0.8,1.5c-0.3,0.4-0.8,0.8-1.3,1c0.1-0.6,0.4-1,0.8-1.5
				C112.3,157.6,112.8,157.3,113.3,157z"/>
		</g>
		<g>
			<path class="st15" d="M116.4,166.1c0.4,0.1,0.7,0.5,0.9,0.8c0.2,0.3,0.3,0.7,0.3,1.2c-0.4-0.1-0.7-0.5-0.9-0.8
				C116.5,166.9,116.3,166.6,116.4,166.1z"/>
		</g>
		<g>
			<path class="st15" d="M113.7,162.7c0.1,0.5,0,0.9-0.3,1.3c-0.2,0.3-0.6,0.7-1,0.8c0.1-0.5,0.2-0.8,0.4-1.1
				C113,163.3,113.3,163,113.7,162.7z"/>
		</g>
		<g>
			<path class="st15" d="M107.5,157.8c0.4,0.1,0.7,0.4,0.8,0.8s0.3,0.7,0.2,1.1c-0.4-0.2-0.6-0.5-0.8-0.8
				C107.5,158.5,107.5,158.2,107.5,157.8z"/>
		</g>
		<g>
			<path class="st15" d="M109.8,162.7c0.1,0.4,0,0.8-0.1,1.1c-0.1,0.3-0.3,0.6-0.8,0.8c-0.1-0.4-0.1-0.8,0.1-1.1
				C109.1,163.2,109.3,162.9,109.8,162.7z"/>
		</g>
		<g>
			<path class="st15" d="M104.5,160.2c0.5,0.1,0.8,0.3,1,0.8c0.2,0.3,0.3,0.8,0.2,1.3c-0.3-0.3-0.6-0.6-0.8-0.9
				C104.8,161,104.7,160.6,104.5,160.2z"/>
		</g>
		<g>
			<path class="st15" d="M100.5,159.9c0.4,0,0.7,0.2,0.9,0.5c0.2,0.3,0.3,0.6,0.1,1c-0.3-0.2-0.6-0.4-0.7-0.6
				C100.6,160.5,100.5,160.3,100.5,159.9z"/>
		</g>
		<g>
			<path class="st15" d="M96.2,159.8c0.1,0.5,0,0.9-0.1,1.3c-0.1,0.4-0.2,0.8-0.5,1.3c-0.3-0.4-0.3-0.9-0.2-1.4
				C95.6,160.5,95.8,160.1,96.2,159.8z"/>
		</g>
		<g>
			<path class="st15" d="M98.5,164.9c0.1-0.4,0.2-0.7,0.4-1c0.2-0.2,0.5-0.4,1-0.4c-0.1,0.4-0.2,0.7-0.4,1
				C99.2,164.6,98.9,164.9,98.5,164.9z"/>
		</g>
		<g>
			<path class="st15" d="M102.9,166.1c0.5,0.1,0.8,0.3,1,0.6c0.3,0.3,0.5,0.6,0.5,1c-0.5-0.1-0.8-0.3-1-0.6
				C103.1,166.9,102.9,166.6,102.9,166.1z"/>
		</g>
		<g>
			<path class="st15" d="M107.6,169.6c0-0.5,0.2-0.9,0.4-1.3c0.2-0.3,0.5-0.7,0.9-1c0.1,0.5-0.1,1-0.3,1.3
				C108.4,169,108.1,169.4,107.6,169.6z"/>
		</g>
		<g>
			<path class="st15" d="M112.6,167.9c0.5,0.3,0.7,0.6,1,1c0.2,0.4,0.3,0.8,0.3,1.3c-0.5-0.3-0.7-0.6-1-1
				C112.7,168.8,112.5,168.4,112.6,167.9z"/>
		</g>
		<g>
			<path class="st15" d="M115.8,173.2c0-0.6,0.1-1,0.3-1.4c0.2-0.4,0.3-0.8,0.8-1.2c0.1,0.5,0.1,1-0.1,1.5
				C116.6,172.6,116.3,173,115.8,173.2z"/>
		</g>
		<g>
			<path class="st15" d="M114.3,175.5c0.4,0.1,0.7,0.4,0.9,0.7c0.2,0.3,0.3,0.6,0.3,1.1c-0.4-0.1-0.7-0.4-0.9-0.7
				C114.5,176.3,114.3,176,114.3,175.5z"/>
		</g>
		<g>
			<path class="st15" d="M111,173c0.1,0.4,0.1,0.8-0.1,1.1c-0.1,0.3-0.3,0.6-0.7,0.9c-0.1-0.4-0.1-0.8,0.1-1.1
				C110.5,173.6,110.6,173.2,111,173z"/>
		</g>
		<g>
			<path class="st15" d="M105.4,171.3c0.4,0.1,0.6,0.4,0.8,0.7c0.1,0.3,0.3,0.6,0.2,1c-0.4-0.1-0.6-0.4-0.8-0.7
				C105.5,172.1,105.4,171.8,105.4,171.3z"/>
		</g>
		<g>
			<path class="st15" d="M101.3,170.4c-0.1,0.5-0.2,0.8-0.3,1c-0.2,0.3-0.4,0.6-0.8,0.8c-0.1-0.4,0-0.8,0.1-1.2
				C100.6,170.7,100.9,170.4,101.3,170.4z"/>
		</g>
		<g>
			<path class="st15" d="M96.9,167c0.3,0.2,0.5,0.4,0.6,0.7c0.1,0.3,0.1,0.6-0.1,0.8c-0.3-0.2-0.5-0.4-0.6-0.7
				C96.7,167.6,96.7,167.4,96.9,167z"/>
		</g>
		<g>
			<path class="st15" d="M97.2,173.9c0.1,0.4,0.1,0.8,0,1.2c-0.1,0.3-0.3,0.7-0.6,1c-0.1-0.4-0.1-0.8,0-1.2
				C96.7,174.5,96.8,174.2,97.2,173.9z"/>
		</g>
		<g>
			<path class="st15" d="M100.4,175.8c0.4,0.1,0.6,0.3,0.8,0.6c0.1,0.3,0.3,0.6,0.3,1c-0.4-0.1-0.6-0.3-0.8-0.6
				C100.4,176.5,100.3,176.2,100.4,175.8z"/>
		</g>
		<g>
			<path class="st15" d="M104.1,178.3c0-0.5,0.2-0.8,0.3-1.2c0.2-0.3,0.4-0.7,0.8-1c0.1,0.5,0,0.9-0.2,1.3
				C104.8,177.8,104.5,178.2,104.1,178.3z"/>
		</g>
		<g>
			<path class="st15" d="M108.4,178.7c0.5,0.1,0.8,0.2,1.1,0.3c0.3,0.2,0.6,0.4,0.8,0.8c-0.4,0.1-0.8,0-1.2-0.2
				C108.7,179.4,108.4,179.1,108.4,178.7z"/>
		</g>
		<g>
			<path class="st15" d="M112.7,181.9c0-0.4,0.1-0.8,0.3-1.1c0.1-0.3,0.3-0.6,0.8-0.8c0.1,0.4,0,0.8-0.1,1.1
				C113.4,181.4,113.1,181.7,112.7,181.9z"/>
		</g>
		<g>
			<path class="st15" d="M114.8,183.9c0.4,0.1,0.7,0.2,0.9,0.5c0.2,0.2,0.3,0.5,0.3,0.9c-0.4-0.1-0.7-0.2-0.9-0.5
				C115,184.6,114.8,184.4,114.8,183.9z"/>
		</g>
		<g>
			<path class="st15" d="M112.8,186.9c0.1,0.4,0,0.7-0.1,1c-0.1,0.3-0.3,0.5-0.8,0.6c-0.1-0.4,0-0.7,0.1-1
				C112.2,187.4,112.4,187.1,112.8,186.9z"/>
		</g>
		<g>
			<path class="st15" d="M109.1,183.7c0.2,0.3,0.3,0.5,0.2,0.7c-0.1,0.2-0.1,0.4-0.5,0.6c-0.2-0.3-0.3-0.5-0.2-0.7
				C108.7,184,108.8,183.8,109.1,183.7z"/>
		</g>
		<g>
			<path class="st15" d="M105.3,181.2c0.4,0.2,0.7,0.5,0.9,0.8c0.2,0.3,0.3,0.7,0.3,1.2c-0.4-0.2-0.7-0.5-0.9-0.8
				C105.4,182,105.2,181.6,105.3,181.2z"/>
		</g>
		<g>
			<path class="st15" d="M102,183.2c-0.1-0.5,0.1-0.8,0.2-1.2c0.2-0.3,0.4-0.6,0.8-0.8c0.1,0.5-0.1,0.8-0.2,1.2
				C102.7,182.6,102.4,183,102,183.2z"/>
		</g>
		<g>
			<path class="st15" d="M98.5,180.5c0.4,0.2,0.6,0.5,0.8,0.8c0.1,0.3,0.2,0.8,0.1,1.2c-0.3-0.3-0.6-0.6-0.7-0.9
				C98.5,181.3,98.4,180.9,98.5,180.5z"/>
		</g>
		<g>
			<path class="st15" d="M93.7,181.8c0-0.5,0.1-0.8,0.3-1.1c0.2-0.3,0.4-0.6,0.8-0.9c0.1,0.5,0,0.8-0.2,1.3
				C94.5,181.3,94.2,181.6,93.7,181.8z"/>
		</g>
		<g>
			<path class="st15" d="M93,186c0.4,0.1,0.7,0.3,0.9,0.6c0.2,0.3,0.3,0.6,0.3,1c-0.4-0.1-0.7-0.3-0.9-0.6
				C93.1,186.7,93,186.4,93,186z"/>
		</g>
		<g>
			<path class="st15" d="M98.7,185.3c0.2,0.4,0.3,0.7,0.3,1c0,0.3,0.1,0.7-0.1,1.1c-0.3-0.3-0.6-0.6-0.6-1
				C98.3,186,98.4,185.7,98.7,185.3z"/>
		</g>
		<g>
			<path class="st15" d="M96,183.4c0.3,0.2,0.5,0.5,0.6,0.7c0.1,0.3,0.1,0.6-0.1,0.9c-0.3-0.2-0.5-0.5-0.6-0.7
				C95.9,184.1,95.9,183.7,96,183.4z"/>
		</g>
		<g>
			<path class="st15" d="M100.6,189.9c0.1-0.5,0.4-0.8,0.7-1.1c0.3-0.3,0.6-0.6,1-0.9c0.1,0.5-0.1,1-0.5,1.3
				C101.5,189.5,101.1,189.8,100.6,189.9z"/>
		</g>
		<g>
			<path class="st15" d="M104.4,185.8c0.3,0,0.6,0.1,0.7,0.3c0.1,0.2,0.3,0.4,0.2,0.8c-0.3,0-0.6-0.1-0.7-0.3
				C104.5,186.4,104.3,186.2,104.4,185.8z"/>
		</g>
		<g>
			<path class="st15" d="M107.5,190.3c0-0.4,0.1-0.7,0.3-0.9c0.1-0.2,0.3-0.4,0.8-0.6c0.1,0.4,0,0.7-0.1,1
				C108.2,190,107.9,190.2,107.5,190.3z"/>
		</g>
		<g>
			<path class="st15" d="M112.1,191.3c0.1-0.3,0.3-0.5,0.5-0.7c0.2-0.1,0.4-0.3,0.8-0.3c0.1,0.4-0.1,0.7-0.3,0.9
				C112.8,191.3,112.6,191.5,112.1,191.3z"/>
		</g>
		<g>
			<path class="st15" d="M95.8,194c0.6,0.2,0.9,0.6,1.3,1c0.3,0.4,0.6,0.8,0.8,1.5c-0.6-0.2-0.9-0.6-1.3-1
				C96.2,194.9,95.9,194.5,95.8,194z"/>
		</g>
		<g>
			<path class="st15" d="M101.3,193.1c0.5,0,0.8,0.3,1,0.6c0.2,0.3,0.4,0.7,0.3,1.2c-0.4-0.2-0.6-0.5-0.8-0.8
				C101.5,193.8,101.3,193.5,101.3,193.1z"/>
		</g>
		<g>
			<path class="st15" d="M105.9,197.7c-0.2-0.6-0.1-1.1,0-1.6c0.1-0.5,0.4-1,0.9-1.3c0,0.6-0.1,1-0.3,1.5
				C106.4,196.7,106.3,197.2,105.9,197.7z"/>
		</g>
		<g>
			<path class="st15" d="M109,192.6c0.4,0.1,0.6,0.3,0.8,0.5c0.1,0.2,0.3,0.5,0.2,0.9c-0.4-0.1-0.6-0.3-0.8-0.5
				C109.1,193.2,108.9,192.9,109,192.6z"/>
		</g>
		<g>
			<path class="st15" d="M111.9,196.6c0.2-0.3,0.4-0.6,0.6-0.7c0.2-0.1,0.5-0.3,0.9-0.3c0,0.4-0.2,0.7-0.5,0.9
				C112.7,196.7,112.3,196.8,111.9,196.6z"/>
		</g>
		<g>
			<path class="st15" d="M114.8,192.4c0.1-0.3,0.3-0.3,0.6-0.4c0.2,0,0.4,0,0.6,0.3c-0.1,0.3-0.3,0.3-0.6,0.4
				C115.3,192.7,115.1,192.6,114.8,192.4z"/>
		</g>
		<g>
			<path class="st15" d="M119.7,190.9c0.4,0,0.6,0.2,0.9,0.4c0.2,0.2,0.3,0.5,0.3,0.9c-0.4,0-0.6-0.2-0.9-0.4
				C119.9,191.6,119.7,191.3,119.7,190.9z"/>
		</g>
		<g>
			<path class="st15" d="M123.1,188.4c0.3,0.1,0.6,0.3,0.7,0.5c0.1,0.2,0.2,0.5,0.1,0.8c-0.3-0.1-0.6-0.3-0.7-0.5
				C123.1,189,123,188.7,123.1,188.4z"/>
		</g>
		<g>
			<path class="st15" d="M118.3,176c0.1-0.6,0.3-1,0.6-1.4c0.3-0.4,0.6-0.8,1.1-1c-0.1,0.6-0.3,1-0.6,1.4
				C119.1,175.4,118.8,175.7,118.3,176z"/>
		</g>
		<g>
			<path class="st15" d="M126,181c0.3,0.1,0.5,0.2,0.6,0.4c0.1,0.2,0.2,0.3,0.2,0.8c-0.3,0.1-0.6-0.1-0.8-0.3
				C126,181.6,125.9,181.4,126,181z"/>
		</g>
		<g>
			<path class="st15" d="M128.6,187.5c0.3,0.5,0.3,1,0.3,1.5s0,1-0.2,1.5c-0.3-0.4-0.4-1-0.5-1.5C128.3,188.5,128.4,188,128.6,187.5
				z"/>
		</g>
		<g>
			<path class="st15" d="M125,193.1c0.1-0.4,0.3-0.6,0.5-0.8c0.2-0.2,0.5-0.3,0.9-0.3c-0.1,0.4-0.3,0.6-0.5,0.8
				C125.6,192.9,125.4,193.1,125,193.1z"/>
		</g>
		<g>
			<path class="st15" d="M122.4,195.6c0.4,0.1,0.6,0.3,0.8,0.5c0.2,0.2,0.4,0.4,0.6,0.8c-0.4,0.1-0.8-0.1-1-0.3
				C122.6,196.3,122.4,196,122.4,195.6z"/>
		</g>
		<g>
			<path class="st15" d="M130.3,194.3c0.4,0.1,0.6,0.3,0.8,0.6c0.2,0.3,0.3,0.6,0.3,1c-0.4-0.1-0.6-0.3-0.8-0.6
				C130.4,195.1,130.3,194.7,130.3,194.3z"/>
		</g>
		<g>
			<path class="st15" d="M133.1,191.9c0.1-0.3,0.3-0.6,0.5-0.7c0.2-0.1,0.4-0.3,0.8-0.3c0,0.4-0.1,0.6-0.3,0.8
				C133.8,191.9,133.5,192,133.1,191.9z"/>
		</g>
		<g>
			<path class="st15" d="M136.4,194.3c0.4,0,0.6,0.1,0.8,0.3c0.2,0.2,0.3,0.4,0.3,0.8c-0.4,0-0.6-0.1-0.8-0.3
				C136.6,194.9,136.4,194.7,136.4,194.3z"/>
		</g>
		<g>
			<path class="st15" d="M139.4,191.9c0.3-0.3,0.5-0.3,0.7-0.4s0.5-0.1,0.8,0.1c-0.1,0.3-0.3,0.6-0.6,0.6
				C139.9,192.2,139.6,192.2,139.4,191.9z"/>
		</g>
		<g>
			<path class="st15" d="M142.4,193.8c0.4,0.2,0.7,0.5,1,0.8s0.5,0.6,0.6,1.1c-0.5-0.1-0.8-0.3-1.1-0.6
				C142.6,194.7,142.4,194.3,142.4,193.8z"/>
		</g>
		<g>
			<path class="st15" d="M146.5,194.7c0.1-0.4,0.3-0.6,0.5-0.9c0.2-0.2,0.5-0.4,0.9-0.5c0,0.4-0.1,0.8-0.4,1
				C147.2,194.5,146.9,194.7,146.5,194.7z"/>
		</g>
		<g>
			<path class="st15" d="M150.8,192.9c0.4,0.2,0.6,0.6,0.8,0.9c0.1,0.3,0.3,0.8,0.2,1.3c-0.4-0.2-0.6-0.6-0.8-0.9
				C150.8,193.8,150.7,193.4,150.8,192.9z"/>
		</g>
		<g>
			<path class="st15" d="M155.5,193.7c-0.1-0.4,0.1-0.6,0.2-0.8c0.2-0.2,0.4-0.3,0.8-0.4c0.1,0.4-0.1,0.6-0.2,0.8
				C156.1,193.5,155.9,193.7,155.5,193.7z"/>
		</g>
		<g>
			<path class="st15" d="M159.4,192.6c0.3,0.2,0.6,0.5,0.6,0.8c0.1,0.3,0.1,0.6,0,1c-0.3-0.2-0.6-0.5-0.6-0.8
				C159.3,193.3,159.2,192.9,159.4,192.6z"/>
		</g>
		<path class="st8" d="M79.8,219.2h-9.5c-2.8,0-5-2.2-5-5l0,0c0-2.8,2.2-5,5-5h9.5c2.8,0,5,2.2,5,5l0,0
			C84.8,217,82.6,219.2,79.8,219.2z"/>
		<rect x="72.8" y="219.2" width="4.6" height="17.3"/>
		<path class="st8" d="M184.1,219.2h-9.5c-2.8,0-5-2.2-5-5l0,0c0-2.8,2.2-5,5-5h9.5c2.8,0,5,2.2,5,5l0,0
			C189.1,217,186.9,219.2,184.1,219.2z"/>
		<rect x="177" y="219.2" width="4.6" height="17.3"/>
		<path class="st17" d="M30.2,172.9c0.1-1,0.3-2,0.9-2.9c0.8-1.1,2-1.8,3.3-2.3c1.3-0.5,2.7-0.8,4-0.4c1,0.3,2,1,2.7,1.8
			c2.9,3.2,3.4,7.9,3.6,12.3c0.1,1.7,0.1,3.6-1,4.9c-0.5,0.6-1.3,1.1-2,1.4c-2.9,1.3-7.5,0.6-9.4-2.2
			C29.9,182.3,29.7,176.7,30.2,172.9z"/>
		<path class="st18" d="M56.8,177.8c0.9-4,1.9-7.9,1.8-12c-0.1-4-1.3-8.2-4-11.2c-0.8-0.9-1.9-1.7-3.1-2.1c-2.2-0.7-4.6,0-6.8,1
			c-1.5,0.7-2.9,1.5-3.8,2.8c-0.6,0.8-0.8,1.8-1.1,2.7c-1.9,7.1-1.7,14.7,0.3,21.7c0.3,1.3,0.8,2.5,1.6,3.6c1.2,1.7,3.1,2.8,5.1,3.3
			c2.1,0.6,5.8,0.9,7.5-1c0.8-0.9,0.9-2.2,1.2-3.3C55.9,181.5,56.3,179.6,56.8,177.8z"/>
		<path class="st17" d="M58.1,167.5c-2.1,1.2-3.6,3.3-4.2,5.6c-0.7,2.3-0.6,4.7-0.3,7.1c0.3,1.7,0.7,3.3,1.5,4.7
			c0.8,1.4,2.2,2.6,3.8,3c2.5,0.6,5.1-0.8,6.6-2.9c1.5-2.1,2.1-4.7,2.4-7.2c0.3-1.9,0.4-3.8,0.1-5.6
			C67.1,167.6,62.2,165.2,58.1,167.5z"/>
		<path class="st19" d="M40,184.3h-2.3c-1.3,5.6-1,11.6,0.8,17.1c1,0.3,2.1,0.5,3.3,0.7C39.8,196.4,39.2,190.2,40,184.3z"/>
		<path class="st20" d="M43.2,184.3H40c-0.8,5.9-0.2,12.1,1.8,17.8c0.7,0.1,1.4,0.2,2.2,0.3C42.6,196.4,42.3,190.3,43.2,184.3z"/>
		<path class="st19" d="M45.1,184.3h-2c-0.9,6-0.6,12.1,0.8,18c0.8,0.1,1.5,0.1,2.3,0.1C45.1,196.5,44.8,190.3,45.1,184.3z"/>
		<path class="st20" d="M37.7,184.3h-2c-1.3,5.4-1,11.1,0.7,16.4c0.7,0.3,1.4,0.5,2.2,0.7C36.7,195.9,36.4,189.9,37.7,184.3z"/>
		<path class="st20" d="M33.5,184.3h-2.2c-1,4.5-0.8,9.3,0.5,13.7c0.7,0.6,1.5,1.2,2.5,1.7C32.4,194.9,32,189.4,33.5,184.3z"/>
		<path class="st19" d="M31.3,184.3h-1.8c0,0-3.9,8.4,2.2,13.7C30.4,193.6,30.3,188.8,31.3,184.3z"/>
		<path class="st19" d="M35.7,184.3h-2.2c-1.4,5.1-1.1,10.6,0.8,15.5c0.6,0.3,1.3,0.6,2.1,0.9C34.7,195.4,34.4,189.7,35.7,184.3z"/>
		<path class="st19" d="M50.1,184.3H47c-0.3,6.1,0.1,12.2,1,18.2c0.3,0,0.6,0,0.8,0c0.3,0,0.6,0,0.8,0
			C50.2,196.5,50.3,190.3,50.1,184.3z"/>
		<path class="st20" d="M47,184.3h-1.9c-0.4,6.1,0,12.2,1.1,18.2c0.6,0,1.2,0.1,1.8,0.1C47.1,196.5,46.7,190.3,47,184.3z"/>
		<path class="st19" d="M64.5,184.3h-2.2c1.3,5.4,1,11.1-0.7,16.4c0.8-0.3,1.5-0.6,2.1-1C65.6,194.8,65.9,189.3,64.5,184.3z"/>
		<path class="st20" d="M66.7,184.3h-2.2c1.4,5,1.1,10.5-0.8,15.4c1-0.6,1.9-1.2,2.6-1.8C67.6,193.4,67.7,188.7,66.7,184.3z"/>
		<path class="st20" d="M62.3,184.3h-2c1.3,5.6,1,11.6-0.8,17.1c0.8-0.2,1.5-0.4,2.2-0.7C63.3,195.4,63.6,189.7,62.3,184.3z"/>
		<path class="st19" d="M68,184.3h-1.4c1,4.5,0.8,9.1-0.4,13.5C71.9,192.4,68,184.3,68,184.3z"/>
		<path class="st20" d="M57.9,184.3h-3.1c0.9,6,0.6,12.1-0.8,18c0.8-0.1,1.5-0.1,2.2-0.3C58.2,196.3,58.8,190.2,57.9,184.3z"/>
		<path class="st19" d="M54.8,184.3h-2c0.4,6.1,0,12.2-1.1,18.2c0.8-0.1,1.6-0.1,2.3-0.1C55.4,196.4,55.7,190.3,54.8,184.3z"/>
		<path class="st19" d="M60.3,184.3H58c0.8,5.9,0.2,12-1.8,17.8c1.2-0.2,2.3-0.4,3.3-0.7C61.3,195.8,61.6,189.9,60.3,184.3z"/>
		<path class="st20" d="M52.9,184.3h-2.8c0.3,6.1,0.1,12.2-0.3,18.2c0.6,0,1.3,0,2-0.1C52.9,196.5,53.2,190.3,52.9,184.3z"/>
		<path class="st21" d="M50.3,152.3c0.1-0.7,0.2-1.5,0.4-2.2"/>
		<path class="st21" d="M52.4,153.1c0.1-0.8,0.4-1.5,0.8-2.2"/>
		<path class="st21" d="M54,153.9c0.3-0.5,0.7-1,1-1.5"/>
		<path class="st21" d="M55.4,155.4c0.4-0.3,0.8-0.6,1.3-0.9"/>
		<path class="st21" d="M56.8,157.1c0.6-0.1,1-0.4,1.5-0.8"/>
		<path class="st21" d="M57.7,159.2c0.4-0.1,0.9-0.3,1.3-0.4"/>
		<path class="st21" d="M58.3,161.3c0.5,0,0.9-0.1,1.4-0.1"/>
		<path class="st21" d="M58.6,163.5c0.4,0,0.9,0.1,1.3,0.1"/>
		<path class="st21" d="M59.1,165.4c0.4,0.1,0.8,0.1,1.2,0.1"/>
		<path class="st21" d="M48.1,152.4c-0.1-0.6-0.3-1.2-0.4-1.8"/>
		<path class="st21" d="M45.7,151.8c0.2,0.5,0.3,0.9,0.6,1.4"/>
		<path class="st21" d="M43.9,153.9c-0.3-0.5-0.7-1-1-1.5"/>
		<path class="st21" d="M42.5,155.4c-0.4-0.3-0.8-0.6-1.3-0.9"/>
		<path class="st21" d="M41.2,157.1c-0.6-0.1-1-0.4-1.5-0.8"/>
		<path class="st21" d="M40.1,159.2c-0.4-0.1-0.9-0.3-1.3-0.4"/>
		<path class="st21" d="M39.6,161.3c-0.5,0-0.9-0.1-1.4-0.1"/>
		<path class="st21" d="M39.4,163.5c-0.4,0-0.9,0.1-1.3,0.1"/>
		<path class="st21" d="M38.8,165.4c-0.4,0.1-0.8,0.1-1.2,0.1"/>
		<path class="st21" d="M37.1,168.4c0.6,0.1,1,0.1,1.6,0.2"/>
		<path class="st21" d="M37.3,170.1c0.5,0,1,0.1,1.5,0.1"/>
		<path class="st21" d="M37.5,172.4c0.4,0.1,0.9,0,1.3-0.1"/>
		<path class="st21" d="M37.9,175c0.5-0.1,0.9-0.1,1.4-0.1"/>
		<path class="st21" d="M38.4,177.3c0.4-0.1,0.9-0.1,1.3-0.1"/>
		<path class="st21" d="M39,179.9c0.4-0.1,0.9-0.2,1.3-0.3"/>
		<path class="st21" d="M39.4,182.3c0.5-0.1,1-0.3,1.5-0.4"/>
		<path class="st21" d="M33.8,168c-0.3-0.5-0.6-0.9-0.9-1.4"/>
		<path class="st21" d="M32.2,169.2c-0.3-0.4-0.7-0.8-1-1.3"/>
		<path class="st21" d="M30.8,171c-0.5-0.1-0.9-0.2-1.3-0.4"/>
		<path class="st21" d="M30.5,172.6c-0.6-0.1-1.1-0.1-1.7-0.1"/>
		<path class="st21" d="M30.3,174.5c-0.6,0-1,0-1.6-0.1"/>
		<path class="st21" d="M30.2,176.2c-0.5,0.1-1,0.3-1.5,0.3"/>
		<path class="st21" d="M30.2,178.4c-0.6,0.3-1.1,0.5-1.6,0.8"/>
		<path class="st21" d="M30.6,180.9c-0.4,0.5-1,0.9-1.5,1.2"/>
		<path class="st21" d="M31.1,182.8c-0.3,0.3-0.5,0.6-0.8,1"/>
		<path class="st21" d="M67.6,171.1c0.4-0.3,0.9-0.6,1.5-0.7"/>
		<path class="st21" d="M68,172.9c0.5-0.3,1-0.4,1.6-0.6"/>
		<path class="st21" d="M67.9,175.3c0.5-0.1,1-0.2,1.5-0.2"/>
		<path class="st21" d="M67.8,176.8c0.5-0.1,0.9,0,1.4,0.1"/>
		<path class="st21" d="M67.3,178.9c0.5-0.1,1,0.1,1.4,0.3"/>
		<path class="st21" d="M67.2,180.7c0.5,0.1,1,0.3,1.5,0.4"/>
		<path class="st21" d="M66.7,182.7c0.5,0.2,1,0.3,1.5,0.6"/>
		<path class="st22" d="M48.5,158.6c0.3-0.4,0.7-0.8,0.9-1.3"/>
		<path class="st22" d="M51.1,160.4c0.6-0.2,1.1-0.5,1.7-0.7"/>
		<path class="st22" d="M52.7,163.5c0.5,0.1,1,0.1,1.5,0.2"/>
		<path class="st22" d="M49.1,168.8c0.6,0.3,1.3,0.7,1.9,1"/>
		<path class="st22" d="M45.1,164.4c0.1-0.7,0.1-1.5,0.2-2.2"/>
		<path class="st22" d="M42.2,169.2c0.5,0.2,0.9,0.4,1.4,0.6"/>
		<path class="st22" d="M43.5,174.6c0.5-0.5,1-0.9,1.5-1.4"/>
		<path class="st22" d="M47.8,178c0.5-0.3,0.9-0.8,1.4-1.1"/>
		<path class="st22" d="M42.6,180.5c0.6,0.3,1,0.7,1.6,1"/>
		<path class="st22" d="M43.6,159.1c0.2-0.6,0.6-1.1,0.9-1.6"/>
		<path class="st22" d="M51.1,180.4c0.4,0.3,0.9,0.5,1.3,0.7"/>
		<path class="st22" d="M59.5,172.2c0.1-0.5,0.4-1,0.7-1.4"/>
		<path class="st22" d="M63.5,173.2c0.4-0.2,0.8-0.4,1.3-0.6"/>
		<path class="st22" d="M63.3,176.3c0.5,0.1,1,0.3,1.4,0.6"/>
		<path class="st22" d="M62.1,181.4c0.1-0.5,0.2-1,0.3-1.5"/>
		<path class="st22" d="M58.2,175c0.4,0.2,0.8,0.6,1,1"/>
		<path class="st22" d="M57,179.9c0.4,0.1,0.8,0.1,1.2,0.1"/>
		<path class="st22" d="M34.1,170.7c0.3,0,0.7,0.1,1,0.2"/>
		<path class="st22" d="M32.1,174.8c0.1-0.6,0.2-1.3,0.4-1.8"/>
		<path class="st22" d="M35,175.4c0.4,0.1,0.8,0.3,1.2,0.6"/>
		<path class="st22" d="M35.3,179.6c0.1-0.3,0.2-0.8,0.2-1.2"/>
		<path class="st22" d="M31.5,178.9c0.4,0.3,0.8,0.6,1.2,0.9"/>
		<path class="st22" d="M34.6,182.5c0.3-0.3,0.7-0.6,1-0.8"/>
		<rect x="13" y="201.8" width="226.6" height="7.5"/>
		<g>
			<rect x="30.2" y="212.1" width="4" height="24.5"/>
			<rect x="26" y="209.2" width="12.5" height="1.7"/>
			<rect x="28.1" y="211" width="8.4" height="1.1"/>
		</g>
		<g>
			<rect x="218.3" y="212.1" width="4" height="24.5"/>
			<rect x="214" y="209.2" width="12.5" height="1.7"/>
			<rect x="216.1" y="211" width="8.4" height="1.1"/>
		</g>
		<polygon class="st18" points="203.9,193.6 200.5,193.6 196.7,201.8 200.1,201.8 		"/>
		<polygon class="st18" points="215.5,193.6 218.8,193.6 222.6,201.8 219.2,201.8 		"/>
		
			<ellipse transform="matrix(0.2298 -0.9732 0.9732 0.2298 -13.3714 341.9504)" class="st17" cx="209.4" cy="179.4" rx="18.5" ry="18.5"/>
		<path class="st1" d="M212.1,188.1c3.2-1.3,6.1-3.4,7.9-6.3c2.2-3.3,2.9-7.4,2.6-11.4c-2.9-4.2-7.8-7.1-13.3-7.1
			c-8.8,0-16.1,7.2-16.1,16.1c0,2.9,0.8,5.7,2.2,8.1C200.7,189.9,206.8,190.2,212.1,188.1z"/>
		<path class="st1" d="M222.7,170.4c0.2,4-0.5,8.1-2.6,11.4c-1.9,2.9-4.7,5-7.9,6.3c-5.3,2.2-11.5,1.8-16.6-0.6
			c2.8,4.8,7.9,8,13.9,8c8.8,0,16.1-7.2,16.1-16.1C225.4,176.1,224.4,173,222.7,170.4z"/>
		<polygon class="st23" points="209.2,179.6 201.6,172.9 209.5,179.2 		"/>
		<polygon class="st23" points="209.6,179.2 213.1,192 209.1,179.6 		"/>
		<circle class="st23" cx="209.4" cy="179.4" r="1.2"/>
		<line class="st24" x1="209.4" y1="163.3" x2="209.4" y2="166.7"/>
		<line class="st24" x1="209.4" y1="192" x2="209.4" y2="195.4"/>
		<line class="st24" x1="225.4" y1="179.4" x2="222" y2="179.4"/>
		<line class="st24" x1="196.7" y1="179.4" x2="193.3" y2="179.4"/>
		<line class="st24" x1="195.8" y1="170.8" x2="198.7" y2="172.7"/>
		<line class="st24" x1="220" y1="186.2" x2="222.9" y2="188"/>
		<line class="st24" x1="218" y1="165.8" x2="216.1" y2="168.8"/>
		<line class="st24" x1="202.6" y1="190.1" x2="200.7" y2="193"/>
		<line class="st24" x1="222.9" y1="170.8" x2="220" y2="172.7"/>
		<line class="st24" x1="198.7" y1="186.2" x2="195.8" y2="188"/>
		<line class="st24" x1="200.7" y1="165.8" x2="202.6" y2="168.8"/>
		<line class="st24" x1="216.1" y1="190.1" x2="218" y2="193"/>
		<path class="st18" d="M168.8,198.2h-85c-2,0-3.6,1.6-3.6,3.6l0,0h92.2l0,0C172.4,199.8,170.8,198.2,168.8,198.2z"/>
		<path d="M160.3,150.2h-68c-2.9,0-5.2,2.4-5.2,5.2v42.8h78.5v-42.8C165.5,152.5,163.2,150.2,160.3,150.2z"/>
		<ellipse class="st15" cx="126.3" cy="175.2" rx="6" ry="6"/>
		<polygon class="st0" points="72.2,97.6 67.8,95.8 66.5,91.9 65.1,96 60.8,97.6 64.7,99.2 66.5,103.4 67.8,99.5 		"/>
		<g class="st25">
			<path d="M69,81.8c1.1,0.4,2.2,0.6,3.3,0.8s2.2,0.2,3.3,0.2s2.2-0.1,3.3-0.2c1.1-0.1,2.2-0.3,3.3-0.8c-1.1-0.4-2.2-0.6-3.3-0.8
				c-1.1-0.1-2.2-0.2-3.3-0.2c-1.1,0-2.2,0.1-3.3,0.2C71.2,81.2,70.1,81.4,69,81.8z"/>
			<path d="M75.7,75.1c-0.4,1.1-0.6,2.2-0.8,3.3c-0.1,1.1-0.2,2.2-0.2,3.3s0.1,2.2,0.2,3.3c0.1,1.1,0.3,2.2,0.8,3.3
				c0.4-1.1,0.6-2.2,0.8-3.3s0.2-2.2,0.2-3.3c0-1.1-0.1-2.2-0.2-3.3C76.3,77.3,76.1,76.2,75.7,75.1z"/>
			<path d="M71,86.6c1-0.5,2-1.2,2.9-1.9c0.9-0.7,1.7-1.5,2.5-2.2s1.5-1.6,2.2-2.5c0.7-0.9,1.3-1.8,1.9-2.9c-1,0.5-2,1.2-2.9,1.9
				c-0.9,0.7-1.7,1.5-2.5,2.2s-1.5,1.6-2.2,2.5C72.1,84.6,71.5,85.5,71,86.6z"/>
			<path d="M71,77c0.5,1,1.2,2,1.9,2.9c0.7,0.9,1.5,1.7,2.2,2.5s1.6,1.5,2.5,2.2c0.9,0.7,1.8,1.3,2.9,1.9c-0.5-1-1.2-2-1.9-2.9
				c-0.7-0.9-1.5-1.7-2.2-2.5s-1.6-1.5-2.5-2.2C73,78.2,72,77.6,71,77z"/>
		</g>
		<g class="st25">
			<path d="M60.7,70c0.5,0.2,1,0.3,1.5,0.3c0.5,0.1,1,0.1,1.5,0.1c0.5,0,1,0,1.5-0.1c0.5-0.1,1-0.1,1.5-0.3c-0.5-0.2-1-0.3-1.5-0.3
				c-0.5-0.1-1-0.1-1.5-0.1c-0.5,0-1,0-1.5,0.1C61.6,69.7,61.2,69.9,60.7,70z"/>
			<path d="M63.7,67c-0.2,0.5-0.3,1-0.3,1.5c-0.1,0.5-0.1,1-0.1,1.5c0,0.5,0,1,0.1,1.5c0.1,0.5,0.1,1,0.3,1.5c0.2-0.5,0.3-1,0.3-1.5
				c0.1-0.5,0.1-1,0.1-1.5c0-0.5,0-1-0.1-1.5C63.9,68,63.9,67.5,63.7,67z"/>
			<path d="M61.5,72.2c0.5-0.2,0.9-0.5,1.3-0.8c0.4-0.3,0.8-0.6,1.1-1c0.3-0.3,0.7-0.8,1-1.1c0.3-0.4,0.6-0.8,0.8-1.3
				c-0.5,0.2-0.9,0.5-1.3,0.8c-0.4,0.3-0.8,0.6-1.1,1c-0.3,0.3-0.7,0.8-1,1.1C62.1,71.3,61.8,71.7,61.5,72.2z"/>
			<path d="M61.5,67.9c0.2,0.5,0.5,0.9,0.8,1.3c0.3,0.4,0.6,0.8,1,1.1c0.3,0.3,0.8,0.7,1.1,1c0.4,0.3,0.8,0.6,1.3,0.8
				c-0.2-0.5-0.5-0.9-0.8-1.3c-0.3-0.4-0.6-0.8-1-1.1c-0.3-0.3-0.8-0.7-1.1-1C62.4,68.4,62,68.1,61.5,67.9z"/>
		</g>
		<polygon class="st0" points="185,108.2 189.4,106.5 190.7,102.5 192.1,106.6 196.4,108.2 192.5,109.8 190.7,113.9 189.4,110.1 		
			"/>
		<g class="st25">
			<path d="M183.7,96.5c-1.1,0.4-2.2,0.6-3.3,0.8c-1.1,0.1-2.2,0.2-3.3,0.2s-2.2-0.1-3.3-0.2s-2.2-0.3-3.3-0.8
				c1.1-0.4,2.2-0.6,3.3-0.8c1.1-0.1,2.2-0.2,3.3-0.2s2.2,0.1,3.3,0.2C181.4,95.9,182.5,96.1,183.7,96.5z"/>
			<path d="M177,89.8c0.4,1.1,0.6,2.2,0.8,3.3c0.1,1.1,0.2,2.2,0.2,3.3c0,1.1-0.1,2.2-0.2,3.3c-0.1,1.1-0.3,2.2-0.8,3.3
				c-0.4-1.1-0.6-2.2-0.8-3.3s-0.2-2.2-0.2-3.3c0-1.1,0.1-2.2,0.2-3.3C176.3,92,176.6,90.9,177,89.8z"/>
			<path d="M181.7,101.3c-1-0.5-2-1.2-2.9-1.9s-1.7-1.5-2.5-2.2c-0.8-0.8-1.5-1.6-2.2-2.5s-1.3-1.8-1.9-2.9c1,0.5,2,1.2,2.9,1.9
				s1.7,1.5,2.5,2.2c0.8,0.8,1.5,1.6,2.2,2.5C180.6,99.2,181.2,100.2,181.7,101.3z"/>
			<path d="M181.7,91.7c-0.5,1-1.2,2-1.9,2.9c-0.7,0.9-1.5,1.7-2.2,2.5c-0.8,0.8-1.6,1.5-2.5,2.2s-1.8,1.3-2.9,1.9
				c0.5-1,1.2-2,1.9-2.9s1.5-1.7,2.2-2.5c0.8-0.8,1.6-1.5,2.5-2.2S180.7,92.3,181.7,91.7z"/>
		</g>
		<g class="st25">
			<path d="M194.3,89.3c-0.5,0.2-1,0.3-1.5,0.3c-0.5,0.1-1,0.1-1.5,0.1c-0.5,0-1,0-1.5-0.1c-0.5-0.1-1-0.1-1.5-0.3
				c0.5-0.2,1-0.3,1.5-0.3c0.5-0.1,1-0.1,1.5-0.1c0.5,0,1,0,1.5,0.1C193.3,89,193.8,89.1,194.3,89.3z"/>
			<path d="M191.3,86.2c0.2,0.5,0.3,1,0.3,1.5c0.1,0.5,0.1,1,0.1,1.5c0,0.5,0,1-0.1,1.5c-0.1,0.5-0.1,1-0.3,1.5
				c-0.2-0.5-0.3-1-0.3-1.5c-0.1-0.5-0.1-1-0.1-1.5c0-0.5,0-1,0.1-1.5C191,87.3,191.1,86.7,191.3,86.2z"/>
			<path d="M193.4,91.4c-0.5-0.2-0.9-0.5-1.3-0.8c-0.4-0.3-0.8-0.6-1.1-1s-0.7-0.8-1-1.1c-0.3-0.4-0.6-0.8-0.8-1.3
				c0.5,0.2,0.9,0.5,1.3,0.8c0.4,0.3,0.8,0.6,1.1,1c0.3,0.3,0.7,0.8,1,1.1C192.9,90.5,193.2,90.9,193.4,91.4z"/>
			<path d="M193.4,87.1c-0.2,0.5-0.5,0.9-0.8,1.3c-0.3,0.4-0.6,0.8-1,1.1c-0.3,0.3-0.8,0.7-1.1,1c-0.4,0.3-0.8,0.6-1.3,0.8
				c0.2-0.5,0.5-0.9,0.8-1.3c0.3-0.4,0.6-0.8,1-1.1c0.3-0.3,0.8-0.7,1.1-1C192.5,87.6,192.9,87.3,193.4,87.1z"/>
		</g>
		<g>
			<path class="st26" d="M202.5,152.9c-0.1,1,0.7,1.9,1.7,1.9h1.2l3.3,3.7l4-3.7h5.6c1,0,2-0.8,2.1-1.9l1.3-14.1
				c0.1-1-0.7-1.9-1.7-1.9h-14.1c-1,0-2,0.8-2.1,1.9L202.5,152.9z"/>
		</g>
		
			<ellipse transform="matrix(0.7224 -0.6915 0.6915 0.7224 -44.2957 185.9613)" class="st27" cx="209.5" cy="148.1" rx="4.7" ry="4.2"/>
		
			<ellipse transform="matrix(0.7224 -0.6915 0.6915 0.7224 -43.0606 189.0458)" class="st27" cx="213.9" cy="148.2" rx="4.7" ry="4.2"/>
		<path class="st28" d="M216.5,143.7c-0.2,2.4-2.4,4.5-4.9,4.5c-2.5,0-4.3-2-4-4.5c0.2-2.4,2.4-4.5,4.9-4.5
			C215,139.2,216.7,141.2,216.5,143.7z"/>
		
			<ellipse transform="matrix(0.7224 -0.6915 0.6915 0.7224 -44.2957 185.9613)" class="st29" cx="209.5" cy="148.1" rx="4.7" ry="4.2"/>
		
			<ellipse transform="matrix(0.7224 -0.6915 0.6915 0.7224 -43.0606 189.0458)" class="st30" cx="213.9" cy="148.2" rx="4.7" ry="4.2"/>
		<path class="st31" d="M216.5,143.7c-0.2,2.4-2.4,4.5-4.9,4.5c-2.5,0-4.3-2-4-4.5c0.2-2.4,2.4-4.5,4.9-4.5
			C215,139.2,216.7,141.2,216.5,143.7z"/>
		<g>
			<path class="st32" d="M223.8,146.5c-0.1,0.8,0.5,1.5,1.3,1.5h1.4l2.8,3.1l3.3-3.1h5.2c0.8,0,1.5-0.6,1.5-1.5l1.1-12.7
				c0.1-0.8-0.5-1.5-1.3-1.5h-12.7c-0.8,0-1.5,0.6-1.5,1.5L223.8,146.5z"/>
		</g>
		<g>
			<g>
				<g>
					<path class="st18" d="M226.9,140.2c0,0.1,0.1,0.3,0.2,0.3h1.7c0,1.5,1.1,2.8,2.6,2.9l-0.1,1.7c0,0.1,0.1,0.3,0.2,0.3
						c0.1,0,0.3-0.1,0.3-0.3l0.1-1.7c1.5-0.1,2.9-1.4,3.1-2.9h1.7c0.1,0,0.3-0.1,0.3-0.3c0-0.1-0.1-0.3-0.2-0.3h-1.7
						c0-1.5-1.1-2.8-2.6-2.9l0.1-1.7c0-0.1-0.1-0.3-0.2-0.3c-0.1,0-0.3,0.1-0.3,0.3L232,137c-1.5,0.1-2.9,1.4-3.1,2.9h-1.7
						C227,139.9,227,140.1,226.9,140.2z M232.1,137.6l-0.1,0.6c-0.9,0.1-1.7,0.8-2,1.7h-0.6C229.7,138.7,230.7,137.7,232.1,137.6z
						 M232.5,138.7c0.6,0.1,1,0.6,1.1,1.3h-1.3L232.5,138.7z M233.5,140.5c-0.1,0.6-0.7,1.1-1.3,1.3l0.1-1.3H233.5z M231.6,141.7
						c-0.6-0.1-1-0.6-1.1-1.3h1.3L231.6,141.7z M230.6,139.9c0.1-0.6,0.7-1.1,1.3-1.3l-0.1,1.3H230.6z M234.7,139.9h-0.6
						c-0.1-0.9-0.7-1.7-1.6-1.7l0.1-0.6C233.8,137.7,234.7,138.7,234.7,139.9z M232.1,142.8l0.1-0.6c0.9-0.1,1.7-0.8,2-1.7h0.6
						C234.4,141.7,233.4,142.7,232.1,142.8z M229.4,140.5h0.6c0.1,0.9,0.7,1.7,1.6,1.7l-0.1,0.6
						C230.3,142.7,229.4,141.7,229.4,140.5z"/>
					<path class="st33" d="M226.9,140.2c0,0.1,0.1,0.3,0.2,0.3h1.7c0,1.5,1.1,2.8,2.6,2.9l-0.1,1.7c0,0.1,0.1,0.3,0.2,0.3
						c0.1,0,0.3-0.1,0.3-0.3l0.1-1.7c1.5-0.1,2.9-1.4,3.1-2.9h1.7c0.1,0,0.3-0.1,0.3-0.3c0-0.1-0.1-0.3-0.2-0.3h-1.7
						c0-1.5-1.1-2.8-2.6-2.9l0.1-1.7c0-0.1-0.1-0.3-0.2-0.3c-0.1,0-0.3,0.1-0.3,0.3L232,137c-1.5,0.1-2.9,1.4-3.1,2.9h-1.7
						C227,139.9,227,140.1,226.9,140.2z M232.1,137.6l-0.1,0.6c-0.9,0.1-1.7,0.8-2,1.7h-0.6C229.7,138.7,230.7,137.7,232.1,137.6z
						 M232.5,138.7c0.6,0.1,1,0.6,1.1,1.3h-1.3L232.5,138.7z M233.5,140.5c-0.1,0.6-0.7,1.1-1.3,1.3l0.1-1.3H233.5z M231.6,141.7
						c-0.6-0.1-1-0.6-1.1-1.3h1.3L231.6,141.7z M230.6,139.9c0.1-0.6,0.7-1.1,1.3-1.3l-0.1,1.3H230.6z M234.7,139.9h-0.6
						c-0.1-0.9-0.7-1.7-1.6-1.7l0.1-0.6C233.8,137.7,234.7,138.7,234.7,139.9z M232.1,142.8l0.1-0.6c0.9-0.1,1.7-0.8,2-1.7h0.6
						C234.4,141.7,233.4,142.7,232.1,142.8z M229.4,140.5h0.6c0.1,0.9,0.7,1.7,1.6,1.7l-0.1,0.6
						C230.3,142.7,229.4,141.7,229.4,140.5z"/>
					<g>
						<path class="st18" d="M238.6,136.7L238.6,136.7c0.1,0,0.3-0.1,0.3-0.3l0.2-2.7h-2.7c-0.1,0-0.3,0.1-0.3,0.3l0,0
							c0,0.1,0.1,0.3,0.3,0.3h2.1l-0.2,2.1C238.3,136.6,238.4,136.7,238.6,136.7z"/>
					</g>
					<g>
						<path class="st18" d="M229.1,134L229.1,134c0-0.1-0.1-0.3-0.3-0.3h-2.7l-0.2,2.7c0,0.1,0.1,0.3,0.3,0.3l0,0
							c0.1,0,0.3-0.1,0.3-0.3l0.2-2.1h2.1C228.9,134.3,229.1,134.1,229.1,134z"/>
					</g>
					<g>
						<path class="st18" d="M225.5,143.8L225.5,143.8c-0.1,0-0.3,0.1-0.3,0.3l-0.2,2.7h2.7c0.1,0,0.3-0.1,0.3-0.3l0,0
							c0-0.1-0.1-0.3-0.3-0.3h-2.1l0.2-2.1C225.9,143.9,225.7,143.8,225.5,143.8z"/>
					</g>
					<g>
						<path class="st18" d="M235.1,146.4L235.1,146.4c0,0.1,0.1,0.3,0.3,0.3h2.7l0.2-2.7c0-0.1-0.1-0.3-0.3-0.3l0,0
							c-0.1,0-0.3,0.1-0.3,0.3l-0.2,2.1h-2.1C235.2,146.1,235.1,146.3,235.1,146.4z"/>
					</g>
					<g class="st6">
						<path class="st18" d="M238.6,136.7L238.6,136.7c0.1,0,0.3-0.1,0.3-0.3l0.2-2.7h-2.7c-0.1,0-0.3,0.1-0.3,0.3l0,0
							c0,0.1,0.1,0.3,0.3,0.3h2.1l-0.2,2.1C238.3,136.6,238.4,136.7,238.6,136.7z"/>
					</g>
					<g class="st6">
						<path class="st18" d="M229.1,134L229.1,134c0-0.1-0.1-0.3-0.3-0.3h-2.7l-0.2,2.7c0,0.1,0.1,0.3,0.3,0.3l0,0
							c0.1,0,0.3-0.1,0.3-0.3l0.2-2.1h2.1C228.9,134.3,229.1,134.1,229.1,134z"/>
					</g>
					<g class="st6">
						<path class="st18" d="M225.5,143.8L225.5,143.8c-0.1,0-0.3,0.1-0.3,0.3l-0.2,2.7h2.7c0.1,0,0.3-0.1,0.3-0.3l0,0
							c0-0.1-0.1-0.3-0.3-0.3h-2.1l0.2-2.1C225.9,143.9,225.7,143.8,225.5,143.8z"/>
					</g>
					<g class="st6">
						<path class="st18" d="M235.1,146.4L235.1,146.4c0,0.1,0.1,0.3,0.3,0.3h2.7l0.2-2.7c0-0.1-0.1-0.3-0.3-0.3l0,0
							c-0.1,0-0.3,0.1-0.3,0.3l-0.2,2.1h-2.1C235.2,146.1,235.1,146.3,235.1,146.4z"/>
					</g>
				</g>
			</g>
		</g>
	</g>
</g>
</svg>
